<ttFont>
    <TTGlyph name=".notdef" xMin="68" yMin="0" xMax="612" yMax="1365">
      <contour>
        <pt x="68" y="0" on="1"/>
        <pt x="68" y="1365" on="1"/>
        <pt x="612" y="1365" on="1"/>
        <pt x="612" y="0" on="1"/>
      </contour>
      <contour>
        <pt x="136" y="68" on="1"/>
        <pt x="544" y="68" on="1"/>
        <pt x="544" y="1297" on="1"/>
        <pt x="136" y="1297" on="1"/>
      </contour>
    </TTGlyph>
    <TTGlyph name="A" xMin="-30" yMin="-9" xMax="1527" yMax="1483">
      <contour>
        <pt x="-29" y="26" on="1"/>
        <pt x="-30" y="33" on="0"/>
        <pt x="-30" y="39" on="1"/>
        <pt x="-30" y="58" on="0"/>
        <pt x="-25" y="72" on="1"/>
        <pt x="0" y="72" on="0"/>
        <pt x="117" y="119" on="0"/>
        <pt x="132" y="143" on="1"/>
        <pt x="170" y="206" on="0"/>
        <pt x="211" y="300" on="1"/>
        <pt x="688" y="1398" on="1"/>
        <pt x="699" y="1423" on="0"/>
        <pt x="754" y="1483" on="0"/>
        <pt x="771" y="1483" on="1"/>
        <pt x="785" y="1483" on="0"/>
        <pt x="814" y="1473" on="0"/>
        <pt x="818" y="1467" on="1"/>
        <pt x="1277" y="332" on="1"/>
        <pt x="1292" y="295" on="0"/>
        <pt x="1330" y="192" on="0"/>
        <pt x="1340" y="170" on="1"/>
        <pt x="1353" y="138" on="0"/>
        <pt x="1406" y="95" on="0"/>
        <pt x="1467" y="79" on="0"/>
        <pt x="1503" y="74" on="0"/>
        <pt x="1516" y="74" on="1"/>
        <pt x="1524" y="58" on="0"/>
        <pt x="1526" y="28" on="1"/>
        <pt x="1526" y="23" on="0"/>
        <pt x="1527" y="18" on="1"/>
        <pt x="1527" y="-4" on="0"/>
        <pt x="1521" y="-9" on="1"/>
        <pt x="1501" y="-8" on="0"/>
        <pt x="1279" y="9" on="0"/>
        <pt x="1221" y="9" on="1"/>
        <pt x="1175" y="9" on="0"/>
        <pt x="1049" y="2" on="0"/>
        <pt x="903" y="-8" on="0"/>
        <pt x="883" y="-9" on="1"/>
        <pt x="874" y="-1" on="0"/>
        <pt x="874" y="74" on="0"/>
        <pt x="883" y="74" on="1"/>
        <pt x="915" y="74" on="0"/>
        <pt x="993" y="96" on="0"/>
        <pt x="1015" y="114" on="1"/>
        <pt x="1035" y="131" on="0"/>
        <pt x="1035" y="152" on="1"/>
        <pt x="1035" y="161" on="0"/>
        <pt x="968" y="332" on="0"/>
        <pt x="934" y="412" on="1"/>
        <pt x="900" y="493" on="1"/>
        <pt x="892" y="502" on="0"/>
        <pt x="885" y="502" on="1"/>
        <pt x="842" y="504" on="0"/>
        <pt x="670" y="504" on="1"/>
        <pt x="515" y="504" on="0"/>
        <pt x="437" y="502" on="1"/>
        <pt x="427" y="502" on="0"/>
        <pt x="421" y="491" on="1"/>
        <pt x="365" y="365" on="0"/>
        <pt x="340" y="302" on="1"/>
        <pt x="323" y="259" on="0"/>
        <pt x="291" y="161" on="0"/>
        <pt x="291" y="150" on="1"/>
        <pt x="291" y="130" on="0"/>
        <pt x="339" y="98" on="0"/>
        <pt x="404" y="82" on="0"/>
        <pt x="454" y="74" on="0"/>
        <pt x="464" y="74" on="1"/>
        <pt x="473" y="61" on="0"/>
        <pt x="472" y="-1" on="0"/>
        <pt x="466" y="-9" on="1"/>
        <pt x="309" y="9" on="0"/>
        <pt x="224" y="9" on="1"/>
        <pt x="199" y="9" on="0"/>
        <pt x="149" y="7" on="0"/>
        <pt x="119" y="6" on="0"/>
        <pt x="64" y="1" on="0"/>
        <pt x="49" y="-1" on="0"/>
        <pt x="-16" y="-9" on="0"/>
        <pt x="-20" y="-9" on="1"/>
        <pt x="-27" y="-2" on="0"/>
      </contour>
      <contour>
        <pt x="470" y="627" on="1"/>
        <pt x="470" y="618" on="0"/>
        <pt x="475" y="618" on="1"/>
        <pt x="542" y="612" on="0"/>
        <pt x="661" y="612" on="1"/>
        <pt x="771" y="612" on="0"/>
        <pt x="840" y="616" on="1"/>
        <pt x="842" y="616" on="0"/>
        <pt x="845" y="622" on="0"/>
        <pt x="846" y="624" on="1"/>
        <pt x="847" y="627" on="1"/>
        <pt x="661" y="1066" on="1"/>
      </contour>
    </TTGlyph>
    <TTGlyph name="AE" xMin="-52" yMin="-9" xMax="1969" yMax="1487">
      <contour>
        <pt x="-51" y="-1" on="0"/>
        <pt x="-52" y="52" on="0"/>
        <pt x="-43" y="72" on="1"/>
        <pt x="-17" y="72" on="0"/>
        <pt x="113" y="119" on="0"/>
        <pt x="132" y="143" on="1"/>
        <pt x="188" y="211" on="0"/>
        <pt x="242" y="300" on="1"/>
        <pt x="900" y="1353" on="1"/>
        <pt x="900" y="1357" on="0"/>
        <pt x="898" y="1360" on="1"/>
        <pt x="895" y="1366" on="0"/>
        <pt x="879" y="1377" on="0"/>
        <pt x="856" y="1384" on="0"/>
        <pt x="833" y="1389" on="0"/>
        <pt x="803" y="1392" on="0"/>
        <pt x="784" y="1394" on="0"/>
        <pt x="757" y="1395" on="0"/>
        <pt x="755" y="1396" on="1"/>
        <pt x="747" y="1408" on="0"/>
        <pt x="748" y="1468" on="0"/>
        <pt x="755" y="1478" on="1"/>
        <pt x="856" y="1472" on="0"/>
        <pt x="1075" y="1472" on="1"/>
        <pt x="1107" y="1472" on="0"/>
        <pt x="1314" y="1476" on="0"/>
        <pt x="1534" y="1481" on="0"/>
        <pt x="1761" y="1487" on="0"/>
        <pt x="1803" y="1487" on="1"/>
        <pt x="1809" y="1448" on="0"/>
        <pt x="1826" y="1354" on="0"/>
        <pt x="1841" y="1282" on="0"/>
        <pt x="1862" y="1185" on="0"/>
        <pt x="1868" y="1156" on="1"/>
        <pt x="1863" y="1151" on="0"/>
        <pt x="1830" y="1145" on="0"/>
        <pt x="1817" y="1145" on="1"/>
        <pt x="1788" y="1145" on="0"/>
        <pt x="1781" y="1163" on="1"/>
        <pt x="1761" y="1215" on="0"/>
        <pt x="1722" y="1287" on="0"/>
        <pt x="1666" y="1355" on="0"/>
        <pt x="1588" y="1389" on="0"/>
        <pt x="1539" y="1389" on="1"/>
        <pt x="1353" y="1389" on="1"/>
        <pt x="1305" y="1389" on="0"/>
        <pt x="1249" y="1379" on="0"/>
        <pt x="1241" y="1362" on="1"/>
        <pt x="1230" y="1335" on="0"/>
        <pt x="1230" y="1225" on="1"/>
        <pt x="1230" y="824" on="1"/>
        <pt x="1230" y="818" on="0"/>
        <pt x="1257" y="806" on="0"/>
        <pt x="1302" y="800" on="0"/>
        <pt x="1326" y="800" on="1"/>
        <pt x="1445" y="800" on="1"/>
        <pt x="1496" y="800" on="0"/>
        <pt x="1557" y="811" on="0"/>
        <pt x="1602" y="849" on="0"/>
        <pt x="1628" y="905" on="0"/>
        <pt x="1642" y="956" on="1"/>
        <pt x="1646" y="974" on="0"/>
        <pt x="1669" y="974" on="1"/>
        <pt x="1700" y="974" on="0"/>
        <pt x="1711" y="963" on="1"/>
        <pt x="1711" y="533" on="1"/>
        <pt x="1702" y="524" on="0"/>
        <pt x="1671" y="524" on="1"/>
        <pt x="1643" y="524" on="0"/>
        <pt x="1640" y="542" on="1"/>
        <pt x="1627" y="592" on="0"/>
        <pt x="1596" y="654" on="0"/>
        <pt x="1575" y="673" on="0"/>
        <pt x="1561" y="679" on="1"/>
        <pt x="1524" y="694" on="0"/>
        <pt x="1391" y="694" on="1"/>
        <pt x="1230" y="694" on="0"/>
        <pt x="1230" y="663" on="1"/>
        <pt x="1230" y="316" on="1"/>
        <pt x="1230" y="184" on="0"/>
        <pt x="1248" y="139" on="1"/>
        <pt x="1257" y="117" on="0"/>
        <pt x="1344" y="94" on="0"/>
        <pt x="1393" y="94" on="1"/>
        <pt x="1541" y="94" on="1"/>
        <pt x="1676" y="94" on="0"/>
        <pt x="1749" y="168" on="1"/>
        <pt x="1815" y="233" on="0"/>
        <pt x="1870" y="381" on="1"/>
        <pt x="1874" y="394" on="0"/>
        <pt x="1902" y="394" on="1"/>
        <pt x="1919" y="394" on="0"/>
        <pt x="1964" y="386" on="0"/>
        <pt x="1969" y="381" on="1"/>
        <pt x="1964" y="367" on="0"/>
        <pt x="1921" y="246" on="0"/>
        <pt x="1902" y="190" on="0"/>
        <pt x="1870" y="94" on="0"/>
        <pt x="1852" y="24" on="0"/>
        <pt x="1848" y="-4" on="1"/>
        <pt x="1086" y="-4" on="1"/>
        <pt x="1014" y="-4" on="0"/>
        <pt x="863" y="-6" on="0"/>
        <pt x="764" y="-7" on="0"/>
        <pt x="755" y="-7" on="1"/>
        <pt x="748" y="4" on="0"/>
        <pt x="747" y="64" on="0"/>
        <pt x="755" y="76" on="1"/>
        <pt x="888" y="86" on="0"/>
        <pt x="898" y="114" on="1"/>
        <pt x="910" y="145" on="0"/>
        <pt x="916" y="235" on="0"/>
        <pt x="916" y="325" on="1"/>
        <pt x="916" y="504" on="1"/>
        <pt x="916" y="504" on="0"/>
        <pt x="739" y="504" on="1"/>
        <pt x="598" y="504" on="0"/>
        <pt x="520" y="502" on="1"/>
        <pt x="515" y="502" on="0"/>
        <pt x="504" y="494" on="0"/>
        <pt x="502" y="491" on="1"/>
        <pt x="414" y="358" on="0"/>
        <pt x="379" y="296" on="1"/>
        <pt x="352" y="251" on="0"/>
        <pt x="304" y="159" on="0"/>
        <pt x="302" y="148" on="1"/>
        <pt x="299" y="128" on="0"/>
        <pt x="336" y="96" on="0"/>
        <pt x="392" y="81" on="0"/>
        <pt x="436" y="74" on="0"/>
        <pt x="446" y="74" on="1"/>
        <pt x="454" y="62" on="0"/>
        <pt x="455" y="-3" on="0"/>
        <pt x="448" y="-9" on="1"/>
        <pt x="296" y="9" on="0"/>
        <pt x="199" y="9" on="1"/>
        <pt x="170" y="9" on="0"/>
        <pt x="120" y="7" on="0"/>
        <pt x="60" y="2" on="0"/>
        <pt x="38" y="1" on="0"/>
        <pt x="-39" y="-8" on="0"/>
        <pt x="-45" y="-9" on="1"/>
      </contour>
      <contour>
        <pt x="578" y="627" on="1"/>
        <pt x="576" y="618" on="0"/>
        <pt x="580" y="618" on="1"/>
        <pt x="647" y="612" on="0"/>
        <pt x="750" y="612" on="1"/>
        <pt x="856" y="612" on="0"/>
        <pt x="916" y="616" on="1"/>
        <pt x="916" y="1165" on="1"/>
      </contour>
    </TTGlyph>
    <TTGlyph name="Aacute" xMin="-31" yMin="-9" xMax="1528" yMax="1947">
      <contour>
        <pt x="-27" y="-2" on="0"/>
        <pt x="-31" y="53" on="0"/>
        <pt x="-25" y="72" on="1"/>
        <pt x="0" y="72" on="0"/>
        <pt x="117" y="119" on="0"/>
        <pt x="132" y="143" on="1"/>
        <pt x="170" y="206" on="0"/>
        <pt x="211" y="300" on="1"/>
        <pt x="688" y="1398" on="1"/>
        <pt x="699" y="1423" on="0"/>
        <pt x="754" y="1483" on="0"/>
        <pt x="771" y="1483" on="1"/>
        <pt x="785" y="1483" on="0"/>
        <pt x="814" y="1473" on="0"/>
        <pt x="818" y="1467" on="1"/>
        <pt x="1277" y="332" on="1"/>
        <pt x="1292" y="295" on="0"/>
        <pt x="1330" y="192" on="0"/>
        <pt x="1340" y="170" on="1"/>
        <pt x="1353" y="138" on="0"/>
        <pt x="1406" y="95" on="0"/>
        <pt x="1467" y="79" on="0"/>
        <pt x="1503" y="74" on="0"/>
        <pt x="1516" y="74" on="1"/>
        <pt x="1525" y="59" on="0"/>
        <pt x="1528" y="-2" on="0"/>
        <pt x="1521" y="-9" on="1"/>
        <pt x="1501" y="-8" on="0"/>
        <pt x="1279" y="9" on="0"/>
        <pt x="1221" y="9" on="1"/>
        <pt x="1175" y="9" on="0"/>
        <pt x="1049" y="2" on="0"/>
        <pt x="903" y="-8" on="0"/>
        <pt x="883" y="-9" on="1"/>
        <pt x="874" y="-1" on="0"/>
        <pt x="874" y="74" on="0"/>
        <pt x="883" y="74" on="1"/>
        <pt x="915" y="74" on="0"/>
        <pt x="993" y="96" on="0"/>
        <pt x="1015" y="114" on="1"/>
        <pt x="1035" y="131" on="0"/>
        <pt x="1035" y="152" on="1"/>
        <pt x="1035" y="161" on="0"/>
        <pt x="968" y="332" on="0"/>
        <pt x="934" y="412" on="1"/>
        <pt x="900" y="493" on="1"/>
        <pt x="892" y="502" on="0"/>
        <pt x="885" y="502" on="1"/>
        <pt x="842" y="504" on="0"/>
        <pt x="670" y="504" on="1"/>
        <pt x="515" y="504" on="0"/>
        <pt x="437" y="502" on="1"/>
        <pt x="427" y="502" on="0"/>
        <pt x="421" y="491" on="1"/>
        <pt x="365" y="365" on="0"/>
        <pt x="340" y="302" on="1"/>
        <pt x="323" y="259" on="0"/>
        <pt x="291" y="161" on="0"/>
        <pt x="291" y="150" on="1"/>
        <pt x="291" y="130" on="0"/>
        <pt x="339" y="98" on="0"/>
        <pt x="404" y="82" on="0"/>
        <pt x="454" y="74" on="0"/>
        <pt x="464" y="74" on="1"/>
        <pt x="473" y="61" on="0"/>
        <pt x="472" y="-1" on="0"/>
        <pt x="466" y="-9" on="1"/>
        <pt x="309" y="9" on="0"/>
        <pt x="224" y="9" on="1"/>
        <pt x="199" y="9" on="0"/>
        <pt x="149" y="7" on="0"/>
        <pt x="119" y="6" on="0"/>
        <pt x="64" y="1" on="0"/>
        <pt x="49" y="-1" on="0"/>
        <pt x="-16" y="-9" on="0"/>
        <pt x="-20" y="-9" on="1"/>
      </contour>
      <contour>
        <pt x="470" y="627" on="1"/>
        <pt x="470" y="618" on="0"/>
        <pt x="475" y="618" on="1"/>
        <pt x="542" y="612" on="0"/>
        <pt x="661" y="612" on="1"/>
        <pt x="771" y="612" on="0"/>
        <pt x="840" y="616" on="1"/>
        <pt x="842" y="616" on="0"/>
        <pt x="845" y="622" on="0"/>
        <pt x="846" y="624" on="1"/>
        <pt x="847" y="627" on="1"/>
        <pt x="661" y="1066" on="1"/>
      </contour>
      <contour>
        <pt x="647" y="1676" on="1"/>
        <pt x="647" y="1688" on="0"/>
        <pt x="843" y="1882" on="0"/>
        <pt x="916" y="1938" on="1"/>
        <pt x="934" y="1947" on="0"/>
        <pt x="956" y="1947" on="1"/>
        <pt x="980" y="1947" on="0"/>
        <pt x="1034" y="1931" on="0"/>
        <pt x="1082" y="1890" on="0"/>
        <pt x="1082" y="1833" on="0"/>
        <pt x="965" y="1749" on="0"/>
        <pt x="819" y="1680" on="0"/>
        <pt x="692" y="1631" on="0"/>
        <pt x="679" y="1631" on="1"/>
        <pt x="668" y="1631" on="0"/>
        <pt x="647" y="1664" on="0"/>
      </contour>
    </TTGlyph>
    <TTGlyph name="Acircumflex" xMin="-31" yMin="-9" xMax="1528" yMax="1949">
      <contour>
        <pt x="-27" y="-2" on="0"/>
        <pt x="-31" y="53" on="0"/>
        <pt x="-25" y="72" on="1"/>
        <pt x="0" y="72" on="0"/>
        <pt x="117" y="119" on="0"/>
        <pt x="132" y="143" on="1"/>
        <pt x="170" y="206" on="0"/>
        <pt x="211" y="300" on="1"/>
        <pt x="688" y="1398" on="1"/>
        <pt x="699" y="1423" on="0"/>
        <pt x="754" y="1483" on="0"/>
        <pt x="771" y="1483" on="1"/>
        <pt x="785" y="1483" on="0"/>
        <pt x="814" y="1473" on="0"/>
        <pt x="818" y="1467" on="1"/>
        <pt x="1277" y="332" on="1"/>
        <pt x="1292" y="295" on="0"/>
        <pt x="1330" y="192" on="0"/>
        <pt x="1340" y="170" on="1"/>
        <pt x="1353" y="138" on="0"/>
        <pt x="1406" y="95" on="0"/>
        <pt x="1467" y="79" on="0"/>
        <pt x="1503" y="74" on="0"/>
        <pt x="1516" y="74" on="1"/>
        <pt x="1525" y="59" on="0"/>
        <pt x="1528" y="-2" on="0"/>
        <pt x="1521" y="-9" on="1"/>
        <pt x="1501" y="-8" on="0"/>
        <pt x="1279" y="9" on="0"/>
        <pt x="1221" y="9" on="1"/>
        <pt x="1175" y="9" on="0"/>
        <pt x="1049" y="2" on="0"/>
        <pt x="903" y="-8" on="0"/>
        <pt x="883" y="-9" on="1"/>
        <pt x="874" y="-1" on="0"/>
        <pt x="874" y="74" on="0"/>
        <pt x="883" y="74" on="1"/>
        <pt x="915" y="74" on="0"/>
        <pt x="993" y="96" on="0"/>
        <pt x="1015" y="114" on="1"/>
        <pt x="1035" y="131" on="0"/>
        <pt x="1035" y="152" on="1"/>
        <pt x="1035" y="161" on="0"/>
        <pt x="968" y="332" on="0"/>
        <pt x="934" y="412" on="1"/>
        <pt x="900" y="493" on="1"/>
        <pt x="892" y="502" on="0"/>
        <pt x="885" y="502" on="1"/>
        <pt x="842" y="504" on="0"/>
        <pt x="670" y="504" on="1"/>
        <pt x="515" y="504" on="0"/>
        <pt x="437" y="502" on="1"/>
        <pt x="427" y="502" on="0"/>
        <pt x="421" y="491" on="1"/>
        <pt x="365" y="365" on="0"/>
        <pt x="340" y="302" on="1"/>
        <pt x="323" y="259" on="0"/>
        <pt x="291" y="161" on="0"/>
        <pt x="291" y="150" on="1"/>
        <pt x="291" y="130" on="0"/>
        <pt x="339" y="98" on="0"/>
        <pt x="404" y="82" on="0"/>
        <pt x="454" y="74" on="0"/>
        <pt x="464" y="74" on="1"/>
        <pt x="473" y="61" on="0"/>
        <pt x="472" y="-1" on="0"/>
        <pt x="466" y="-9" on="1"/>
        <pt x="309" y="9" on="0"/>
        <pt x="224" y="9" on="1"/>
        <pt x="199" y="9" on="0"/>
        <pt x="149" y="7" on="0"/>
        <pt x="119" y="6" on="0"/>
        <pt x="64" y="1" on="0"/>
        <pt x="49" y="-1" on="0"/>
        <pt x="-16" y="-9" on="0"/>
        <pt x="-20" y="-9" on="1"/>
      </contour>
      <contour>
        <pt x="470" y="627" on="1"/>
        <pt x="470" y="618" on="0"/>
        <pt x="475" y="618" on="1"/>
        <pt x="542" y="612" on="0"/>
        <pt x="661" y="612" on="1"/>
        <pt x="771" y="612" on="0"/>
        <pt x="840" y="616" on="1"/>
        <pt x="842" y="616" on="0"/>
        <pt x="845" y="622" on="0"/>
        <pt x="846" y="624" on="1"/>
        <pt x="847" y="627" on="1"/>
        <pt x="661" y="1066" on="1"/>
      </contour>
      <contour>
        <pt x="488" y="1673" on="1"/>
        <pt x="513" y="1692" on="0"/>
        <pt x="650" y="1819" on="1"/>
        <pt x="665" y="1833" on="0"/>
        <pt x="694" y="1862" on="0"/>
        <pt x="715" y="1885" on="0"/>
        <pt x="731" y="1903" on="0"/>
        <pt x="747" y="1922" on="0"/>
        <pt x="750" y="1926" on="1"/>
        <pt x="769" y="1949" on="0"/>
        <pt x="780" y="1949" on="1"/>
        <pt x="785" y="1949" on="0"/>
        <pt x="801" y="1935" on="0"/>
        <pt x="809" y="1926" on="1"/>
        <pt x="862" y="1868" on="0"/>
        <pt x="903" y="1828" on="1"/>
        <pt x="1028" y="1705" on="0"/>
        <pt x="1071" y="1673" on="1"/>
        <pt x="1071" y="1660" on="0"/>
        <pt x="1058" y="1639" on="0"/>
        <pt x="1048" y="1635" on="1"/>
        <pt x="1026" y="1641" on="0"/>
        <pt x="828" y="1738" on="0"/>
        <pt x="780" y="1770" on="1"/>
        <pt x="730" y="1737" on="0"/>
        <pt x="537" y="1642" on="0"/>
        <pt x="511" y="1635" on="1"/>
        <pt x="506" y="1638" on="0"/>
        <pt x="496" y="1648" on="0"/>
        <pt x="488" y="1665" on="0"/>
      </contour>
    </TTGlyph>
    <TTGlyph name="Adieresis" xMin="-31" yMin="-9" xMax="1528" yMax="1935">
      <contour>
        <pt x="-27" y="-2" on="0"/>
        <pt x="-31" y="53" on="0"/>
        <pt x="-25" y="72" on="1"/>
        <pt x="0" y="72" on="0"/>
        <pt x="117" y="119" on="0"/>
        <pt x="132" y="143" on="1"/>
        <pt x="170" y="206" on="0"/>
        <pt x="211" y="300" on="1"/>
        <pt x="688" y="1398" on="1"/>
        <pt x="699" y="1423" on="0"/>
        <pt x="754" y="1483" on="0"/>
        <pt x="771" y="1483" on="1"/>
        <pt x="785" y="1483" on="0"/>
        <pt x="814" y="1473" on="0"/>
        <pt x="818" y="1467" on="1"/>
        <pt x="1277" y="332" on="1"/>
        <pt x="1292" y="295" on="0"/>
        <pt x="1330" y="192" on="0"/>
        <pt x="1340" y="170" on="1"/>
        <pt x="1353" y="138" on="0"/>
        <pt x="1406" y="95" on="0"/>
        <pt x="1467" y="79" on="0"/>
        <pt x="1503" y="74" on="0"/>
        <pt x="1516" y="74" on="1"/>
        <pt x="1525" y="59" on="0"/>
        <pt x="1528" y="-2" on="0"/>
        <pt x="1521" y="-9" on="1"/>
        <pt x="1501" y="-8" on="0"/>
        <pt x="1279" y="9" on="0"/>
        <pt x="1221" y="9" on="1"/>
        <pt x="1175" y="9" on="0"/>
        <pt x="1049" y="2" on="0"/>
        <pt x="903" y="-8" on="0"/>
        <pt x="883" y="-9" on="1"/>
        <pt x="874" y="-1" on="0"/>
        <pt x="874" y="74" on="0"/>
        <pt x="883" y="74" on="1"/>
        <pt x="915" y="74" on="0"/>
        <pt x="993" y="96" on="0"/>
        <pt x="1015" y="114" on="1"/>
        <pt x="1035" y="131" on="0"/>
        <pt x="1035" y="152" on="1"/>
        <pt x="1035" y="161" on="0"/>
        <pt x="968" y="332" on="0"/>
        <pt x="934" y="412" on="1"/>
        <pt x="900" y="493" on="1"/>
        <pt x="892" y="502" on="0"/>
        <pt x="885" y="502" on="1"/>
        <pt x="842" y="504" on="0"/>
        <pt x="670" y="504" on="1"/>
        <pt x="515" y="504" on="0"/>
        <pt x="437" y="502" on="1"/>
        <pt x="427" y="502" on="0"/>
        <pt x="421" y="491" on="1"/>
        <pt x="365" y="365" on="0"/>
        <pt x="340" y="302" on="1"/>
        <pt x="323" y="259" on="0"/>
        <pt x="291" y="161" on="0"/>
        <pt x="291" y="150" on="1"/>
        <pt x="291" y="130" on="0"/>
        <pt x="339" y="98" on="0"/>
        <pt x="404" y="82" on="0"/>
        <pt x="454" y="74" on="0"/>
        <pt x="464" y="74" on="1"/>
        <pt x="473" y="61" on="0"/>
        <pt x="472" y="-1" on="0"/>
        <pt x="466" y="-9" on="1"/>
        <pt x="309" y="9" on="0"/>
        <pt x="224" y="9" on="1"/>
        <pt x="199" y="9" on="0"/>
        <pt x="149" y="7" on="0"/>
        <pt x="119" y="6" on="0"/>
        <pt x="64" y="1" on="0"/>
        <pt x="49" y="-1" on="0"/>
        <pt x="-16" y="-9" on="0"/>
        <pt x="-20" y="-9" on="1"/>
      </contour>
      <contour>
        <pt x="372" y="1785" on="1"/>
        <pt x="372" y="1849" on="0"/>
        <pt x="458" y="1935" on="0"/>
        <pt x="522" y="1935" on="1"/>
        <pt x="553" y="1935" on="0"/>
        <pt x="610" y="1912" on="0"/>
        <pt x="650" y="1872" on="0"/>
        <pt x="674" y="1817" on="0"/>
        <pt x="674" y="1785" on="1"/>
        <pt x="674" y="1721" on="0"/>
        <pt x="586" y="1633" on="0"/>
        <pt x="522" y="1633" on="1"/>
        <pt x="458" y="1633" on="0"/>
        <pt x="372" y="1721" on="0"/>
      </contour>
      <contour>
        <pt x="470" y="627" on="1"/>
        <pt x="470" y="618" on="0"/>
        <pt x="475" y="618" on="1"/>
        <pt x="542" y="612" on="0"/>
        <pt x="661" y="612" on="1"/>
        <pt x="771" y="612" on="0"/>
        <pt x="840" y="616" on="1"/>
        <pt x="842" y="616" on="0"/>
        <pt x="845" y="622" on="0"/>
        <pt x="846" y="624" on="1"/>
        <pt x="847" y="627" on="1"/>
        <pt x="661" y="1066" on="1"/>
      </contour>
      <contour>
        <pt x="876" y="1785" on="1"/>
        <pt x="876" y="1849" on="0"/>
        <pt x="964" y="1935" on="0"/>
        <pt x="1028" y="1935" on="1"/>
        <pt x="1070" y="1935" on="0"/>
        <pt x="1140" y="1896" on="0"/>
        <pt x="1180" y="1827" on="0"/>
        <pt x="1180" y="1785" on="1"/>
        <pt x="1180" y="1721" on="0"/>
        <pt x="1092" y="1633" on="0"/>
        <pt x="964" y="1633" on="0"/>
        <pt x="876" y="1721" on="0"/>
      </contour>
    </TTGlyph>
    <TTGlyph name="Agrave" xMin="-31" yMin="-9" xMax="1528" yMax="1947">
      <contour>
        <pt x="-27" y="-2" on="0"/>
        <pt x="-31" y="53" on="0"/>
        <pt x="-25" y="72" on="1"/>
        <pt x="0" y="72" on="0"/>
        <pt x="117" y="119" on="0"/>
        <pt x="132" y="143" on="1"/>
        <pt x="170" y="206" on="0"/>
        <pt x="211" y="300" on="1"/>
        <pt x="688" y="1398" on="1"/>
        <pt x="699" y="1423" on="0"/>
        <pt x="754" y="1483" on="0"/>
        <pt x="771" y="1483" on="1"/>
        <pt x="785" y="1483" on="0"/>
        <pt x="814" y="1473" on="0"/>
        <pt x="818" y="1467" on="1"/>
        <pt x="1277" y="332" on="1"/>
        <pt x="1292" y="295" on="0"/>
        <pt x="1330" y="192" on="0"/>
        <pt x="1340" y="170" on="1"/>
        <pt x="1353" y="138" on="0"/>
        <pt x="1406" y="95" on="0"/>
        <pt x="1467" y="79" on="0"/>
        <pt x="1503" y="74" on="0"/>
        <pt x="1516" y="74" on="1"/>
        <pt x="1525" y="59" on="0"/>
        <pt x="1528" y="-2" on="0"/>
        <pt x="1521" y="-9" on="1"/>
        <pt x="1501" y="-8" on="0"/>
        <pt x="1279" y="9" on="0"/>
        <pt x="1221" y="9" on="1"/>
        <pt x="1175" y="9" on="0"/>
        <pt x="1049" y="2" on="0"/>
        <pt x="903" y="-8" on="0"/>
        <pt x="883" y="-9" on="1"/>
        <pt x="874" y="-1" on="0"/>
        <pt x="874" y="74" on="0"/>
        <pt x="883" y="74" on="1"/>
        <pt x="915" y="74" on="0"/>
        <pt x="993" y="96" on="0"/>
        <pt x="1015" y="114" on="1"/>
        <pt x="1035" y="131" on="0"/>
        <pt x="1035" y="152" on="1"/>
        <pt x="1035" y="161" on="0"/>
        <pt x="968" y="332" on="0"/>
        <pt x="934" y="412" on="1"/>
        <pt x="900" y="493" on="1"/>
        <pt x="892" y="502" on="0"/>
        <pt x="885" y="502" on="1"/>
        <pt x="842" y="504" on="0"/>
        <pt x="670" y="504" on="1"/>
        <pt x="515" y="504" on="0"/>
        <pt x="437" y="502" on="1"/>
        <pt x="427" y="502" on="0"/>
        <pt x="421" y="491" on="1"/>
        <pt x="365" y="365" on="0"/>
        <pt x="340" y="302" on="1"/>
        <pt x="323" y="259" on="0"/>
        <pt x="291" y="161" on="0"/>
        <pt x="291" y="150" on="1"/>
        <pt x="291" y="130" on="0"/>
        <pt x="339" y="98" on="0"/>
        <pt x="404" y="82" on="0"/>
        <pt x="454" y="74" on="0"/>
        <pt x="464" y="74" on="1"/>
        <pt x="473" y="61" on="0"/>
        <pt x="472" y="-1" on="0"/>
        <pt x="466" y="-9" on="1"/>
        <pt x="309" y="9" on="0"/>
        <pt x="224" y="9" on="1"/>
        <pt x="199" y="9" on="0"/>
        <pt x="149" y="7" on="0"/>
        <pt x="119" y="6" on="0"/>
        <pt x="64" y="1" on="0"/>
        <pt x="49" y="-1" on="0"/>
        <pt x="-16" y="-9" on="0"/>
        <pt x="-20" y="-9" on="1"/>
      </contour>
      <contour>
        <pt x="423" y="1861" on="1"/>
        <pt x="423" y="1884" on="0"/>
        <pt x="451" y="1918" on="0"/>
        <pt x="492" y="1937" on="0"/>
        <pt x="532" y="1947" on="0"/>
        <pt x="549" y="1947" on="1"/>
        <pt x="571" y="1947" on="0"/>
        <pt x="589" y="1938" on="1"/>
        <pt x="662" y="1882" on="0"/>
        <pt x="858" y="1688" on="0"/>
        <pt x="858" y="1676" on="1"/>
        <pt x="858" y="1664" on="0"/>
        <pt x="837" y="1631" on="0"/>
        <pt x="827" y="1631" on="1"/>
        <pt x="817" y="1631" on="0"/>
        <pt x="729" y="1662" on="0"/>
        <pt x="612" y="1715" on="0"/>
        <pt x="501" y="1774" on="0"/>
        <pt x="423" y="1838" on="0"/>
      </contour>
      <contour>
        <pt x="470" y="627" on="1"/>
        <pt x="470" y="618" on="0"/>
        <pt x="475" y="618" on="1"/>
        <pt x="542" y="612" on="0"/>
        <pt x="661" y="612" on="1"/>
        <pt x="771" y="612" on="0"/>
        <pt x="840" y="616" on="1"/>
        <pt x="842" y="616" on="0"/>
        <pt x="845" y="622" on="0"/>
        <pt x="846" y="624" on="1"/>
        <pt x="847" y="627" on="1"/>
        <pt x="661" y="1066" on="1"/>
      </contour>
    </TTGlyph>
    <TTGlyph name="Aring" xMin="-31" yMin="-9" xMax="1528" yMax="1920">
      <contour>
        <pt x="-27" y="-2" on="0"/>
        <pt x="-31" y="53" on="0"/>
        <pt x="-25" y="72" on="1"/>
        <pt x="0" y="72" on="0"/>
        <pt x="117" y="119" on="0"/>
        <pt x="132" y="143" on="1"/>
        <pt x="170" y="206" on="0"/>
        <pt x="211" y="300" on="1"/>
        <pt x="688" y="1398" on="1"/>
        <pt x="699" y="1423" on="0"/>
        <pt x="754" y="1483" on="0"/>
        <pt x="771" y="1483" on="1"/>
        <pt x="785" y="1483" on="0"/>
        <pt x="814" y="1473" on="0"/>
        <pt x="818" y="1467" on="1"/>
        <pt x="1277" y="332" on="1"/>
        <pt x="1292" y="295" on="0"/>
        <pt x="1330" y="192" on="0"/>
        <pt x="1340" y="170" on="1"/>
        <pt x="1353" y="138" on="0"/>
        <pt x="1406" y="95" on="0"/>
        <pt x="1467" y="79" on="0"/>
        <pt x="1503" y="74" on="0"/>
        <pt x="1516" y="74" on="1"/>
        <pt x="1525" y="59" on="0"/>
        <pt x="1528" y="-2" on="0"/>
        <pt x="1521" y="-9" on="1"/>
        <pt x="1501" y="-8" on="0"/>
        <pt x="1279" y="9" on="0"/>
        <pt x="1221" y="9" on="1"/>
        <pt x="1175" y="9" on="0"/>
        <pt x="1049" y="2" on="0"/>
        <pt x="903" y="-8" on="0"/>
        <pt x="883" y="-9" on="1"/>
        <pt x="874" y="-1" on="0"/>
        <pt x="874" y="74" on="0"/>
        <pt x="883" y="74" on="1"/>
        <pt x="915" y="74" on="0"/>
        <pt x="993" y="96" on="0"/>
        <pt x="1015" y="114" on="1"/>
        <pt x="1035" y="131" on="0"/>
        <pt x="1035" y="152" on="1"/>
        <pt x="1035" y="161" on="0"/>
        <pt x="968" y="332" on="0"/>
        <pt x="934" y="412" on="1"/>
        <pt x="900" y="493" on="1"/>
        <pt x="892" y="502" on="0"/>
        <pt x="885" y="502" on="1"/>
        <pt x="842" y="504" on="0"/>
        <pt x="670" y="504" on="1"/>
        <pt x="515" y="504" on="0"/>
        <pt x="437" y="502" on="1"/>
        <pt x="427" y="502" on="0"/>
        <pt x="421" y="491" on="1"/>
        <pt x="365" y="365" on="0"/>
        <pt x="340" y="302" on="1"/>
        <pt x="323" y="259" on="0"/>
        <pt x="291" y="161" on="0"/>
        <pt x="291" y="150" on="1"/>
        <pt x="291" y="130" on="0"/>
        <pt x="339" y="98" on="0"/>
        <pt x="404" y="82" on="0"/>
        <pt x="454" y="74" on="0"/>
        <pt x="464" y="74" on="1"/>
        <pt x="473" y="61" on="0"/>
        <pt x="472" y="-1" on="0"/>
        <pt x="466" y="-9" on="1"/>
        <pt x="309" y="9" on="0"/>
        <pt x="224" y="9" on="1"/>
        <pt x="199" y="9" on="0"/>
        <pt x="149" y="7" on="0"/>
        <pt x="119" y="6" on="0"/>
        <pt x="64" y="1" on="0"/>
        <pt x="49" y="-1" on="0"/>
        <pt x="-16" y="-9" on="0"/>
        <pt x="-20" y="-9" on="1"/>
      </contour>
      <contour>
        <pt x="470" y="627" on="1"/>
        <pt x="470" y="618" on="0"/>
        <pt x="475" y="618" on="1"/>
        <pt x="542" y="612" on="0"/>
        <pt x="661" y="612" on="1"/>
        <pt x="771" y="612" on="0"/>
        <pt x="840" y="616" on="1"/>
        <pt x="842" y="616" on="0"/>
        <pt x="845" y="622" on="0"/>
        <pt x="846" y="624" on="1"/>
        <pt x="847" y="627" on="1"/>
        <pt x="661" y="1066" on="1"/>
      </contour>
      <contour>
        <pt x="560" y="1700" on="1"/>
        <pt x="560" y="1791" on="0"/>
        <pt x="691" y="1920" on="0"/>
        <pt x="782" y="1920" on="1"/>
        <pt x="841" y="1920" on="0"/>
        <pt x="942" y="1861" on="0"/>
        <pt x="1001" y="1760" on="0"/>
        <pt x="1001" y="1700" on="1"/>
        <pt x="1001" y="1609" on="0"/>
        <pt x="872" y="1478" on="0"/>
        <pt x="782" y="1478" on="1"/>
        <pt x="691" y="1478" on="0"/>
        <pt x="560" y="1609" on="0"/>
      </contour>
      <contour>
        <pt x="663" y="1751" on="0"/>
        <pt x="663" y="1650" on="0"/>
        <pt x="732" y="1579" on="0"/>
        <pt x="782" y="1579" on="1"/>
        <pt x="815" y="1579" on="0"/>
        <pt x="869" y="1611" on="0"/>
        <pt x="900" y="1667" on="0"/>
        <pt x="900" y="1700" on="1"/>
        <pt x="900" y="1751" on="0"/>
        <pt x="832" y="1821" on="0"/>
        <pt x="732" y="1821" on="0"/>
      </contour>
    </TTGlyph>
    <TTGlyph name="Atilde" xMin="-31" yMin="-9" xMax="1528" yMax="1913">
      <contour>
        <pt x="-27" y="-2" on="0"/>
        <pt x="-31" y="53" on="0"/>
        <pt x="-25" y="72" on="1"/>
        <pt x="0" y="72" on="0"/>
        <pt x="117" y="119" on="0"/>
        <pt x="132" y="143" on="1"/>
        <pt x="170" y="206" on="0"/>
        <pt x="211" y="300" on="1"/>
        <pt x="688" y="1398" on="1"/>
        <pt x="699" y="1423" on="0"/>
        <pt x="754" y="1483" on="0"/>
        <pt x="771" y="1483" on="1"/>
        <pt x="785" y="1483" on="0"/>
        <pt x="814" y="1473" on="0"/>
        <pt x="818" y="1467" on="1"/>
        <pt x="1277" y="332" on="1"/>
        <pt x="1292" y="295" on="0"/>
        <pt x="1330" y="192" on="0"/>
        <pt x="1340" y="170" on="1"/>
        <pt x="1353" y="138" on="0"/>
        <pt x="1406" y="95" on="0"/>
        <pt x="1467" y="79" on="0"/>
        <pt x="1503" y="74" on="0"/>
        <pt x="1516" y="74" on="1"/>
        <pt x="1525" y="59" on="0"/>
        <pt x="1528" y="-2" on="0"/>
        <pt x="1521" y="-9" on="1"/>
        <pt x="1501" y="-8" on="0"/>
        <pt x="1279" y="9" on="0"/>
        <pt x="1221" y="9" on="1"/>
        <pt x="1175" y="9" on="0"/>
        <pt x="1049" y="2" on="0"/>
        <pt x="903" y="-8" on="0"/>
        <pt x="883" y="-9" on="1"/>
        <pt x="874" y="-1" on="0"/>
        <pt x="874" y="74" on="0"/>
        <pt x="883" y="74" on="1"/>
        <pt x="915" y="74" on="0"/>
        <pt x="993" y="96" on="0"/>
        <pt x="1015" y="114" on="1"/>
        <pt x="1035" y="131" on="0"/>
        <pt x="1035" y="152" on="1"/>
        <pt x="1035" y="161" on="0"/>
        <pt x="968" y="332" on="0"/>
        <pt x="934" y="412" on="1"/>
        <pt x="900" y="493" on="1"/>
        <pt x="892" y="502" on="0"/>
        <pt x="885" y="502" on="1"/>
        <pt x="842" y="504" on="0"/>
        <pt x="670" y="504" on="1"/>
        <pt x="515" y="504" on="0"/>
        <pt x="437" y="502" on="1"/>
        <pt x="427" y="502" on="0"/>
        <pt x="421" y="491" on="1"/>
        <pt x="365" y="365" on="0"/>
        <pt x="340" y="302" on="1"/>
        <pt x="323" y="259" on="0"/>
        <pt x="291" y="161" on="0"/>
        <pt x="291" y="150" on="1"/>
        <pt x="291" y="130" on="0"/>
        <pt x="339" y="98" on="0"/>
        <pt x="404" y="82" on="0"/>
        <pt x="454" y="74" on="0"/>
        <pt x="464" y="74" on="1"/>
        <pt x="473" y="61" on="0"/>
        <pt x="472" y="-1" on="0"/>
        <pt x="466" y="-9" on="1"/>
        <pt x="309" y="9" on="0"/>
        <pt x="224" y="9" on="1"/>
        <pt x="199" y="9" on="0"/>
        <pt x="149" y="7" on="0"/>
        <pt x="119" y="6" on="0"/>
        <pt x="64" y="1" on="0"/>
        <pt x="49" y="-1" on="0"/>
        <pt x="-16" y="-9" on="0"/>
        <pt x="-20" y="-9" on="1"/>
      </contour>
      <contour>
        <pt x="365" y="1698" on="1"/>
        <pt x="365" y="1749" on="0"/>
        <pt x="408" y="1805" on="1"/>
        <pt x="494" y="1913" on="0"/>
        <pt x="616" y="1913" on="1"/>
        <pt x="655" y="1913" on="0"/>
        <pt x="732" y="1892" on="0"/>
        <pt x="779" y="1870" on="0"/>
        <pt x="818" y="1848" on="1"/>
        <pt x="948" y="1776" on="0"/>
        <pt x="1004" y="1776" on="1"/>
        <pt x="1045" y="1776" on="0"/>
        <pt x="1118" y="1809" on="0"/>
        <pt x="1158" y="1849" on="0"/>
        <pt x="1193" y="1888" on="0"/>
        <pt x="1198" y="1891" on="1"/>
        <pt x="1206" y="1891" on="0"/>
        <pt x="1216" y="1869" on="0"/>
        <pt x="1216" y="1859" on="1"/>
        <pt x="1216" y="1808" on="0"/>
        <pt x="1174" y="1752" on="1"/>
        <pt x="1085" y="1642" on="0"/>
        <pt x="965" y="1642" on="1"/>
        <pt x="936" y="1642" on="0"/>
        <pt x="882" y="1652" on="0"/>
        <pt x="828" y="1673" on="0"/>
        <pt x="793" y="1691" on="0"/>
        <pt x="764" y="1707" on="1"/>
        <pt x="757" y="1711" on="0"/>
        <pt x="723" y="1730" on="0"/>
        <pt x="708" y="1738" on="0"/>
        <pt x="678" y="1754" on="0"/>
        <pt x="660" y="1761" on="0"/>
        <pt x="633" y="1772" on="0"/>
        <pt x="613" y="1777" on="0"/>
        <pt x="589" y="1781" on="0"/>
        <pt x="578" y="1781" on="1"/>
        <pt x="536" y="1781" on="0"/>
        <pt x="463" y="1747" on="0"/>
        <pt x="424" y="1707" on="0"/>
        <pt x="389" y="1667" on="0"/>
        <pt x="383" y="1664" on="1"/>
        <pt x="378" y="1664" on="0"/>
        <pt x="369" y="1677" on="0"/>
        <pt x="365" y="1692" on="0"/>
      </contour>
      <contour>
        <pt x="470" y="627" on="1"/>
        <pt x="470" y="618" on="0"/>
        <pt x="475" y="618" on="1"/>
        <pt x="542" y="612" on="0"/>
        <pt x="661" y="612" on="1"/>
        <pt x="771" y="612" on="0"/>
        <pt x="840" y="616" on="1"/>
        <pt x="842" y="616" on="0"/>
        <pt x="845" y="622" on="0"/>
        <pt x="846" y="624" on="1"/>
        <pt x="847" y="627" on="1"/>
        <pt x="661" y="1066" on="1"/>
      </contour>
    </TTGlyph>
    <TTGlyph name="B" xMin="77" yMin="-8" xMax="1308" yMax="1478">
      <contour>
        <pt x="77" y="37" on="1"/>
        <pt x="77" y="64" on="0"/>
        <pt x="85" y="76" on="1"/>
        <pt x="218" y="86" on="0"/>
        <pt x="228" y="114" on="1"/>
        <pt x="241" y="145" on="0"/>
        <pt x="246" y="235" on="0"/>
        <pt x="246" y="325" on="1"/>
        <pt x="246" y="1149" on="1"/>
        <pt x="246" y="1210" on="0"/>
        <pt x="245" y="1269" on="0"/>
        <pt x="237" y="1338" on="0"/>
        <pt x="228" y="1360" on="1"/>
        <pt x="227" y="1364" on="0"/>
        <pt x="217" y="1373" on="0"/>
        <pt x="201" y="1379" on="0"/>
        <pt x="185" y="1384" on="0"/>
        <pt x="162" y="1388" on="0"/>
        <pt x="145" y="1391" on="0"/>
        <pt x="120" y="1393" on="0"/>
        <pt x="107" y="1394" on="0"/>
        <pt x="87" y="1395" on="0"/>
        <pt x="85" y="1396" on="1"/>
        <pt x="77" y="1407" on="0"/>
        <pt x="77" y="1435" on="1"/>
        <pt x="78" y="1437" on="0"/>
        <pt x="78" y="1438" on="1"/>
        <pt x="78" y="1468" on="0"/>
        <pt x="85" y="1478" on="1"/>
        <pt x="186" y="1472" on="0"/>
        <pt x="405" y="1472" on="1"/>
        <pt x="448" y="1472" on="0"/>
        <pt x="679" y="1478" on="0"/>
        <pt x="748" y="1478" on="1"/>
        <pt x="813" y="1478" on="0"/>
        <pt x="938" y="1455" on="0"/>
        <pt x="1057" y="1401" on="0"/>
        <pt x="1146" y="1322" on="0"/>
        <pt x="1201" y="1200" on="0"/>
        <pt x="1201" y="1124" on="1"/>
        <pt x="1201" y="1074" on="0"/>
        <pt x="1161" y="979" on="0"/>
        <pt x="1105" y="913" on="0"/>
        <pt x="1034" y="858" on="0"/>
        <pt x="980" y="828" on="0"/>
        <pt x="959" y="820" on="1"/>
        <pt x="945" y="815" on="0"/>
        <pt x="945" y="809" on="1"/>
        <pt x="948" y="806" on="1"/>
        <pt x="983" y="802" on="0"/>
        <pt x="1073" y="768" on="0"/>
        <pt x="1173" y="702" on="0"/>
        <pt x="1255" y="617" on="0"/>
        <pt x="1308" y="497" on="0"/>
        <pt x="1308" y="430" on="1"/>
        <pt x="1308" y="322" on="0"/>
        <pt x="1180" y="131" on="0"/>
        <pt x="1073" y="67" on="1"/>
        <pt x="1026" y="39" on="0"/>
        <pt x="910" y="5" on="0"/>
        <pt x="796" y="-5" on="0"/>
        <pt x="732" y="-7" on="1"/>
        <pt x="700" y="-8" on="0"/>
        <pt x="637" y="-8" on="0"/>
        <pt x="607" y="-7" on="1"/>
        <pt x="85" y="-7" on="1"/>
        <pt x="77" y="4" on="0"/>
      </contour>
      <contour>
        <pt x="560" y="244" on="1"/>
        <pt x="560" y="141" on="0"/>
        <pt x="578" y="114" on="1"/>
        <pt x="597" y="87" on="0"/>
        <pt x="719" y="87" on="1"/>
        <pt x="752" y="87" on="0"/>
        <pt x="815" y="106" on="0"/>
        <pt x="879" y="152" on="0"/>
        <pt x="927" y="220" on="0"/>
        <pt x="956" y="328" on="0"/>
        <pt x="956" y="394" on="1"/>
        <pt x="956" y="447" on="0"/>
        <pt x="940" y="543" on="0"/>
        <pt x="898" y="636" on="0"/>
        <pt x="836" y="703" on="0"/>
        <pt x="738" y="744" on="0"/>
        <pt x="676" y="744" on="1"/>
        <pt x="560" y="744" on="1"/>
      </contour>
      <contour>
        <pt x="560" y="831" on="1"/>
        <pt x="676" y="831" on="1"/>
        <pt x="763" y="831" on="0"/>
        <pt x="869" y="968" on="0"/>
        <pt x="869" y="1091" on="1"/>
        <pt x="869" y="1389" on="0"/>
        <pt x="683" y="1389" on="1"/>
        <pt x="660" y="1389" on="0"/>
        <pt x="629" y="1387" on="0"/>
        <pt x="596" y="1382" on="0"/>
        <pt x="575" y="1371" on="0"/>
        <pt x="571" y="1362" on="1"/>
        <pt x="560" y="1335" on="0"/>
        <pt x="560" y="1225" on="1"/>
      </contour>
    </TTGlyph>
    <TTGlyph name="C" xMin="90" yMin="-16" xMax="1443" yMax="1494">
      <contour>
        <pt x="90" y="721" on="1"/>
        <pt x="90" y="880" on="0"/>
        <pt x="213" y="1167" on="0"/>
        <pt x="421" y="1373" on="0"/>
        <pt x="708" y="1494" on="0"/>
        <pt x="865" y="1494" on="1"/>
        <pt x="978" y="1494" on="0"/>
        <pt x="1233" y="1471" on="0"/>
        <pt x="1331" y="1452" on="1"/>
        <pt x="1331" y="1451" on="0"/>
        <pt x="1407" y="1129" on="0"/>
        <pt x="1407" y="1113" on="1"/>
        <pt x="1407" y="1107" on="0"/>
        <pt x="1389" y="1091" on="0"/>
        <pt x="1361" y="1080" on="0"/>
        <pt x="1348" y="1080" on="1"/>
        <pt x="1326" y="1080" on="0"/>
        <pt x="1317" y="1089" on="1"/>
        <pt x="1312" y="1107" on="0"/>
        <pt x="1297" y="1147" on="0"/>
        <pt x="1272" y="1200" on="0"/>
        <pt x="1235" y="1250" on="0"/>
        <pt x="1187" y="1302" on="0"/>
        <pt x="1121" y="1344" on="0"/>
        <pt x="1044" y="1379" on="0"/>
        <pt x="942" y="1398" on="0"/>
        <pt x="885" y="1398" on="1"/>
        <pt x="793" y="1398" on="0"/>
        <pt x="644" y="1331" on="0"/>
        <pt x="545" y="1217" on="0"/>
        <pt x="478" y="1060" on="0"/>
        <pt x="448" y="885" on="0"/>
        <pt x="448" y="788" on="1"/>
        <pt x="448" y="699" on="0"/>
        <pt x="473" y="530" on="0"/>
        <pt x="522" y="371" on="0"/>
        <pt x="602" y="238" on="0"/>
        <pt x="706" y="139" on="0"/>
        <pt x="847" y="83" on="0"/>
        <pt x="930" y="83" on="1"/>
        <pt x="1103" y="83" on="0"/>
        <pt x="1207" y="179" on="1"/>
        <pt x="1250" y="217" on="0"/>
        <pt x="1327" y="353" on="0"/>
        <pt x="1359" y="438" on="0"/>
        <pt x="1364" y="457" on="1"/>
        <pt x="1412" y="457" on="0"/>
        <pt x="1443" y="430" on="1"/>
        <pt x="1443" y="398" on="0"/>
        <pt x="1373" y="98" on="0"/>
        <pt x="1351" y="90" on="1"/>
        <pt x="1277" y="63" on="0"/>
        <pt x="1202" y="38" on="0"/>
        <pt x="1066" y="0" on="0"/>
        <pt x="934" y="-16" on="0"/>
        <pt x="860" y="-16" on="1"/>
        <pt x="704" y="-16" on="0"/>
        <pt x="421" y="97" on="0"/>
        <pt x="213" y="290" on="0"/>
        <pt x="90" y="566" on="0"/>
      </contour>
    </TTGlyph>
    <TTGlyph name="Ccedilla" xMin="92" yMin="-372" xMax="1445" yMax="1494">
      <contour>
        <pt x="92" y="721" on="1"/>
        <pt x="92" y="880" on="0"/>
        <pt x="215" y="1167" on="0"/>
        <pt x="424" y="1373" on="0"/>
        <pt x="710" y="1494" on="0"/>
        <pt x="867" y="1494" on="1"/>
        <pt x="980" y="1494" on="0"/>
        <pt x="1236" y="1471" on="0"/>
        <pt x="1333" y="1452" on="1"/>
        <pt x="1333" y="1451" on="0"/>
        <pt x="1409" y="1129" on="0"/>
        <pt x="1409" y="1113" on="1"/>
        <pt x="1409" y="1103" on="0"/>
        <pt x="1370" y="1080" on="0"/>
        <pt x="1351" y="1080" on="1"/>
        <pt x="1328" y="1080" on="0"/>
        <pt x="1319" y="1089" on="1"/>
        <pt x="1315" y="1107" on="0"/>
        <pt x="1300" y="1147" on="0"/>
        <pt x="1274" y="1200" on="0"/>
        <pt x="1237" y="1250" on="0"/>
        <pt x="1189" y="1302" on="0"/>
        <pt x="1124" y="1344" on="0"/>
        <pt x="1046" y="1379" on="0"/>
        <pt x="944" y="1398" on="0"/>
        <pt x="887" y="1398" on="1"/>
        <pt x="810" y="1398" on="0"/>
        <pt x="680" y="1351" on="0"/>
        <pt x="586" y="1267" on="0"/>
        <pt x="515" y="1155" on="0"/>
        <pt x="471" y="1017" on="0"/>
        <pt x="450" y="869" on="0"/>
        <pt x="450" y="788" on="1"/>
        <pt x="450" y="712" on="0"/>
        <pt x="468" y="566" on="0"/>
        <pt x="506" y="425" on="0"/>
        <pt x="561" y="303" on="0"/>
        <pt x="640" y="199" on="0"/>
        <pt x="737" y="124" on="0"/>
        <pt x="861" y="83" on="0"/>
        <pt x="932" y="83" on="1"/>
        <pt x="1106" y="83" on="0"/>
        <pt x="1210" y="179" on="1"/>
        <pt x="1252" y="217" on="0"/>
        <pt x="1329" y="353" on="0"/>
        <pt x="1362" y="438" on="0"/>
        <pt x="1366" y="457" on="1"/>
        <pt x="1414" y="457" on="0"/>
        <pt x="1445" y="430" on="1"/>
        <pt x="1445" y="398" on="0"/>
        <pt x="1375" y="98" on="0"/>
        <pt x="1353" y="90" on="1"/>
        <pt x="1279" y="63" on="0"/>
        <pt x="1204" y="38" on="0"/>
        <pt x="1068" y="0" on="0"/>
        <pt x="936" y="-16" on="0"/>
        <pt x="862" y="-16" on="1"/>
        <pt x="706" y="-16" on="0"/>
        <pt x="423" y="97" on="0"/>
        <pt x="215" y="290" on="0"/>
        <pt x="92" y="566" on="0"/>
      </contour>
      <contour>
        <pt x="706" y="-287" on="1"/>
        <pt x="706" y="-269" on="0"/>
        <pt x="712" y="-269" on="1"/>
        <pt x="712" y="-269" on="0"/>
        <pt x="725" y="-275" on="0"/>
        <pt x="735" y="-281" on="0"/>
        <pt x="754" y="-289" on="0"/>
        <pt x="772" y="-295" on="0"/>
        <pt x="793" y="-301" on="0"/>
        <pt x="816" y="-305" on="0"/>
        <pt x="827" y="-305" on="1"/>
        <pt x="865" y="-305" on="0"/>
        <pt x="915" y="-282" on="0"/>
        <pt x="934" y="-251" on="0"/>
        <pt x="934" y="-233" on="1"/>
        <pt x="934" y="-213" on="0"/>
        <pt x="925" y="-181" on="0"/>
        <pt x="895" y="-155" on="0"/>
        <pt x="871" y="-155" on="1"/>
        <pt x="852" y="-155" on="0"/>
        <pt x="809" y="-170" on="1"/>
        <pt x="803" y="-170" on="0"/>
        <pt x="777" y="-144" on="0"/>
        <pt x="777" y="-134" on="1"/>
        <pt x="821" y="-64" on="0"/>
        <pt x="844" y="-2" on="1"/>
        <pt x="921" y="-2" on="1"/>
        <pt x="900" y="-36" on="0"/>
        <pt x="889" y="-58" on="1"/>
        <pt x="930" y="-54" on="0"/>
        <pt x="943" y="-54" on="1"/>
        <pt x="967" y="-54" on="0"/>
        <pt x="1012" y="-73" on="0"/>
        <pt x="1044" y="-104" on="0"/>
        <pt x="1064" y="-147" on="0"/>
        <pt x="1064" y="-170" on="1"/>
        <pt x="1064" y="-257" on="0"/>
        <pt x="937" y="-372" on="0"/>
        <pt x="831" y="-372" on="1"/>
        <pt x="793" y="-372" on="0"/>
        <pt x="730" y="-349" on="0"/>
        <pt x="715" y="-334" on="1"/>
        <pt x="712" y="-329" on="0"/>
        <pt x="706" y="-295" on="0"/>
      </contour>
    </TTGlyph>
    <TTGlyph name="D" xMin="77" yMin="-7" xMax="1608" yMax="1478">
      <contour>
        <pt x="77" y="37" on="1"/>
        <pt x="77" y="64" on="0"/>
        <pt x="85" y="76" on="1"/>
        <pt x="218" y="86" on="0"/>
        <pt x="228" y="114" on="1"/>
        <pt x="241" y="145" on="0"/>
        <pt x="246" y="235" on="0"/>
        <pt x="246" y="325" on="1"/>
        <pt x="246" y="1149" on="1"/>
        <pt x="246" y="1210" on="0"/>
        <pt x="245" y="1269" on="0"/>
        <pt x="237" y="1338" on="0"/>
        <pt x="228" y="1360" on="1"/>
        <pt x="227" y="1364" on="0"/>
        <pt x="217" y="1373" on="0"/>
        <pt x="201" y="1379" on="0"/>
        <pt x="185" y="1384" on="0"/>
        <pt x="162" y="1388" on="0"/>
        <pt x="145" y="1391" on="0"/>
        <pt x="120" y="1393" on="0"/>
        <pt x="107" y="1394" on="0"/>
        <pt x="87" y="1395" on="0"/>
        <pt x="85" y="1396" on="1"/>
        <pt x="77" y="1407" on="0"/>
        <pt x="77" y="1435" on="1"/>
        <pt x="78" y="1437" on="0"/>
        <pt x="78" y="1438" on="1"/>
        <pt x="78" y="1468" on="0"/>
        <pt x="85" y="1478" on="1"/>
        <pt x="186" y="1472" on="0"/>
        <pt x="405" y="1472" on="1"/>
        <pt x="459" y="1472" on="0"/>
        <pt x="704" y="1478" on="0"/>
        <pt x="748" y="1478" on="1"/>
        <pt x="942" y="1478" on="0"/>
        <pt x="1260" y="1380" on="0"/>
        <pt x="1485" y="1196" on="0"/>
        <pt x="1608" y="922" on="0"/>
        <pt x="1608" y="753" on="1"/>
        <pt x="1608" y="599" on="0"/>
        <pt x="1519" y="347" on="0"/>
        <pt x="1360" y="170" on="0"/>
        <pt x="1139" y="50" on="0"/>
        <pt x="880" y="-7" on="0"/>
        <pt x="732" y="-7" on="1"/>
        <pt x="85" y="-7" on="1"/>
        <pt x="77" y="4" on="0"/>
      </contour>
      <contour>
        <pt x="560" y="316" on="1"/>
        <pt x="560" y="184" on="0"/>
        <pt x="578" y="139" on="1"/>
        <pt x="588" y="116" on="0"/>
        <pt x="673" y="87" on="0"/>
        <pt x="719" y="87" on="1"/>
        <pt x="993" y="87" on="0"/>
        <pt x="1252" y="400" on="0"/>
        <pt x="1252" y="728" on="1"/>
        <pt x="1252" y="889" on="0"/>
        <pt x="1168" y="1143" on="0"/>
        <pt x="1016" y="1305" on="0"/>
        <pt x="809" y="1389" on="0"/>
        <pt x="683" y="1389" on="1"/>
        <pt x="660" y="1389" on="0"/>
        <pt x="629" y="1387" on="0"/>
        <pt x="596" y="1382" on="0"/>
        <pt x="575" y="1371" on="0"/>
        <pt x="571" y="1362" on="1"/>
        <pt x="560" y="1335" on="0"/>
        <pt x="560" y="1225" on="1"/>
      </contour>
    </TTGlyph>
    <TTGlyph name="E" xMin="77" yMin="-7" xMax="1299" yMax="1487">
      <contour>
        <pt x="77" y="37" on="1"/>
        <pt x="77" y="64" on="0"/>
        <pt x="85" y="76" on="1"/>
        <pt x="218" y="86" on="0"/>
        <pt x="228" y="114" on="1"/>
        <pt x="241" y="145" on="0"/>
        <pt x="246" y="235" on="0"/>
        <pt x="246" y="325" on="1"/>
        <pt x="246" y="1149" on="1"/>
        <pt x="246" y="1210" on="0"/>
        <pt x="245" y="1269" on="0"/>
        <pt x="237" y="1338" on="0"/>
        <pt x="228" y="1360" on="1"/>
        <pt x="227" y="1364" on="0"/>
        <pt x="217" y="1373" on="0"/>
        <pt x="201" y="1379" on="0"/>
        <pt x="185" y="1384" on="0"/>
        <pt x="162" y="1388" on="0"/>
        <pt x="145" y="1391" on="0"/>
        <pt x="120" y="1393" on="0"/>
        <pt x="107" y="1394" on="0"/>
        <pt x="87" y="1395" on="0"/>
        <pt x="85" y="1396" on="1"/>
        <pt x="77" y="1407" on="0"/>
        <pt x="77" y="1435" on="1"/>
        <pt x="78" y="1437" on="0"/>
        <pt x="78" y="1438" on="1"/>
        <pt x="78" y="1468" on="0"/>
        <pt x="85" y="1478" on="1"/>
        <pt x="186" y="1472" on="0"/>
        <pt x="405" y="1472" on="1"/>
        <pt x="460" y="1472" on="0"/>
        <pt x="1092" y="1486" on="0"/>
        <pt x="1133" y="1487" on="1"/>
        <pt x="1140" y="1437" on="0"/>
        <pt x="1162" y="1325" on="0"/>
        <pt x="1193" y="1185" on="0"/>
        <pt x="1198" y="1156" on="1"/>
        <pt x="1195" y="1153" on="0"/>
        <pt x="1176" y="1147" on="0"/>
        <pt x="1155" y="1145" on="0"/>
        <pt x="1147" y="1145" on="1"/>
        <pt x="1118" y="1145" on="0"/>
        <pt x="1111" y="1163" on="1"/>
        <pt x="1091" y="1215" on="0"/>
        <pt x="1053" y="1287" on="0"/>
        <pt x="996" y="1355" on="0"/>
        <pt x="918" y="1389" on="0"/>
        <pt x="869" y="1389" on="1"/>
        <pt x="683" y="1389" on="1"/>
        <pt x="660" y="1389" on="0"/>
        <pt x="629" y="1387" on="0"/>
        <pt x="596" y="1382" on="0"/>
        <pt x="575" y="1371" on="0"/>
        <pt x="571" y="1362" on="1"/>
        <pt x="560" y="1335" on="0"/>
        <pt x="560" y="1225" on="1"/>
        <pt x="560" y="824" on="1"/>
        <pt x="560" y="814" on="0"/>
        <pt x="619" y="800" on="0"/>
        <pt x="656" y="800" on="1"/>
        <pt x="775" y="800" on="1"/>
        <pt x="827" y="800" on="0"/>
        <pt x="887" y="811" on="0"/>
        <pt x="932" y="849" on="0"/>
        <pt x="958" y="905" on="0"/>
        <pt x="972" y="956" on="1"/>
        <pt x="976" y="974" on="0"/>
        <pt x="999" y="974" on="1"/>
        <pt x="1030" y="974" on="0"/>
        <pt x="1042" y="963" on="1"/>
        <pt x="1042" y="533" on="1"/>
        <pt x="1033" y="524" on="0"/>
        <pt x="1001" y="524" on="1"/>
        <pt x="974" y="524" on="0"/>
        <pt x="970" y="542" on="1"/>
        <pt x="958" y="592" on="0"/>
        <pt x="926" y="654" on="0"/>
        <pt x="905" y="673" on="0"/>
        <pt x="892" y="679" on="1"/>
        <pt x="854" y="694" on="0"/>
        <pt x="721" y="694" on="1"/>
        <pt x="560" y="694" on="0"/>
        <pt x="560" y="663" on="1"/>
        <pt x="560" y="316" on="1"/>
        <pt x="560" y="184" on="0"/>
        <pt x="578" y="139" on="1"/>
        <pt x="584" y="124" on="0"/>
        <pt x="633" y="103" on="0"/>
        <pt x="692" y="94" on="0"/>
        <pt x="724" y="94" on="1"/>
        <pt x="871" y="94" on="1"/>
        <pt x="1006" y="94" on="0"/>
        <pt x="1080" y="168" on="1"/>
        <pt x="1145" y="233" on="0"/>
        <pt x="1201" y="381" on="1"/>
        <pt x="1204" y="394" on="0"/>
        <pt x="1232" y="394" on="1"/>
        <pt x="1240" y="394" on="0"/>
        <pt x="1262" y="392" on="0"/>
        <pt x="1281" y="388" on="0"/>
        <pt x="1297" y="383" on="0"/>
        <pt x="1299" y="381" on="1"/>
        <pt x="1294" y="367" on="0"/>
        <pt x="1251" y="246" on="0"/>
        <pt x="1232" y="190" on="0"/>
        <pt x="1201" y="94" on="0"/>
        <pt x="1183" y="24" on="0"/>
        <pt x="1178" y="-4" on="1"/>
        <pt x="172" y="-4" on="0"/>
        <pt x="85" y="-7" on="1"/>
        <pt x="77" y="4" on="0"/>
      </contour>
    </TTGlyph>
    <TTGlyph name="Eacute" xMin="77" yMin="-7" xMax="1299" yMax="1947">
      <contour>
        <pt x="78" y="4" on="0"/>
        <pt x="77" y="64" on="0"/>
        <pt x="85" y="76" on="1"/>
        <pt x="218" y="86" on="0"/>
        <pt x="228" y="114" on="1"/>
        <pt x="241" y="145" on="0"/>
        <pt x="246" y="235" on="0"/>
        <pt x="246" y="325" on="1"/>
        <pt x="246" y="1149" on="1"/>
        <pt x="246" y="1210" on="0"/>
        <pt x="245" y="1269" on="0"/>
        <pt x="237" y="1338" on="0"/>
        <pt x="228" y="1360" on="1"/>
        <pt x="227" y="1364" on="0"/>
        <pt x="217" y="1373" on="0"/>
        <pt x="201" y="1379" on="0"/>
        <pt x="185" y="1384" on="0"/>
        <pt x="162" y="1388" on="0"/>
        <pt x="145" y="1391" on="0"/>
        <pt x="120" y="1393" on="0"/>
        <pt x="107" y="1394" on="0"/>
        <pt x="87" y="1395" on="0"/>
        <pt x="85" y="1396" on="1"/>
        <pt x="77" y="1408" on="0"/>
        <pt x="78" y="1468" on="0"/>
        <pt x="85" y="1478" on="1"/>
        <pt x="186" y="1472" on="0"/>
        <pt x="405" y="1472" on="1"/>
        <pt x="460" y="1472" on="0"/>
        <pt x="1092" y="1487" on="0"/>
        <pt x="1133" y="1487" on="1"/>
        <pt x="1140" y="1437" on="0"/>
        <pt x="1162" y="1325" on="0"/>
        <pt x="1193" y="1185" on="0"/>
        <pt x="1198" y="1156" on="1"/>
        <pt x="1195" y="1153" on="0"/>
        <pt x="1176" y="1147" on="0"/>
        <pt x="1155" y="1145" on="0"/>
        <pt x="1147" y="1145" on="1"/>
        <pt x="1118" y="1145" on="0"/>
        <pt x="1111" y="1163" on="1"/>
        <pt x="1091" y="1215" on="0"/>
        <pt x="1053" y="1287" on="0"/>
        <pt x="996" y="1355" on="0"/>
        <pt x="918" y="1389" on="0"/>
        <pt x="869" y="1389" on="1"/>
        <pt x="683" y="1389" on="1"/>
        <pt x="660" y="1389" on="0"/>
        <pt x="629" y="1387" on="0"/>
        <pt x="596" y="1382" on="0"/>
        <pt x="575" y="1371" on="0"/>
        <pt x="571" y="1362" on="1"/>
        <pt x="560" y="1335" on="0"/>
        <pt x="560" y="1225" on="1"/>
        <pt x="560" y="824" on="1"/>
        <pt x="560" y="814" on="0"/>
        <pt x="619" y="800" on="0"/>
        <pt x="656" y="800" on="1"/>
        <pt x="775" y="800" on="1"/>
        <pt x="827" y="800" on="0"/>
        <pt x="887" y="811" on="0"/>
        <pt x="932" y="849" on="0"/>
        <pt x="958" y="905" on="0"/>
        <pt x="972" y="956" on="1"/>
        <pt x="976" y="974" on="0"/>
        <pt x="999" y="974" on="1"/>
        <pt x="1030" y="974" on="0"/>
        <pt x="1042" y="963" on="1"/>
        <pt x="1042" y="533" on="1"/>
        <pt x="1033" y="524" on="0"/>
        <pt x="1001" y="524" on="1"/>
        <pt x="974" y="524" on="0"/>
        <pt x="970" y="542" on="1"/>
        <pt x="958" y="592" on="0"/>
        <pt x="926" y="654" on="0"/>
        <pt x="905" y="673" on="0"/>
        <pt x="892" y="679" on="1"/>
        <pt x="854" y="694" on="0"/>
        <pt x="721" y="694" on="1"/>
        <pt x="560" y="694" on="0"/>
        <pt x="560" y="663" on="1"/>
        <pt x="560" y="316" on="1"/>
        <pt x="560" y="184" on="0"/>
        <pt x="578" y="139" on="1"/>
        <pt x="584" y="124" on="0"/>
        <pt x="633" y="103" on="0"/>
        <pt x="692" y="94" on="0"/>
        <pt x="724" y="94" on="1"/>
        <pt x="871" y="94" on="1"/>
        <pt x="1006" y="94" on="0"/>
        <pt x="1080" y="168" on="1"/>
        <pt x="1145" y="233" on="0"/>
        <pt x="1201" y="381" on="1"/>
        <pt x="1204" y="394" on="0"/>
        <pt x="1232" y="394" on="1"/>
        <pt x="1240" y="394" on="0"/>
        <pt x="1262" y="392" on="0"/>
        <pt x="1281" y="388" on="0"/>
        <pt x="1297" y="383" on="0"/>
        <pt x="1299" y="381" on="1"/>
        <pt x="1294" y="367" on="0"/>
        <pt x="1251" y="246" on="0"/>
        <pt x="1232" y="190" on="0"/>
        <pt x="1201" y="94" on="0"/>
        <pt x="1183" y="24" on="0"/>
        <pt x="1178" y="-4" on="1"/>
        <pt x="172" y="-4" on="0"/>
        <pt x="85" y="-7" on="1"/>
      </contour>
      <contour>
        <pt x="513" y="1676" on="1"/>
        <pt x="513" y="1688" on="0"/>
        <pt x="709" y="1882" on="0"/>
        <pt x="782" y="1938" on="1"/>
        <pt x="800" y="1947" on="0"/>
        <pt x="822" y="1947" on="1"/>
        <pt x="839" y="1947" on="0"/>
        <pt x="879" y="1937" on="0"/>
        <pt x="920" y="1918" on="0"/>
        <pt x="948" y="1884" on="0"/>
        <pt x="948" y="1861" on="1"/>
        <pt x="948" y="1833" on="0"/>
        <pt x="831" y="1749" on="0"/>
        <pt x="684" y="1680" on="0"/>
        <pt x="557" y="1631" on="0"/>
        <pt x="544" y="1631" on="1"/>
        <pt x="533" y="1631" on="0"/>
        <pt x="513" y="1664" on="0"/>
      </contour>
    </TTGlyph>
    <TTGlyph name="Ecircumflex" xMin="77" yMin="-7" xMax="1299" yMax="1949">
      <contour>
        <pt x="78" y="4" on="0"/>
        <pt x="77" y="64" on="0"/>
        <pt x="85" y="76" on="1"/>
        <pt x="218" y="86" on="0"/>
        <pt x="228" y="114" on="1"/>
        <pt x="241" y="145" on="0"/>
        <pt x="246" y="235" on="0"/>
        <pt x="246" y="325" on="1"/>
        <pt x="246" y="1149" on="1"/>
        <pt x="246" y="1210" on="0"/>
        <pt x="245" y="1269" on="0"/>
        <pt x="237" y="1338" on="0"/>
        <pt x="228" y="1360" on="1"/>
        <pt x="227" y="1364" on="0"/>
        <pt x="217" y="1373" on="0"/>
        <pt x="201" y="1379" on="0"/>
        <pt x="185" y="1384" on="0"/>
        <pt x="162" y="1388" on="0"/>
        <pt x="145" y="1391" on="0"/>
        <pt x="120" y="1393" on="0"/>
        <pt x="107" y="1394" on="0"/>
        <pt x="87" y="1395" on="0"/>
        <pt x="85" y="1396" on="1"/>
        <pt x="77" y="1408" on="0"/>
        <pt x="78" y="1468" on="0"/>
        <pt x="85" y="1478" on="1"/>
        <pt x="186" y="1472" on="0"/>
        <pt x="405" y="1472" on="1"/>
        <pt x="460" y="1472" on="0"/>
        <pt x="1092" y="1487" on="0"/>
        <pt x="1133" y="1487" on="1"/>
        <pt x="1140" y="1437" on="0"/>
        <pt x="1162" y="1325" on="0"/>
        <pt x="1193" y="1185" on="0"/>
        <pt x="1198" y="1156" on="1"/>
        <pt x="1195" y="1153" on="0"/>
        <pt x="1176" y="1147" on="0"/>
        <pt x="1155" y="1145" on="0"/>
        <pt x="1147" y="1145" on="1"/>
        <pt x="1118" y="1145" on="0"/>
        <pt x="1111" y="1163" on="1"/>
        <pt x="1091" y="1215" on="0"/>
        <pt x="1053" y="1287" on="0"/>
        <pt x="996" y="1355" on="0"/>
        <pt x="918" y="1389" on="0"/>
        <pt x="869" y="1389" on="1"/>
        <pt x="683" y="1389" on="1"/>
        <pt x="660" y="1389" on="0"/>
        <pt x="629" y="1387" on="0"/>
        <pt x="596" y="1382" on="0"/>
        <pt x="575" y="1371" on="0"/>
        <pt x="571" y="1362" on="1"/>
        <pt x="560" y="1335" on="0"/>
        <pt x="560" y="1225" on="1"/>
        <pt x="560" y="824" on="1"/>
        <pt x="560" y="814" on="0"/>
        <pt x="619" y="800" on="0"/>
        <pt x="656" y="800" on="1"/>
        <pt x="775" y="800" on="1"/>
        <pt x="827" y="800" on="0"/>
        <pt x="887" y="811" on="0"/>
        <pt x="932" y="849" on="0"/>
        <pt x="958" y="905" on="0"/>
        <pt x="972" y="956" on="1"/>
        <pt x="976" y="974" on="0"/>
        <pt x="999" y="974" on="1"/>
        <pt x="1030" y="974" on="0"/>
        <pt x="1042" y="963" on="1"/>
        <pt x="1042" y="533" on="1"/>
        <pt x="1033" y="524" on="0"/>
        <pt x="1001" y="524" on="1"/>
        <pt x="974" y="524" on="0"/>
        <pt x="970" y="542" on="1"/>
        <pt x="958" y="592" on="0"/>
        <pt x="926" y="654" on="0"/>
        <pt x="905" y="673" on="0"/>
        <pt x="892" y="679" on="1"/>
        <pt x="854" y="694" on="0"/>
        <pt x="721" y="694" on="1"/>
        <pt x="560" y="694" on="0"/>
        <pt x="560" y="663" on="1"/>
        <pt x="560" y="316" on="1"/>
        <pt x="560" y="184" on="0"/>
        <pt x="578" y="139" on="1"/>
        <pt x="584" y="124" on="0"/>
        <pt x="633" y="103" on="0"/>
        <pt x="692" y="94" on="0"/>
        <pt x="724" y="94" on="1"/>
        <pt x="871" y="94" on="1"/>
        <pt x="1006" y="94" on="0"/>
        <pt x="1080" y="168" on="1"/>
        <pt x="1145" y="233" on="0"/>
        <pt x="1201" y="381" on="1"/>
        <pt x="1204" y="394" on="0"/>
        <pt x="1232" y="394" on="1"/>
        <pt x="1240" y="394" on="0"/>
        <pt x="1262" y="392" on="0"/>
        <pt x="1281" y="388" on="0"/>
        <pt x="1297" y="383" on="0"/>
        <pt x="1299" y="381" on="1"/>
        <pt x="1294" y="367" on="0"/>
        <pt x="1251" y="246" on="0"/>
        <pt x="1232" y="190" on="0"/>
        <pt x="1201" y="94" on="0"/>
        <pt x="1183" y="24" on="0"/>
        <pt x="1178" y="-4" on="1"/>
        <pt x="172" y="-4" on="0"/>
        <pt x="85" y="-7" on="1"/>
      </contour>
      <contour>
        <pt x="376" y="1673" on="1"/>
        <pt x="401" y="1692" on="0"/>
        <pt x="538" y="1819" on="1"/>
        <pt x="557" y="1837" on="0"/>
        <pt x="592" y="1873" on="0"/>
        <pt x="612" y="1895" on="0"/>
        <pt x="635" y="1922" on="0"/>
        <pt x="638" y="1926" on="1"/>
        <pt x="657" y="1949" on="0"/>
        <pt x="668" y="1949" on="1"/>
        <pt x="673" y="1949" on="0"/>
        <pt x="689" y="1935" on="0"/>
        <pt x="697" y="1926" on="1"/>
        <pt x="750" y="1868" on="0"/>
        <pt x="791" y="1828" on="1"/>
        <pt x="916" y="1705" on="0"/>
        <pt x="959" y="1673" on="1"/>
        <pt x="959" y="1660" on="0"/>
        <pt x="946" y="1639" on="0"/>
        <pt x="936" y="1635" on="1"/>
        <pt x="914" y="1641" on="0"/>
        <pt x="716" y="1738" on="0"/>
        <pt x="668" y="1770" on="1"/>
        <pt x="618" y="1737" on="0"/>
        <pt x="425" y="1642" on="0"/>
        <pt x="399" y="1635" on="1"/>
        <pt x="394" y="1638" on="0"/>
        <pt x="384" y="1648" on="0"/>
        <pt x="376" y="1665" on="0"/>
      </contour>
    </TTGlyph>
    <TTGlyph name="Edieresis" xMin="77" yMin="-7" xMax="1299" yMax="1935">
      <contour>
        <pt x="78" y="4" on="0"/>
        <pt x="77" y="64" on="0"/>
        <pt x="85" y="76" on="1"/>
        <pt x="218" y="86" on="0"/>
        <pt x="228" y="114" on="1"/>
        <pt x="241" y="145" on="0"/>
        <pt x="246" y="235" on="0"/>
        <pt x="246" y="325" on="1"/>
        <pt x="246" y="1149" on="1"/>
        <pt x="246" y="1210" on="0"/>
        <pt x="245" y="1269" on="0"/>
        <pt x="237" y="1338" on="0"/>
        <pt x="228" y="1360" on="1"/>
        <pt x="227" y="1364" on="0"/>
        <pt x="217" y="1373" on="0"/>
        <pt x="201" y="1379" on="0"/>
        <pt x="185" y="1384" on="0"/>
        <pt x="162" y="1388" on="0"/>
        <pt x="145" y="1391" on="0"/>
        <pt x="120" y="1393" on="0"/>
        <pt x="107" y="1394" on="0"/>
        <pt x="87" y="1395" on="0"/>
        <pt x="85" y="1396" on="1"/>
        <pt x="77" y="1408" on="0"/>
        <pt x="78" y="1468" on="0"/>
        <pt x="85" y="1478" on="1"/>
        <pt x="186" y="1472" on="0"/>
        <pt x="405" y="1472" on="1"/>
        <pt x="460" y="1472" on="0"/>
        <pt x="1092" y="1487" on="0"/>
        <pt x="1133" y="1487" on="1"/>
        <pt x="1140" y="1437" on="0"/>
        <pt x="1162" y="1325" on="0"/>
        <pt x="1193" y="1185" on="0"/>
        <pt x="1198" y="1156" on="1"/>
        <pt x="1195" y="1153" on="0"/>
        <pt x="1176" y="1147" on="0"/>
        <pt x="1155" y="1145" on="0"/>
        <pt x="1147" y="1145" on="1"/>
        <pt x="1118" y="1145" on="0"/>
        <pt x="1111" y="1163" on="1"/>
        <pt x="1091" y="1215" on="0"/>
        <pt x="1053" y="1287" on="0"/>
        <pt x="996" y="1355" on="0"/>
        <pt x="918" y="1389" on="0"/>
        <pt x="869" y="1389" on="1"/>
        <pt x="683" y="1389" on="1"/>
        <pt x="660" y="1389" on="0"/>
        <pt x="629" y="1387" on="0"/>
        <pt x="596" y="1382" on="0"/>
        <pt x="575" y="1371" on="0"/>
        <pt x="571" y="1362" on="1"/>
        <pt x="560" y="1335" on="0"/>
        <pt x="560" y="1225" on="1"/>
        <pt x="560" y="824" on="1"/>
        <pt x="560" y="814" on="0"/>
        <pt x="619" y="800" on="0"/>
        <pt x="656" y="800" on="1"/>
        <pt x="775" y="800" on="1"/>
        <pt x="827" y="800" on="0"/>
        <pt x="887" y="811" on="0"/>
        <pt x="932" y="849" on="0"/>
        <pt x="958" y="905" on="0"/>
        <pt x="972" y="956" on="1"/>
        <pt x="976" y="974" on="0"/>
        <pt x="999" y="974" on="1"/>
        <pt x="1030" y="974" on="0"/>
        <pt x="1042" y="963" on="1"/>
        <pt x="1042" y="533" on="1"/>
        <pt x="1033" y="524" on="0"/>
        <pt x="1001" y="524" on="1"/>
        <pt x="974" y="524" on="0"/>
        <pt x="970" y="542" on="1"/>
        <pt x="958" y="592" on="0"/>
        <pt x="926" y="654" on="0"/>
        <pt x="905" y="673" on="0"/>
        <pt x="892" y="679" on="1"/>
        <pt x="854" y="694" on="0"/>
        <pt x="721" y="694" on="1"/>
        <pt x="560" y="694" on="0"/>
        <pt x="560" y="663" on="1"/>
        <pt x="560" y="316" on="1"/>
        <pt x="560" y="184" on="0"/>
        <pt x="578" y="139" on="1"/>
        <pt x="584" y="124" on="0"/>
        <pt x="633" y="103" on="0"/>
        <pt x="692" y="94" on="0"/>
        <pt x="724" y="94" on="1"/>
        <pt x="871" y="94" on="1"/>
        <pt x="1006" y="94" on="0"/>
        <pt x="1080" y="168" on="1"/>
        <pt x="1145" y="233" on="0"/>
        <pt x="1201" y="381" on="1"/>
        <pt x="1204" y="394" on="0"/>
        <pt x="1232" y="394" on="1"/>
        <pt x="1240" y="394" on="0"/>
        <pt x="1262" y="392" on="0"/>
        <pt x="1281" y="388" on="0"/>
        <pt x="1297" y="383" on="0"/>
        <pt x="1299" y="381" on="1"/>
        <pt x="1294" y="367" on="0"/>
        <pt x="1251" y="246" on="0"/>
        <pt x="1232" y="190" on="0"/>
        <pt x="1201" y="94" on="0"/>
        <pt x="1183" y="24" on="0"/>
        <pt x="1178" y="-4" on="1"/>
        <pt x="172" y="-4" on="0"/>
        <pt x="85" y="-7" on="1"/>
      </contour>
      <contour>
        <pt x="260" y="1785" on="1"/>
        <pt x="260" y="1849" on="0"/>
        <pt x="346" y="1935" on="0"/>
        <pt x="410" y="1935" on="1"/>
        <pt x="441" y="1935" on="0"/>
        <pt x="498" y="1912" on="0"/>
        <pt x="538" y="1872" on="0"/>
        <pt x="562" y="1817" on="0"/>
        <pt x="562" y="1785" on="1"/>
        <pt x="562" y="1721" on="0"/>
        <pt x="474" y="1633" on="0"/>
        <pt x="410" y="1633" on="1"/>
        <pt x="346" y="1633" on="0"/>
        <pt x="260" y="1721" on="0"/>
      </contour>
      <contour>
        <pt x="764" y="1785" on="1"/>
        <pt x="764" y="1827" on="0"/>
        <pt x="804" y="1896" on="0"/>
        <pt x="874" y="1935" on="0"/>
        <pt x="958" y="1935" on="0"/>
        <pt x="1028" y="1896" on="0"/>
        <pt x="1068" y="1827" on="0"/>
        <pt x="1068" y="1785" on="1"/>
        <pt x="1068" y="1721" on="0"/>
        <pt x="980" y="1633" on="0"/>
        <pt x="852" y="1633" on="0"/>
        <pt x="764" y="1721" on="0"/>
      </contour>
    </TTGlyph>
    <TTGlyph name="Egrave" xMin="77" yMin="-7" xMax="1299" yMax="1947">
      <contour>
        <pt x="78" y="4" on="0"/>
        <pt x="77" y="64" on="0"/>
        <pt x="85" y="76" on="1"/>
        <pt x="218" y="86" on="0"/>
        <pt x="228" y="114" on="1"/>
        <pt x="241" y="145" on="0"/>
        <pt x="246" y="235" on="0"/>
        <pt x="246" y="325" on="1"/>
        <pt x="246" y="1149" on="1"/>
        <pt x="246" y="1210" on="0"/>
        <pt x="245" y="1269" on="0"/>
        <pt x="237" y="1338" on="0"/>
        <pt x="228" y="1360" on="1"/>
        <pt x="227" y="1364" on="0"/>
        <pt x="217" y="1373" on="0"/>
        <pt x="201" y="1379" on="0"/>
        <pt x="185" y="1384" on="0"/>
        <pt x="162" y="1388" on="0"/>
        <pt x="145" y="1391" on="0"/>
        <pt x="120" y="1393" on="0"/>
        <pt x="107" y="1394" on="0"/>
        <pt x="87" y="1395" on="0"/>
        <pt x="85" y="1396" on="1"/>
        <pt x="77" y="1408" on="0"/>
        <pt x="78" y="1468" on="0"/>
        <pt x="85" y="1478" on="1"/>
        <pt x="186" y="1472" on="0"/>
        <pt x="405" y="1472" on="1"/>
        <pt x="460" y="1472" on="0"/>
        <pt x="1092" y="1487" on="0"/>
        <pt x="1133" y="1487" on="1"/>
        <pt x="1140" y="1437" on="0"/>
        <pt x="1162" y="1325" on="0"/>
        <pt x="1193" y="1185" on="0"/>
        <pt x="1198" y="1156" on="1"/>
        <pt x="1195" y="1153" on="0"/>
        <pt x="1176" y="1147" on="0"/>
        <pt x="1155" y="1145" on="0"/>
        <pt x="1147" y="1145" on="1"/>
        <pt x="1118" y="1145" on="0"/>
        <pt x="1111" y="1163" on="1"/>
        <pt x="1091" y="1215" on="0"/>
        <pt x="1053" y="1287" on="0"/>
        <pt x="996" y="1355" on="0"/>
        <pt x="918" y="1389" on="0"/>
        <pt x="869" y="1389" on="1"/>
        <pt x="683" y="1389" on="1"/>
        <pt x="660" y="1389" on="0"/>
        <pt x="629" y="1387" on="0"/>
        <pt x="596" y="1382" on="0"/>
        <pt x="575" y="1371" on="0"/>
        <pt x="571" y="1362" on="1"/>
        <pt x="560" y="1335" on="0"/>
        <pt x="560" y="1225" on="1"/>
        <pt x="560" y="824" on="1"/>
        <pt x="560" y="814" on="0"/>
        <pt x="619" y="800" on="0"/>
        <pt x="656" y="800" on="1"/>
        <pt x="775" y="800" on="1"/>
        <pt x="827" y="800" on="0"/>
        <pt x="887" y="811" on="0"/>
        <pt x="932" y="849" on="0"/>
        <pt x="958" y="905" on="0"/>
        <pt x="972" y="956" on="1"/>
        <pt x="976" y="974" on="0"/>
        <pt x="999" y="974" on="1"/>
        <pt x="1030" y="974" on="0"/>
        <pt x="1042" y="963" on="1"/>
        <pt x="1042" y="533" on="1"/>
        <pt x="1033" y="524" on="0"/>
        <pt x="1001" y="524" on="1"/>
        <pt x="974" y="524" on="0"/>
        <pt x="970" y="542" on="1"/>
        <pt x="958" y="592" on="0"/>
        <pt x="926" y="654" on="0"/>
        <pt x="905" y="673" on="0"/>
        <pt x="892" y="679" on="1"/>
        <pt x="854" y="694" on="0"/>
        <pt x="721" y="694" on="1"/>
        <pt x="560" y="694" on="0"/>
        <pt x="560" y="663" on="1"/>
        <pt x="560" y="316" on="1"/>
        <pt x="560" y="184" on="0"/>
        <pt x="578" y="139" on="1"/>
        <pt x="584" y="124" on="0"/>
        <pt x="633" y="103" on="0"/>
        <pt x="692" y="94" on="0"/>
        <pt x="724" y="94" on="1"/>
        <pt x="871" y="94" on="1"/>
        <pt x="1006" y="94" on="0"/>
        <pt x="1080" y="168" on="1"/>
        <pt x="1145" y="233" on="0"/>
        <pt x="1201" y="381" on="1"/>
        <pt x="1204" y="394" on="0"/>
        <pt x="1232" y="394" on="1"/>
        <pt x="1240" y="394" on="0"/>
        <pt x="1262" y="392" on="0"/>
        <pt x="1281" y="388" on="0"/>
        <pt x="1297" y="383" on="0"/>
        <pt x="1299" y="381" on="1"/>
        <pt x="1294" y="367" on="0"/>
        <pt x="1251" y="246" on="0"/>
        <pt x="1232" y="190" on="0"/>
        <pt x="1201" y="94" on="0"/>
        <pt x="1183" y="24" on="0"/>
        <pt x="1178" y="-4" on="1"/>
        <pt x="172" y="-4" on="0"/>
        <pt x="85" y="-7" on="1"/>
      </contour>
      <contour>
        <pt x="401" y="1861" on="1"/>
        <pt x="401" y="1884" on="0"/>
        <pt x="428" y="1918" on="0"/>
        <pt x="469" y="1937" on="0"/>
        <pt x="510" y="1947" on="0"/>
        <pt x="526" y="1947" on="1"/>
        <pt x="549" y="1947" on="0"/>
        <pt x="567" y="1938" on="1"/>
        <pt x="640" y="1882" on="0"/>
        <pt x="836" y="1688" on="0"/>
        <pt x="836" y="1676" on="1"/>
        <pt x="836" y="1664" on="0"/>
        <pt x="815" y="1631" on="0"/>
        <pt x="804" y="1631" on="1"/>
        <pt x="791" y="1631" on="0"/>
        <pt x="664" y="1680" on="0"/>
        <pt x="518" y="1749" on="0"/>
        <pt x="401" y="1833" on="0"/>
      </contour>
    </TTGlyph>
    <TTGlyph name="Eth" xMin="65" yMin="-7" xMax="1617" yMax="1478">
      <contour>
        <pt x="70" y="690" on="0"/>
        <pt x="65" y="726" on="0"/>
        <pt x="70" y="770" on="0"/>
        <pt x="76" y="780" on="1"/>
        <pt x="858" y="780" on="1"/>
        <pt x="865" y="780" on="0"/>
        <pt x="865" y="705" on="0"/>
        <pt x="858" y="690" on="1"/>
        <pt x="74" y="690" on="1"/>
      </contour>
      <contour>
        <pt x="87" y="4" on="0"/>
        <pt x="86" y="64" on="0"/>
        <pt x="94" y="76" on="1"/>
        <pt x="227" y="86" on="0"/>
        <pt x="237" y="114" on="1"/>
        <pt x="250" y="145" on="0"/>
        <pt x="255" y="235" on="0"/>
        <pt x="255" y="325" on="1"/>
        <pt x="255" y="1149" on="1"/>
        <pt x="255" y="1210" on="0"/>
        <pt x="254" y="1269" on="0"/>
        <pt x="246" y="1338" on="0"/>
        <pt x="237" y="1360" on="1"/>
        <pt x="236" y="1364" on="0"/>
        <pt x="226" y="1373" on="0"/>
        <pt x="210" y="1379" on="0"/>
        <pt x="194" y="1384" on="0"/>
        <pt x="171" y="1388" on="0"/>
        <pt x="154" y="1391" on="0"/>
        <pt x="129" y="1393" on="0"/>
        <pt x="116" y="1394" on="0"/>
        <pt x="96" y="1395" on="0"/>
        <pt x="94" y="1396" on="1"/>
        <pt x="86" y="1408" on="0"/>
        <pt x="87" y="1468" on="0"/>
        <pt x="94" y="1478" on="1"/>
        <pt x="195" y="1472" on="0"/>
        <pt x="414" y="1472" on="1"/>
        <pt x="468" y="1472" on="0"/>
        <pt x="713" y="1478" on="0"/>
        <pt x="757" y="1478" on="1"/>
        <pt x="951" y="1478" on="0"/>
        <pt x="1269" y="1380" on="0"/>
        <pt x="1494" y="1196" on="0"/>
        <pt x="1617" y="922" on="0"/>
        <pt x="1617" y="753" on="1"/>
        <pt x="1617" y="599" on="0"/>
        <pt x="1528" y="347" on="0"/>
        <pt x="1369" y="170" on="0"/>
        <pt x="1148" y="50" on="0"/>
        <pt x="889" y="-7" on="0"/>
        <pt x="741" y="-7" on="1"/>
        <pt x="94" y="-7" on="1"/>
      </contour>
      <contour>
        <pt x="569" y="316" on="1"/>
        <pt x="569" y="184" on="0"/>
        <pt x="587" y="139" on="1"/>
        <pt x="597" y="116" on="0"/>
        <pt x="682" y="87" on="0"/>
        <pt x="728" y="87" on="1"/>
        <pt x="1002" y="87" on="0"/>
        <pt x="1261" y="400" on="0"/>
        <pt x="1261" y="728" on="1"/>
        <pt x="1261" y="889" on="0"/>
        <pt x="1177" y="1143" on="0"/>
        <pt x="1025" y="1305" on="0"/>
        <pt x="818" y="1389" on="0"/>
        <pt x="692" y="1389" on="1"/>
        <pt x="669" y="1389" on="0"/>
        <pt x="638" y="1387" on="0"/>
        <pt x="605" y="1382" on="0"/>
        <pt x="584" y="1371" on="0"/>
        <pt x="580" y="1362" on="1"/>
        <pt x="569" y="1335" on="0"/>
        <pt x="569" y="1225" on="1"/>
      </contour>
    </TTGlyph>
    <TTGlyph name="Euro" xMin="79" yMin="-16" xMax="1501" yMax="1438">
      <contour>
        <pt x="90" y="564" on="1"/>
        <pt x="79" y="575" on="0"/>
        <pt x="119" y="659" on="0"/>
        <pt x="134" y="659" on="1"/>
        <pt x="970" y="659" on="1"/>
        <pt x="985" y="646" on="0"/>
        <pt x="977" y="605" on="0"/>
        <pt x="956" y="570" on="0"/>
        <pt x="948" y="564" on="1"/>
      </contour>
      <contour>
        <pt x="90" y="802" on="1"/>
        <pt x="79" y="812" on="0"/>
        <pt x="119" y="896" on="0"/>
        <pt x="134" y="896" on="1"/>
        <pt x="970" y="896" on="1"/>
        <pt x="985" y="883" on="0"/>
        <pt x="977" y="842" on="0"/>
        <pt x="956" y="807" on="0"/>
        <pt x="948" y="802" on="1"/>
      </contour>
      <contour>
        <pt x="177" y="694" on="1"/>
        <pt x="177" y="843" on="0"/>
        <pt x="297" y="1117" on="0"/>
        <pt x="499" y="1318" on="0"/>
        <pt x="780" y="1438" on="0"/>
        <pt x="934" y="1438" on="1"/>
        <pt x="1198" y="1438" on="0"/>
        <pt x="1393" y="1398" on="1"/>
        <pt x="1393" y="1397" on="0"/>
        <pt x="1467" y="1087" on="0"/>
        <pt x="1467" y="1071" on="1"/>
        <pt x="1467" y="1060" on="0"/>
        <pt x="1429" y="1039" on="0"/>
        <pt x="1409" y="1039" on="1"/>
        <pt x="1389" y="1039" on="0"/>
        <pt x="1380" y="1048" on="1"/>
        <pt x="1374" y="1070" on="0"/>
        <pt x="1357" y="1114" on="0"/>
        <pt x="1323" y="1175" on="0"/>
        <pt x="1279" y="1228" on="0"/>
        <pt x="1211" y="1283" on="0"/>
        <pt x="1131" y="1322" on="0"/>
        <pt x="1018" y="1346" on="0"/>
        <pt x="954" y="1346" on="1"/>
        <pt x="864" y="1346" on="0"/>
        <pt x="714" y="1282" on="0"/>
        <pt x="612" y="1172" on="0"/>
        <pt x="543" y="1021" on="0"/>
        <pt x="511" y="852" on="0"/>
        <pt x="511" y="759" on="1"/>
        <pt x="511" y="657" on="0"/>
        <pt x="547" y="462" on="0"/>
        <pt x="625" y="287" on="0"/>
        <pt x="737" y="156" on="0"/>
        <pt x="900" y="78" on="0"/>
        <pt x="997" y="78" on="1"/>
        <pt x="1164" y="78" on="0"/>
        <pt x="1270" y="172" on="1"/>
        <pt x="1311" y="210" on="0"/>
        <pt x="1387" y="339" on="0"/>
        <pt x="1420" y="422" on="0"/>
        <pt x="1425" y="439" on="1"/>
        <pt x="1473" y="439" on="0"/>
        <pt x="1501" y="414" on="1"/>
        <pt x="1501" y="383" on="0"/>
        <pt x="1433" y="94" on="0"/>
        <pt x="1411" y="85" on="1"/>
        <pt x="1336" y="59" on="0"/>
        <pt x="1267" y="36" on="0"/>
        <pt x="1132" y="-1" on="0"/>
        <pt x="1002" y="-16" on="0"/>
        <pt x="930" y="-16" on="1"/>
        <pt x="777" y="-16" on="0"/>
        <pt x="498" y="97" on="0"/>
        <pt x="297" y="287" on="0"/>
        <pt x="177" y="550" on="0"/>
      </contour>
    </TTGlyph>
    <TTGlyph name="F" xMin="77" yMin="-9" xMax="1198" yMax="1487">
      <contour>
        <pt x="77" y="35" on="1"/>
        <pt x="77" y="62" on="0"/>
        <pt x="85" y="74" on="1"/>
        <pt x="217" y="84" on="0"/>
        <pt x="228" y="114" on="1"/>
        <pt x="241" y="145" on="0"/>
        <pt x="246" y="235" on="0"/>
        <pt x="246" y="325" on="1"/>
        <pt x="246" y="1149" on="1"/>
        <pt x="246" y="1210" on="0"/>
        <pt x="245" y="1269" on="0"/>
        <pt x="237" y="1338" on="0"/>
        <pt x="228" y="1360" on="1"/>
        <pt x="227" y="1364" on="0"/>
        <pt x="217" y="1373" on="0"/>
        <pt x="201" y="1379" on="0"/>
        <pt x="185" y="1384" on="0"/>
        <pt x="162" y="1388" on="0"/>
        <pt x="145" y="1391" on="0"/>
        <pt x="120" y="1393" on="0"/>
        <pt x="107" y="1394" on="0"/>
        <pt x="87" y="1395" on="0"/>
        <pt x="85" y="1396" on="1"/>
        <pt x="77" y="1407" on="0"/>
        <pt x="77" y="1435" on="1"/>
        <pt x="78" y="1437" on="0"/>
        <pt x="78" y="1438" on="1"/>
        <pt x="78" y="1468" on="0"/>
        <pt x="85" y="1478" on="1"/>
        <pt x="186" y="1472" on="0"/>
        <pt x="405" y="1472" on="1"/>
        <pt x="460" y="1472" on="0"/>
        <pt x="1092" y="1486" on="0"/>
        <pt x="1133" y="1487" on="1"/>
        <pt x="1140" y="1437" on="0"/>
        <pt x="1162" y="1325" on="0"/>
        <pt x="1193" y="1185" on="0"/>
        <pt x="1198" y="1156" on="1"/>
        <pt x="1195" y="1153" on="0"/>
        <pt x="1176" y="1147" on="0"/>
        <pt x="1155" y="1145" on="0"/>
        <pt x="1147" y="1145" on="1"/>
        <pt x="1118" y="1145" on="0"/>
        <pt x="1111" y="1163" on="1"/>
        <pt x="1091" y="1215" on="0"/>
        <pt x="1053" y="1287" on="0"/>
        <pt x="996" y="1355" on="0"/>
        <pt x="918" y="1389" on="0"/>
        <pt x="869" y="1389" on="1"/>
        <pt x="683" y="1389" on="1"/>
        <pt x="660" y="1389" on="0"/>
        <pt x="629" y="1387" on="0"/>
        <pt x="596" y="1382" on="0"/>
        <pt x="575" y="1371" on="0"/>
        <pt x="571" y="1362" on="1"/>
        <pt x="560" y="1335" on="0"/>
        <pt x="560" y="1225" on="1"/>
        <pt x="560" y="815" on="1"/>
        <pt x="560" y="805" on="0"/>
        <pt x="619" y="791" on="0"/>
        <pt x="656" y="791" on="1"/>
        <pt x="775" y="791" on="1"/>
        <pt x="827" y="791" on="0"/>
        <pt x="887" y="802" on="0"/>
        <pt x="932" y="840" on="0"/>
        <pt x="958" y="896" on="0"/>
        <pt x="972" y="948" on="1"/>
        <pt x="976" y="965" on="0"/>
        <pt x="999" y="965" on="1"/>
        <pt x="1030" y="965" on="0"/>
        <pt x="1042" y="954" on="1"/>
        <pt x="1042" y="524" on="1"/>
        <pt x="1033" y="515" on="0"/>
        <pt x="1001" y="515" on="1"/>
        <pt x="974" y="515" on="0"/>
        <pt x="970" y="533" on="1"/>
        <pt x="958" y="583" on="0"/>
        <pt x="926" y="645" on="0"/>
        <pt x="905" y="664" on="0"/>
        <pt x="892" y="670" on="1"/>
        <pt x="854" y="685" on="0"/>
        <pt x="721" y="685" on="1"/>
        <pt x="560" y="685" on="0"/>
        <pt x="560" y="654" on="1"/>
        <pt x="560" y="325" on="1"/>
        <pt x="560" y="278" on="0"/>
        <pt x="561" y="233" on="0"/>
        <pt x="564" y="171" on="0"/>
        <pt x="571" y="130" on="0"/>
        <pt x="578" y="114" on="1"/>
        <pt x="589" y="86" on="0"/>
        <pt x="741" y="74" on="1"/>
        <pt x="749" y="62" on="0"/>
        <pt x="749" y="2" on="0"/>
        <pt x="741" y="-9" on="1"/>
        <pt x="589" y="7" on="0"/>
        <pt x="401" y="7" on="1"/>
        <pt x="238" y="7" on="0"/>
        <pt x="85" y="-9" on="1"/>
        <pt x="77" y="2" on="0"/>
      </contour>
    </TTGlyph>
    <TTGlyph name="G" xMin="90" yMin="-16" xMax="1580" yMax="1494">
      <contour>
        <pt x="90" y="721" on="1"/>
        <pt x="90" y="876" on="0"/>
        <pt x="213" y="1161" on="0"/>
        <pt x="421" y="1369" on="0"/>
        <pt x="708" y="1494" on="0"/>
        <pt x="865" y="1494" on="1"/>
        <pt x="978" y="1494" on="0"/>
        <pt x="1233" y="1471" on="0"/>
        <pt x="1331" y="1452" on="1"/>
        <pt x="1331" y="1451" on="0"/>
        <pt x="1407" y="1129" on="0"/>
        <pt x="1407" y="1113" on="1"/>
        <pt x="1407" y="1107" on="0"/>
        <pt x="1389" y="1091" on="0"/>
        <pt x="1361" y="1080" on="0"/>
        <pt x="1348" y="1080" on="1"/>
        <pt x="1326" y="1080" on="0"/>
        <pt x="1317" y="1089" on="1"/>
        <pt x="1311" y="1111" on="0"/>
        <pt x="1295" y="1156" on="0"/>
        <pt x="1261" y="1220" on="0"/>
        <pt x="1217" y="1275" on="0"/>
        <pt x="1149" y="1332" on="0"/>
        <pt x="1068" y="1372" on="0"/>
        <pt x="954" y="1398" on="0"/>
        <pt x="889" y="1398" on="1"/>
        <pt x="793" y="1398" on="0"/>
        <pt x="640" y="1328" on="0"/>
        <pt x="541" y="1212" on="0"/>
        <pt x="475" y="1050" on="0"/>
        <pt x="448" y="875" on="0"/>
        <pt x="448" y="777" on="1"/>
        <pt x="448" y="671" on="0"/>
        <pt x="485" y="470" on="0"/>
        <pt x="564" y="292" on="0"/>
        <pt x="674" y="158" on="0"/>
        <pt x="831" y="81" on="0"/>
        <pt x="923" y="81" on="1"/>
        <pt x="1017" y="81" on="0"/>
        <pt x="1098" y="116" on="1"/>
        <pt x="1118" y="127" on="0"/>
        <pt x="1118" y="150" on="1"/>
        <pt x="1118" y="410" on="1"/>
        <pt x="1118" y="415" on="0"/>
        <pt x="1118" y="445" on="0"/>
        <pt x="1118" y="453" on="0"/>
        <pt x="1117" y="476" on="0"/>
        <pt x="1114" y="490" on="0"/>
        <pt x="1110" y="512" on="0"/>
        <pt x="1107" y="524" on="1"/>
        <pt x="1102" y="540" on="0"/>
        <pt x="1073" y="564" on="0"/>
        <pt x="1039" y="576" on="0"/>
        <pt x="996" y="583" on="0"/>
        <pt x="970" y="585" on="0"/>
        <pt x="959" y="585" on="1"/>
        <pt x="950" y="585" on="0"/>
        <pt x="948" y="659" on="0"/>
        <pt x="956" y="668" on="1"/>
        <pt x="995" y="666" on="0"/>
        <pt x="1134" y="659" on="0"/>
        <pt x="1248" y="654" on="0"/>
        <pt x="1299" y="654" on="1"/>
        <pt x="1326" y="654" on="0"/>
        <pt x="1384" y="656" on="0"/>
        <pt x="1440" y="659" on="0"/>
        <pt x="1491" y="662" on="0"/>
        <pt x="1552" y="666" on="0"/>
        <pt x="1575" y="668" on="1"/>
        <pt x="1577" y="659" on="0"/>
        <pt x="1580" y="636" on="0"/>
        <pt x="1580" y="615" on="0"/>
        <pt x="1578" y="596" on="0"/>
        <pt x="1574" y="585" on="0"/>
        <pt x="1572" y="585" on="1"/>
        <pt x="1563" y="585" on="0"/>
        <pt x="1517" y="577" on="0"/>
        <pt x="1465" y="563" on="0"/>
        <pt x="1454" y="556" on="1"/>
        <pt x="1449" y="552" on="0"/>
        <pt x="1439" y="533" on="0"/>
        <pt x="1432" y="507" on="0"/>
        <pt x="1427" y="475" on="0"/>
        <pt x="1427" y="459" on="1"/>
        <pt x="1427" y="220" on="1"/>
        <pt x="1427" y="208" on="0"/>
        <pt x="1440" y="159" on="0"/>
        <pt x="1440" y="155" on="1"/>
        <pt x="1440" y="126" on="0"/>
        <pt x="1362" y="96" on="1"/>
        <pt x="1292" y="70" on="0"/>
        <pt x="1207" y="41" on="0"/>
        <pt x="1071" y="2" on="0"/>
        <pt x="934" y="-16" on="0"/>
        <pt x="860" y="-16" on="1"/>
        <pt x="703" y="-16" on="0"/>
        <pt x="420" y="97" on="0"/>
        <pt x="212" y="290" on="0"/>
        <pt x="90" y="566" on="0"/>
      </contour>
    </TTGlyph>
    <TTGlyph name="H" xMin="77" yMin="-9" xMax="1583" yMax="1483">
      <contour>
        <pt x="77" y="35" on="1"/>
        <pt x="77" y="62" on="0"/>
        <pt x="85" y="74" on="1"/>
        <pt x="217" y="84" on="0"/>
        <pt x="228" y="114" on="1"/>
        <pt x="241" y="145" on="0"/>
        <pt x="246" y="235" on="0"/>
        <pt x="246" y="325" on="1"/>
        <pt x="246" y="1149" on="1"/>
        <pt x="246" y="1210" on="0"/>
        <pt x="245" y="1269" on="0"/>
        <pt x="237" y="1338" on="0"/>
        <pt x="228" y="1360" on="1"/>
        <pt x="217" y="1390" on="0"/>
        <pt x="85" y="1400" on="1"/>
        <pt x="77" y="1411" on="0"/>
        <pt x="77" y="1439" on="1"/>
        <pt x="78" y="1441" on="0"/>
        <pt x="78" y="1442" on="1"/>
        <pt x="78" y="1472" on="0"/>
        <pt x="85" y="1483" on="1"/>
        <pt x="238" y="1467" on="0"/>
        <pt x="405" y="1467" on="1"/>
        <pt x="568" y="1467" on="0"/>
        <pt x="721" y="1483" on="1"/>
        <pt x="728" y="1472" on="0"/>
        <pt x="729" y="1412" on="0"/>
        <pt x="721" y="1400" on="1"/>
        <pt x="590" y="1390" on="0"/>
        <pt x="578" y="1360" on="1"/>
        <pt x="566" y="1329" on="0"/>
        <pt x="560" y="1239" on="0"/>
        <pt x="560" y="1149" on="1"/>
        <pt x="560" y="831" on="1"/>
        <pt x="560" y="829" on="0"/>
        <pt x="562" y="826" on="0"/>
        <pt x="563" y="825" on="1"/>
        <pt x="564" y="824" on="1"/>
        <pt x="592" y="824" on="0"/>
        <pt x="700" y="820" on="0"/>
        <pt x="791" y="818" on="0"/>
        <pt x="836" y="818" on="1"/>
        <pt x="856" y="818" on="0"/>
        <pt x="1098" y="824" on="1"/>
        <pt x="1102" y="829" on="0"/>
        <pt x="1102" y="833" on="1"/>
        <pt x="1100" y="1149" on="1"/>
        <pt x="1100" y="1196" on="0"/>
        <pt x="1099" y="1241" on="0"/>
        <pt x="1096" y="1303" on="0"/>
        <pt x="1088" y="1343" on="0"/>
        <pt x="1082" y="1360" on="1"/>
        <pt x="1070" y="1390" on="0"/>
        <pt x="939" y="1400" on="1"/>
        <pt x="931" y="1412" on="0"/>
        <pt x="931" y="1472" on="0"/>
        <pt x="939" y="1483" on="1"/>
        <pt x="1091" y="1467" on="0"/>
        <pt x="1259" y="1467" on="1"/>
        <pt x="1422" y="1467" on="0"/>
        <pt x="1575" y="1483" on="1"/>
        <pt x="1582" y="1472" on="0"/>
        <pt x="1582" y="1442" on="1"/>
        <pt x="1582" y="1440" on="0"/>
        <pt x="1583" y="1439" on="1"/>
        <pt x="1583" y="1412" on="0"/>
        <pt x="1575" y="1400" on="1"/>
        <pt x="1443" y="1390" on="0"/>
        <pt x="1431" y="1360" on="1"/>
        <pt x="1419" y="1329" on="0"/>
        <pt x="1413" y="1239" on="0"/>
        <pt x="1413" y="1149" on="1"/>
        <pt x="1413" y="325" on="1"/>
        <pt x="1413" y="287" on="0"/>
        <pt x="1414" y="251" on="0"/>
        <pt x="1415" y="195" on="0"/>
        <pt x="1419" y="163" on="0"/>
        <pt x="1426" y="127" on="0"/>
        <pt x="1431" y="114" on="1"/>
        <pt x="1443" y="84" on="0"/>
        <pt x="1575" y="74" on="1"/>
        <pt x="1583" y="63" on="0"/>
        <pt x="1583" y="35" on="1"/>
        <pt x="1582" y="33" on="0"/>
        <pt x="1582" y="32" on="1"/>
        <pt x="1582" y="2" on="0"/>
        <pt x="1575" y="-9" on="1"/>
        <pt x="1422" y="7" on="0"/>
        <pt x="1254" y="7" on="1"/>
        <pt x="1091" y="7" on="0"/>
        <pt x="939" y="-9" on="1"/>
        <pt x="931" y="2" on="0"/>
        <pt x="931" y="62" on="0"/>
        <pt x="939" y="74" on="1"/>
        <pt x="1070" y="84" on="0"/>
        <pt x="1082" y="114" on="1"/>
        <pt x="1094" y="145" on="0"/>
        <pt x="1100" y="235" on="0"/>
        <pt x="1100" y="325" on="1"/>
        <pt x="1100" y="694" on="1"/>
        <pt x="1095" y="706" on="1"/>
        <pt x="930" y="710" on="0"/>
        <pt x="836" y="710" on="1"/>
        <pt x="576" y="710" on="0"/>
        <pt x="562" y="701" on="1"/>
        <pt x="560" y="692" on="1"/>
        <pt x="560" y="325" on="1"/>
        <pt x="560" y="278" on="0"/>
        <pt x="561" y="233" on="0"/>
        <pt x="564" y="171" on="0"/>
        <pt x="571" y="130" on="0"/>
        <pt x="578" y="114" on="1"/>
        <pt x="590" y="84" on="0"/>
        <pt x="721" y="74" on="1"/>
        <pt x="729" y="62" on="0"/>
        <pt x="728" y="2" on="0"/>
        <pt x="721" y="-9" on="1"/>
        <pt x="568" y="7" on="0"/>
        <pt x="401" y="7" on="1"/>
        <pt x="238" y="7" on="0"/>
        <pt x="85" y="-9" on="1"/>
        <pt x="77" y="2" on="0"/>
      </contour>
    </TTGlyph>
    <TTGlyph name="I" xMin="77" yMin="-9" xMax="729" yMax="1483">
      <contour>
        <pt x="77" y="35" on="1"/>
        <pt x="77" y="62" on="0"/>
        <pt x="85" y="74" on="1"/>
        <pt x="217" y="84" on="0"/>
        <pt x="228" y="114" on="1"/>
        <pt x="241" y="145" on="0"/>
        <pt x="246" y="235" on="0"/>
        <pt x="246" y="325" on="1"/>
        <pt x="246" y="1149" on="1"/>
        <pt x="246" y="1210" on="0"/>
        <pt x="245" y="1269" on="0"/>
        <pt x="237" y="1338" on="0"/>
        <pt x="228" y="1360" on="1"/>
        <pt x="217" y="1390" on="0"/>
        <pt x="85" y="1400" on="1"/>
        <pt x="77" y="1411" on="0"/>
        <pt x="77" y="1439" on="1"/>
        <pt x="78" y="1441" on="0"/>
        <pt x="78" y="1442" on="1"/>
        <pt x="78" y="1472" on="0"/>
        <pt x="85" y="1483" on="1"/>
        <pt x="238" y="1467" on="0"/>
        <pt x="405" y="1467" on="1"/>
        <pt x="568" y="1467" on="0"/>
        <pt x="721" y="1483" on="1"/>
        <pt x="728" y="1472" on="0"/>
        <pt x="728" y="1442" on="1"/>
        <pt x="728" y="1440" on="0"/>
        <pt x="729" y="1439" on="1"/>
        <pt x="729" y="1412" on="0"/>
        <pt x="721" y="1400" on="1"/>
        <pt x="590" y="1390" on="0"/>
        <pt x="578" y="1360" on="1"/>
        <pt x="566" y="1329" on="0"/>
        <pt x="560" y="1239" on="0"/>
        <pt x="560" y="1149" on="1"/>
        <pt x="560" y="325" on="1"/>
        <pt x="560" y="278" on="0"/>
        <pt x="561" y="233" on="0"/>
        <pt x="564" y="171" on="0"/>
        <pt x="571" y="130" on="0"/>
        <pt x="578" y="114" on="1"/>
        <pt x="590" y="84" on="0"/>
        <pt x="721" y="74" on="1"/>
        <pt x="729" y="63" on="0"/>
        <pt x="729" y="35" on="1"/>
        <pt x="728" y="33" on="0"/>
        <pt x="728" y="32" on="1"/>
        <pt x="728" y="2" on="0"/>
        <pt x="721" y="-9" on="1"/>
        <pt x="568" y="7" on="0"/>
        <pt x="401" y="7" on="1"/>
        <pt x="238" y="7" on="0"/>
        <pt x="85" y="-9" on="1"/>
        <pt x="77" y="2" on="0"/>
      </contour>
    </TTGlyph>
    <TTGlyph name="Iacute" xMin="77" yMin="-9" xMax="729" yMax="1947">
      <contour>
        <pt x="78" y="2" on="0"/>
        <pt x="77" y="62" on="0"/>
        <pt x="85" y="74" on="1"/>
        <pt x="217" y="84" on="0"/>
        <pt x="228" y="114" on="1"/>
        <pt x="241" y="145" on="0"/>
        <pt x="246" y="235" on="0"/>
        <pt x="246" y="325" on="1"/>
        <pt x="246" y="1149" on="1"/>
        <pt x="246" y="1210" on="0"/>
        <pt x="245" y="1269" on="0"/>
        <pt x="237" y="1338" on="0"/>
        <pt x="228" y="1360" on="1"/>
        <pt x="217" y="1390" on="0"/>
        <pt x="85" y="1400" on="1"/>
        <pt x="77" y="1412" on="0"/>
        <pt x="78" y="1472" on="0"/>
        <pt x="85" y="1483" on="1"/>
        <pt x="238" y="1467" on="0"/>
        <pt x="405" y="1467" on="1"/>
        <pt x="568" y="1467" on="0"/>
        <pt x="721" y="1483" on="1"/>
        <pt x="728" y="1472" on="0"/>
        <pt x="729" y="1412" on="0"/>
        <pt x="721" y="1400" on="1"/>
        <pt x="590" y="1390" on="0"/>
        <pt x="578" y="1360" on="1"/>
        <pt x="566" y="1329" on="0"/>
        <pt x="560" y="1239" on="0"/>
        <pt x="560" y="1149" on="1"/>
        <pt x="560" y="325" on="1"/>
        <pt x="560" y="278" on="0"/>
        <pt x="561" y="233" on="0"/>
        <pt x="564" y="171" on="0"/>
        <pt x="571" y="130" on="0"/>
        <pt x="578" y="114" on="1"/>
        <pt x="590" y="84" on="0"/>
        <pt x="721" y="74" on="1"/>
        <pt x="729" y="62" on="0"/>
        <pt x="728" y="2" on="0"/>
        <pt x="721" y="-9" on="1"/>
        <pt x="568" y="7" on="0"/>
        <pt x="401" y="7" on="1"/>
        <pt x="238" y="7" on="0"/>
        <pt x="85" y="-9" on="1"/>
      </contour>
      <contour>
        <pt x="244" y="1676" on="1"/>
        <pt x="244" y="1688" on="0"/>
        <pt x="440" y="1882" on="0"/>
        <pt x="513" y="1938" on="1"/>
        <pt x="531" y="1947" on="0"/>
        <pt x="553" y="1947" on="1"/>
        <pt x="577" y="1947" on="0"/>
        <pt x="631" y="1931" on="0"/>
        <pt x="679" y="1890" on="0"/>
        <pt x="679" y="1833" on="0"/>
        <pt x="562" y="1749" on="0"/>
        <pt x="415" y="1680" on="0"/>
        <pt x="289" y="1631" on="0"/>
        <pt x="276" y="1631" on="1"/>
        <pt x="265" y="1631" on="0"/>
        <pt x="244" y="1664" on="0"/>
      </contour>
    </TTGlyph>
    <TTGlyph name="Icircumflex" xMin="77" yMin="-9" xMax="729" yMax="1949">
      <contour>
        <pt x="78" y="2" on="0"/>
        <pt x="77" y="62" on="0"/>
        <pt x="85" y="74" on="1"/>
        <pt x="217" y="84" on="0"/>
        <pt x="228" y="114" on="1"/>
        <pt x="241" y="145" on="0"/>
        <pt x="246" y="235" on="0"/>
        <pt x="246" y="325" on="1"/>
        <pt x="246" y="1149" on="1"/>
        <pt x="246" y="1210" on="0"/>
        <pt x="245" y="1269" on="0"/>
        <pt x="237" y="1338" on="0"/>
        <pt x="228" y="1360" on="1"/>
        <pt x="217" y="1390" on="0"/>
        <pt x="85" y="1400" on="1"/>
        <pt x="77" y="1412" on="0"/>
        <pt x="78" y="1472" on="0"/>
        <pt x="85" y="1483" on="1"/>
        <pt x="238" y="1467" on="0"/>
        <pt x="405" y="1467" on="1"/>
        <pt x="568" y="1467" on="0"/>
        <pt x="721" y="1483" on="1"/>
        <pt x="728" y="1472" on="0"/>
        <pt x="729" y="1412" on="0"/>
        <pt x="721" y="1400" on="1"/>
        <pt x="590" y="1390" on="0"/>
        <pt x="578" y="1360" on="1"/>
        <pt x="566" y="1329" on="0"/>
        <pt x="560" y="1239" on="0"/>
        <pt x="560" y="1149" on="1"/>
        <pt x="560" y="325" on="1"/>
        <pt x="560" y="278" on="0"/>
        <pt x="561" y="233" on="0"/>
        <pt x="564" y="171" on="0"/>
        <pt x="571" y="130" on="0"/>
        <pt x="578" y="114" on="1"/>
        <pt x="590" y="84" on="0"/>
        <pt x="721" y="74" on="1"/>
        <pt x="729" y="62" on="0"/>
        <pt x="728" y="2" on="0"/>
        <pt x="721" y="-9" on="1"/>
        <pt x="568" y="7" on="0"/>
        <pt x="401" y="7" on="1"/>
        <pt x="238" y="7" on="0"/>
        <pt x="85" y="-9" on="1"/>
      </contour>
      <contour>
        <pt x="116" y="1673" on="1"/>
        <pt x="141" y="1692" on="0"/>
        <pt x="278" y="1819" on="1"/>
        <pt x="294" y="1833" on="0"/>
        <pt x="322" y="1862" on="0"/>
        <pt x="343" y="1885" on="0"/>
        <pt x="359" y="1903" on="0"/>
        <pt x="375" y="1922" on="0"/>
        <pt x="379" y="1926" on="1"/>
        <pt x="397" y="1949" on="0"/>
        <pt x="408" y="1949" on="1"/>
        <pt x="410" y="1949" on="0"/>
        <pt x="415" y="1947" on="0"/>
        <pt x="422" y="1941" on="0"/>
        <pt x="426" y="1937" on="0"/>
        <pt x="435" y="1928" on="0"/>
        <pt x="437" y="1926" on="1"/>
        <pt x="491" y="1868" on="0"/>
        <pt x="531" y="1828" on="1"/>
        <pt x="656" y="1705" on="0"/>
        <pt x="699" y="1673" on="1"/>
        <pt x="699" y="1660" on="0"/>
        <pt x="687" y="1639" on="0"/>
        <pt x="676" y="1635" on="1"/>
        <pt x="654" y="1641" on="0"/>
        <pt x="456" y="1738" on="0"/>
        <pt x="408" y="1770" on="1"/>
        <pt x="358" y="1737" on="0"/>
        <pt x="166" y="1642" on="0"/>
        <pt x="139" y="1635" on="1"/>
        <pt x="131" y="1639" on="0"/>
        <pt x="116" y="1661" on="0"/>
      </contour>
    </TTGlyph>
    <TTGlyph name="Idieresis" xMin="2" yMin="-9" xMax="811" yMax="1935">
      <contour>
        <pt x="2" y="1785" on="1"/>
        <pt x="2" y="1849" on="0"/>
        <pt x="88" y="1935" on="0"/>
        <pt x="152" y="1935" on="1"/>
        <pt x="194" y="1935" on="0"/>
        <pt x="264" y="1896" on="0"/>
        <pt x="305" y="1827" on="0"/>
        <pt x="305" y="1785" on="1"/>
        <pt x="305" y="1721" on="0"/>
        <pt x="216" y="1633" on="0"/>
        <pt x="152" y="1633" on="1"/>
        <pt x="89" y="1633" on="0"/>
        <pt x="2" y="1721" on="0"/>
      </contour>
      <contour>
        <pt x="80" y="2" on="0"/>
        <pt x="79" y="62" on="0"/>
        <pt x="87" y="74" on="1"/>
        <pt x="219" y="84" on="0"/>
        <pt x="231" y="114" on="1"/>
        <pt x="243" y="145" on="0"/>
        <pt x="249" y="235" on="0"/>
        <pt x="249" y="325" on="1"/>
        <pt x="249" y="1149" on="1"/>
        <pt x="249" y="1210" on="0"/>
        <pt x="247" y="1269" on="0"/>
        <pt x="239" y="1338" on="0"/>
        <pt x="231" y="1360" on="1"/>
        <pt x="219" y="1390" on="0"/>
        <pt x="87" y="1400" on="1"/>
        <pt x="79" y="1412" on="0"/>
        <pt x="80" y="1472" on="0"/>
        <pt x="87" y="1483" on="1"/>
        <pt x="240" y="1467" on="0"/>
        <pt x="408" y="1467" on="1"/>
        <pt x="571" y="1467" on="0"/>
        <pt x="724" y="1483" on="1"/>
        <pt x="731" y="1472" on="0"/>
        <pt x="732" y="1412" on="0"/>
        <pt x="724" y="1400" on="1"/>
        <pt x="592" y="1390" on="0"/>
        <pt x="580" y="1360" on="1"/>
        <pt x="568" y="1329" on="0"/>
        <pt x="562" y="1239" on="0"/>
        <pt x="562" y="1149" on="1"/>
        <pt x="562" y="325" on="1"/>
        <pt x="562" y="278" on="0"/>
        <pt x="563" y="233" on="0"/>
        <pt x="566" y="171" on="0"/>
        <pt x="574" y="130" on="0"/>
        <pt x="580" y="114" on="1"/>
        <pt x="592" y="84" on="0"/>
        <pt x="724" y="74" on="1"/>
        <pt x="732" y="62" on="0"/>
        <pt x="731" y="2" on="0"/>
        <pt x="724" y="-9" on="1"/>
        <pt x="571" y="7" on="0"/>
        <pt x="403" y="7" on="1"/>
        <pt x="240" y="7" on="0"/>
        <pt x="87" y="-9" on="1"/>
      </contour>
      <contour>
        <pt x="506" y="1785" on="1"/>
        <pt x="506" y="1849" on="0"/>
        <pt x="594" y="1935" on="0"/>
        <pt x="659" y="1935" on="1"/>
        <pt x="690" y="1935" on="0"/>
        <pt x="746" y="1912" on="0"/>
        <pt x="787" y="1872" on="0"/>
        <pt x="811" y="1817" on="0"/>
        <pt x="811" y="1785" on="1"/>
        <pt x="811" y="1721" on="0"/>
        <pt x="722" y="1633" on="0"/>
        <pt x="659" y="1633" on="1"/>
        <pt x="617" y="1633" on="0"/>
        <pt x="547" y="1673" on="0"/>
        <pt x="506" y="1743" on="0"/>
      </contour>
    </TTGlyph>
    <TTGlyph name="Igrave" xMin="77" yMin="-9" xMax="729" yMax="1947">
      <contour>
        <pt x="78" y="2" on="0"/>
        <pt x="77" y="62" on="0"/>
        <pt x="85" y="74" on="1"/>
        <pt x="217" y="84" on="0"/>
        <pt x="228" y="114" on="1"/>
        <pt x="241" y="145" on="0"/>
        <pt x="246" y="235" on="0"/>
        <pt x="246" y="325" on="1"/>
        <pt x="246" y="1149" on="1"/>
        <pt x="246" y="1210" on="0"/>
        <pt x="245" y="1269" on="0"/>
        <pt x="237" y="1338" on="0"/>
        <pt x="228" y="1360" on="1"/>
        <pt x="217" y="1390" on="0"/>
        <pt x="85" y="1400" on="1"/>
        <pt x="77" y="1412" on="0"/>
        <pt x="78" y="1472" on="0"/>
        <pt x="85" y="1483" on="1"/>
        <pt x="238" y="1467" on="0"/>
        <pt x="405" y="1467" on="1"/>
        <pt x="568" y="1467" on="0"/>
        <pt x="721" y="1483" on="1"/>
        <pt x="728" y="1472" on="0"/>
        <pt x="729" y="1412" on="0"/>
        <pt x="721" y="1400" on="1"/>
        <pt x="590" y="1390" on="0"/>
        <pt x="578" y="1360" on="1"/>
        <pt x="566" y="1329" on="0"/>
        <pt x="560" y="1239" on="0"/>
        <pt x="560" y="1149" on="1"/>
        <pt x="560" y="325" on="1"/>
        <pt x="560" y="278" on="0"/>
        <pt x="561" y="233" on="0"/>
        <pt x="564" y="171" on="0"/>
        <pt x="571" y="130" on="0"/>
        <pt x="578" y="114" on="1"/>
        <pt x="590" y="84" on="0"/>
        <pt x="721" y="74" on="1"/>
        <pt x="729" y="62" on="0"/>
        <pt x="728" y="2" on="0"/>
        <pt x="721" y="-9" on="1"/>
        <pt x="568" y="7" on="0"/>
        <pt x="401" y="7" on="1"/>
        <pt x="238" y="7" on="0"/>
        <pt x="85" y="-9" on="1"/>
      </contour>
      <contour>
        <pt x="128" y="1861" on="1"/>
        <pt x="128" y="1884" on="0"/>
        <pt x="155" y="1918" on="0"/>
        <pt x="196" y="1937" on="0"/>
        <pt x="236" y="1947" on="0"/>
        <pt x="253" y="1947" on="1"/>
        <pt x="276" y="1947" on="0"/>
        <pt x="293" y="1938" on="1"/>
        <pt x="342" y="1901" on="0"/>
        <pt x="472" y="1779" on="0"/>
        <pt x="562" y="1683" on="0"/>
        <pt x="562" y="1676" on="1"/>
        <pt x="562" y="1664" on="0"/>
        <pt x="542" y="1631" on="0"/>
        <pt x="531" y="1631" on="1"/>
        <pt x="518" y="1631" on="0"/>
        <pt x="391" y="1680" on="0"/>
        <pt x="244" y="1749" on="0"/>
        <pt x="128" y="1833" on="0"/>
      </contour>
    </TTGlyph>
    <TTGlyph name="J" xMin="-280" yMin="-488" xMax="716" yMax="1483">
      <contour>
        <pt x="-280" y="-352" on="1"/>
        <pt x="-280" y="-294" on="0"/>
        <pt x="-199" y="-202" on="0"/>
        <pt x="-146" y="-202" on="1"/>
        <pt x="-87" y="-202" on="0"/>
        <pt x="-18" y="-276" on="1"/>
        <pt x="-13" y="-280" on="0"/>
        <pt x="13" y="-308" on="0"/>
        <pt x="24" y="-318" on="0"/>
        <pt x="46" y="-337" on="0"/>
        <pt x="60" y="-345" on="0"/>
        <pt x="79" y="-352" on="0"/>
        <pt x="87" y="-352" on="1"/>
        <pt x="108" y="-352" on="0"/>
        <pt x="143" y="-336" on="0"/>
        <pt x="170" y="-301" on="0"/>
        <pt x="192" y="-261" on="0"/>
        <pt x="207" y="-195" on="0"/>
        <pt x="219" y="-135" on="0"/>
        <pt x="226" y="-41" on="0"/>
        <pt x="230" y="34" on="0"/>
        <pt x="232" y="150" on="0"/>
        <pt x="233" y="236" on="0"/>
        <pt x="233" y="302" on="1"/>
        <pt x="233" y="1149" on="1"/>
        <pt x="233" y="1210" on="0"/>
        <pt x="232" y="1269" on="0"/>
        <pt x="224" y="1338" on="0"/>
        <pt x="215" y="1360" on="1"/>
        <pt x="203" y="1390" on="0"/>
        <pt x="72" y="1400" on="1"/>
        <pt x="64" y="1412" on="0"/>
        <pt x="65" y="1472" on="0"/>
        <pt x="72" y="1483" on="1"/>
        <pt x="225" y="1467" on="0"/>
        <pt x="392" y="1467" on="1"/>
        <pt x="555" y="1467" on="0"/>
        <pt x="708" y="1483" on="1"/>
        <pt x="716" y="1471" on="0"/>
        <pt x="716" y="1439" on="1"/>
        <pt x="716" y="1411" on="0"/>
        <pt x="708" y="1400" on="1"/>
        <pt x="576" y="1390" on="0"/>
        <pt x="564" y="1360" on="1"/>
        <pt x="556" y="1338" on="0"/>
        <pt x="548" y="1269" on="0"/>
        <pt x="547" y="1210" on="0"/>
        <pt x="547" y="1149" on="1"/>
        <pt x="547" y="320" on="1"/>
        <pt x="547" y="131" on="0"/>
        <pt x="454" y="-173" on="0"/>
        <pt x="282" y="-379" on="0"/>
        <pt x="36" y="-488" on="0"/>
        <pt x="-116" y="-488" on="1"/>
        <pt x="-137" y="-488" on="0"/>
        <pt x="-190" y="-475" on="0"/>
        <pt x="-234" y="-456" on="0"/>
        <pt x="-244" y="-448" on="1"/>
        <pt x="-246" y="-446" on="0"/>
        <pt x="-256" y="-430" on="0"/>
        <pt x="-260" y="-423" on="0"/>
        <pt x="-269" y="-407" on="0"/>
        <pt x="-273" y="-396" on="0"/>
        <pt x="-278" y="-379" on="0"/>
        <pt x="-280" y="-361" on="0"/>
      </contour>
    </TTGlyph>
    <TTGlyph name="K" xMin="77" yMin="-18" xMax="1640" yMax="1483">
      <contour>
        <pt x="77" y="35" on="1"/>
        <pt x="77" y="62" on="0"/>
        <pt x="85" y="74" on="1"/>
        <pt x="217" y="84" on="0"/>
        <pt x="228" y="114" on="1"/>
        <pt x="241" y="145" on="0"/>
        <pt x="246" y="235" on="0"/>
        <pt x="246" y="325" on="1"/>
        <pt x="246" y="1149" on="1"/>
        <pt x="246" y="1210" on="0"/>
        <pt x="245" y="1269" on="0"/>
        <pt x="237" y="1338" on="0"/>
        <pt x="228" y="1360" on="1"/>
        <pt x="217" y="1390" on="0"/>
        <pt x="85" y="1400" on="1"/>
        <pt x="77" y="1411" on="0"/>
        <pt x="77" y="1439" on="1"/>
        <pt x="78" y="1441" on="0"/>
        <pt x="78" y="1442" on="1"/>
        <pt x="78" y="1472" on="0"/>
        <pt x="85" y="1483" on="1"/>
        <pt x="238" y="1467" on="0"/>
        <pt x="405" y="1467" on="1"/>
        <pt x="568" y="1467" on="0"/>
        <pt x="721" y="1483" on="1"/>
        <pt x="728" y="1472" on="0"/>
        <pt x="729" y="1412" on="0"/>
        <pt x="721" y="1400" on="1"/>
        <pt x="590" y="1390" on="0"/>
        <pt x="578" y="1360" on="1"/>
        <pt x="566" y="1329" on="0"/>
        <pt x="560" y="1239" on="0"/>
        <pt x="560" y="1149" on="1"/>
        <pt x="560" y="755" on="1"/>
        <pt x="718" y="880" on="0"/>
        <pt x="793" y="959" on="1"/>
        <pt x="817" y="984" on="0"/>
        <pt x="910" y="1077" on="0"/>
        <pt x="947" y="1115" on="0"/>
        <pt x="1009" y="1181" on="0"/>
        <pt x="1057" y="1240" on="0"/>
        <pt x="1084" y="1277" on="1"/>
        <pt x="1107" y="1306" on="0"/>
        <pt x="1107" y="1351" on="1"/>
        <pt x="1107" y="1367" on="0"/>
        <pt x="1078" y="1390" on="0"/>
        <pt x="1032" y="1399" on="0"/>
        <pt x="998" y="1402" on="0"/>
        <pt x="981" y="1402" on="1"/>
        <pt x="973" y="1415" on="0"/>
        <pt x="971" y="1468" on="0"/>
        <pt x="977" y="1483" on="1"/>
        <pt x="1003" y="1481" on="0"/>
        <pt x="1128" y="1473" on="0"/>
        <pt x="1231" y="1467" on="0"/>
        <pt x="1268" y="1467" on="1"/>
        <pt x="1401" y="1467" on="0"/>
        <pt x="1546" y="1483" on="1"/>
        <pt x="1551" y="1472" on="0"/>
        <pt x="1549" y="1414" on="0"/>
        <pt x="1541" y="1404" on="1"/>
        <pt x="1526" y="1403" on="0"/>
        <pt x="1502" y="1399" on="0"/>
        <pt x="1433" y="1385" on="0"/>
        <pt x="1378" y="1365" on="0"/>
        <pt x="1311" y="1329" on="0"/>
        <pt x="1288" y="1306" on="1"/>
        <pt x="1035" y="1048" on="0"/>
        <pt x="867" y="871" on="1"/>
        <pt x="850" y="852" on="0"/>
        <pt x="860" y="836" on="1"/>
        <pt x="1263" y="291" on="1"/>
        <pt x="1310" y="232" on="0"/>
        <pt x="1419" y="144" on="0"/>
        <pt x="1502" y="102" on="0"/>
        <pt x="1587" y="78" on="0"/>
        <pt x="1623" y="74" on="0"/>
        <pt x="1635" y="74" on="1"/>
        <pt x="1640" y="62" on="0"/>
        <pt x="1640" y="41" on="1"/>
        <pt x="1640" y="35" on="0"/>
        <pt x="1640" y="28" on="1"/>
        <pt x="1638" y="-3" on="0"/>
        <pt x="1635" y="-9" on="1"/>
        <pt x="1505" y="-18" on="0"/>
        <pt x="1342" y="-18" on="1"/>
        <pt x="1280" y="-18" on="0"/>
        <pt x="1168" y="12" on="0"/>
        <pt x="1084" y="64" on="0"/>
        <pt x="1022" y="119" on="0"/>
        <pt x="999" y="150" on="1"/>
        <pt x="974" y="185" on="0"/>
        <pt x="823" y="386" on="0"/>
        <pt x="641" y="628" on="0"/>
        <pt x="605" y="676" on="1"/>
        <pt x="596" y="685" on="0"/>
        <pt x="582" y="685" on="1"/>
        <pt x="567" y="685" on="0"/>
        <pt x="560" y="672" on="1"/>
        <pt x="560" y="325" on="1"/>
        <pt x="560" y="278" on="0"/>
        <pt x="561" y="233" on="0"/>
        <pt x="564" y="171" on="0"/>
        <pt x="571" y="130" on="0"/>
        <pt x="578" y="114" on="1"/>
        <pt x="590" y="84" on="0"/>
        <pt x="721" y="74" on="1"/>
        <pt x="729" y="62" on="0"/>
        <pt x="728" y="2" on="0"/>
        <pt x="721" y="-9" on="1"/>
        <pt x="568" y="7" on="0"/>
        <pt x="401" y="7" on="1"/>
        <pt x="238" y="7" on="0"/>
        <pt x="85" y="-9" on="1"/>
        <pt x="77" y="2" on="0"/>
      </contour>
    </TTGlyph>
    <TTGlyph name="L" xMin="77" yMin="-7" xMax="1299" yMax="1483">
      <contour>
        <pt x="77" y="37" on="1"/>
        <pt x="77" y="64" on="0"/>
        <pt x="85" y="76" on="1"/>
        <pt x="218" y="86" on="0"/>
        <pt x="228" y="114" on="1"/>
        <pt x="241" y="145" on="0"/>
        <pt x="246" y="235" on="0"/>
        <pt x="246" y="325" on="1"/>
        <pt x="246" y="1149" on="1"/>
        <pt x="246" y="1210" on="0"/>
        <pt x="245" y="1269" on="0"/>
        <pt x="237" y="1338" on="0"/>
        <pt x="228" y="1360" on="1"/>
        <pt x="217" y="1390" on="0"/>
        <pt x="85" y="1400" on="1"/>
        <pt x="77" y="1411" on="0"/>
        <pt x="77" y="1439" on="1"/>
        <pt x="78" y="1441" on="0"/>
        <pt x="78" y="1442" on="1"/>
        <pt x="78" y="1472" on="0"/>
        <pt x="85" y="1483" on="1"/>
        <pt x="238" y="1467" on="0"/>
        <pt x="405" y="1467" on="1"/>
        <pt x="568" y="1467" on="0"/>
        <pt x="721" y="1483" on="1"/>
        <pt x="728" y="1472" on="0"/>
        <pt x="729" y="1412" on="0"/>
        <pt x="721" y="1400" on="1"/>
        <pt x="590" y="1390" on="0"/>
        <pt x="578" y="1360" on="1"/>
        <pt x="566" y="1329" on="0"/>
        <pt x="560" y="1239" on="0"/>
        <pt x="560" y="1149" on="1"/>
        <pt x="560" y="316" on="1"/>
        <pt x="560" y="184" on="0"/>
        <pt x="578" y="139" on="1"/>
        <pt x="584" y="124" on="0"/>
        <pt x="633" y="103" on="0"/>
        <pt x="692" y="94" on="0"/>
        <pt x="724" y="94" on="1"/>
        <pt x="871" y="94" on="1"/>
        <pt x="1006" y="94" on="0"/>
        <pt x="1080" y="168" on="1"/>
        <pt x="1145" y="233" on="0"/>
        <pt x="1201" y="381" on="1"/>
        <pt x="1204" y="394" on="0"/>
        <pt x="1232" y="394" on="1"/>
        <pt x="1240" y="394" on="0"/>
        <pt x="1262" y="392" on="0"/>
        <pt x="1281" y="388" on="0"/>
        <pt x="1297" y="383" on="0"/>
        <pt x="1299" y="381" on="1"/>
        <pt x="1294" y="367" on="0"/>
        <pt x="1251" y="246" on="0"/>
        <pt x="1232" y="190" on="0"/>
        <pt x="1201" y="94" on="0"/>
        <pt x="1183" y="24" on="0"/>
        <pt x="1178" y="-4" on="1"/>
        <pt x="405" y="-4" on="1"/>
        <pt x="336" y="-4" on="0"/>
        <pt x="190" y="-6" on="0"/>
        <pt x="95" y="-7" on="0"/>
        <pt x="85" y="-7" on="1"/>
        <pt x="77" y="4" on="0"/>
      </contour>
    </TTGlyph>
    <TTGlyph name="M" xMin="37" yMin="-9" xMax="1975" yMax="1483">
      <contour>
        <pt x="37" y="33" on="1"/>
        <pt x="37" y="57" on="0"/>
        <pt x="43" y="72" on="1"/>
        <pt x="55" y="72" on="0"/>
        <pt x="106" y="81" on="0"/>
        <pt x="170" y="99" on="0"/>
        <pt x="224" y="132" on="0"/>
        <pt x="233" y="152" on="1"/>
        <pt x="239" y="167" on="0"/>
        <pt x="258" y="315" on="0"/>
        <pt x="260" y="349" on="1"/>
        <pt x="266" y="465" on="0"/>
        <pt x="282" y="886" on="0"/>
        <pt x="297" y="1274" on="0"/>
        <pt x="298" y="1301" on="1"/>
        <pt x="298" y="1335" on="0"/>
        <pt x="287" y="1351" on="1"/>
        <pt x="274" y="1368" on="0"/>
        <pt x="172" y="1400" on="0"/>
        <pt x="141" y="1400" on="1"/>
        <pt x="132" y="1415" on="0"/>
        <pt x="136" y="1478" on="0"/>
        <pt x="141" y="1483" on="1"/>
        <pt x="178" y="1481" on="0"/>
        <pt x="325" y="1469" on="0"/>
        <pt x="383" y="1469" on="1"/>
        <pt x="427" y="1469" on="0"/>
        <pt x="592" y="1482" on="0"/>
        <pt x="618" y="1483" on="1"/>
        <pt x="783" y="1119" on="0"/>
        <pt x="1042" y="533" on="1"/>
        <pt x="1048" y="529" on="0"/>
        <pt x="1051" y="529" on="1"/>
        <pt x="1052" y="529" on="0"/>
        <pt x="1060" y="540" on="0"/>
        <pt x="1060" y="542" on="1"/>
        <pt x="1228" y="955" on="0"/>
        <pt x="1324" y="1223" on="1"/>
        <pt x="1340" y="1266" on="0"/>
        <pt x="1377" y="1391" on="0"/>
        <pt x="1387" y="1433" on="1"/>
        <pt x="1398" y="1474" on="1"/>
        <pt x="1412" y="1472" on="0"/>
        <pt x="1605" y="1467" on="0"/>
        <pt x="1640" y="1467" on="1"/>
        <pt x="1684" y="1467" on="0"/>
        <pt x="1874" y="1482" on="0"/>
        <pt x="1902" y="1483" on="1"/>
        <pt x="1909" y="1475" on="0"/>
        <pt x="1918" y="1412" on="0"/>
        <pt x="1911" y="1398" on="1"/>
        <pt x="1891" y="1398" on="0"/>
        <pt x="1809" y="1383" on="0"/>
        <pt x="1794" y="1373" on="1"/>
        <pt x="1776" y="1360" on="0"/>
        <pt x="1761" y="1324" on="0"/>
        <pt x="1763" y="1281" on="1"/>
        <pt x="1765" y="1223" on="0"/>
        <pt x="1777" y="865" on="0"/>
        <pt x="1791" y="465" on="0"/>
        <pt x="1796" y="340" on="1"/>
        <pt x="1797" y="336" on="0"/>
        <pt x="1799" y="289" on="0"/>
        <pt x="1800" y="277" on="0"/>
        <pt x="1802" y="236" on="0"/>
        <pt x="1804" y="221" on="0"/>
        <pt x="1807" y="188" on="0"/>
        <pt x="1811" y="170" on="0"/>
        <pt x="1816" y="144" on="0"/>
        <pt x="1822" y="124" on="0"/>
        <pt x="1826" y="114" on="1"/>
        <pt x="1834" y="94" on="0"/>
        <pt x="1937" y="74" on="0"/>
        <pt x="1967" y="74" on="1"/>
        <pt x="1972" y="60" on="0"/>
        <pt x="1974" y="34" on="1"/>
        <pt x="1974" y="28" on="0"/>
        <pt x="1975" y="22" on="1"/>
        <pt x="1975" y="4" on="0"/>
        <pt x="1971" y="-9" on="1"/>
        <pt x="1953" y="-8" on="0"/>
        <pt x="1724" y="9" on="0"/>
        <pt x="1667" y="9" on="1"/>
        <pt x="1621" y="9" on="0"/>
        <pt x="1495" y="2" on="0"/>
        <pt x="1352" y="-7" on="0"/>
        <pt x="1315" y="-9" on="1"/>
        <pt x="1308" y="-2" on="0"/>
        <pt x="1305" y="61" on="0"/>
        <pt x="1310" y="74" on="1"/>
        <pt x="1344" y="74" on="0"/>
        <pt x="1454" y="96" on="0"/>
        <pt x="1467" y="116" on="1"/>
        <pt x="1475" y="129" on="0"/>
        <pt x="1485" y="177" on="0"/>
        <pt x="1485" y="195" on="1"/>
        <pt x="1485" y="291" on="0"/>
        <pt x="1483" y="332" on="1"/>
        <pt x="1460" y="1113" on="1"/>
        <pt x="1460" y="1172" on="0"/>
        <pt x="1445" y="1172" on="1"/>
        <pt x="1440" y="1172" on="0"/>
        <pt x="1434" y="1156" on="1"/>
        <pt x="1039" y="90" on="1"/>
        <pt x="1035" y="78" on="0"/>
        <pt x="1006" y="35" on="0"/>
        <pt x="961" y="-4" on="0"/>
        <pt x="943" y="-4" on="1"/>
        <pt x="936" y="-4" on="0"/>
        <pt x="923" y="0" on="1"/>
        <pt x="424" y="1172" on="1"/>
        <pt x="418" y="993" on="0"/>
        <pt x="407" y="671" on="0"/>
        <pt x="400" y="455" on="0"/>
        <pt x="394" y="300" on="1"/>
        <pt x="394" y="292" on="0"/>
        <pt x="394" y="284" on="1"/>
        <pt x="394" y="254" on="0"/>
        <pt x="396" y="212" on="1"/>
        <pt x="400" y="158" on="0"/>
        <pt x="403" y="146" on="1"/>
        <pt x="412" y="116" on="0"/>
        <pt x="567" y="74" on="0"/>
        <pt x="598" y="74" on="1"/>
        <pt x="604" y="61" on="0"/>
        <pt x="607" y="9" on="0"/>
        <pt x="603" y="-9" on="1"/>
        <pt x="576" y="-8" on="0"/>
        <pt x="382" y="9" on="0"/>
        <pt x="325" y="9" on="1"/>
        <pt x="267" y="9" on="0"/>
        <pt x="84" y="-7" on="0"/>
        <pt x="45" y="-9" on="1"/>
        <pt x="37" y="3" on="0"/>
      </contour>
    </TTGlyph>
    <TTGlyph name="N" xMin="66" yMin="-11" xMax="1660" yMax="1485">
      <contour>
        <pt x="66" y="20" on="1"/>
        <pt x="66" y="27" on="0"/>
        <pt x="66" y="34" on="1"/>
        <pt x="66" y="48" on="0"/>
        <pt x="67" y="58" on="1"/>
        <pt x="69" y="74" on="0"/>
        <pt x="72" y="74" on="1"/>
        <pt x="107" y="74" on="0"/>
        <pt x="239" y="106" on="0"/>
        <pt x="251" y="132" on="1"/>
        <pt x="258" y="148" on="0"/>
        <pt x="271" y="224" on="0"/>
        <pt x="278" y="316" on="0"/>
        <pt x="278" y="358" on="1"/>
        <pt x="278" y="1151" on="1"/>
        <pt x="278" y="1206" on="0"/>
        <pt x="257" y="1324" on="0"/>
        <pt x="237" y="1353" on="1"/>
        <pt x="224" y="1372" on="0"/>
        <pt x="118" y="1400" on="0"/>
        <pt x="90" y="1400" on="1"/>
        <pt x="81" y="1400" on="0"/>
        <pt x="77" y="1474" on="0"/>
        <pt x="85" y="1483" on="1"/>
        <pt x="105" y="1482" on="0"/>
        <pt x="173" y="1476" on="0"/>
        <pt x="226" y="1471" on="0"/>
        <pt x="303" y="1467" on="0"/>
        <pt x="338" y="1467" on="1"/>
        <pt x="457" y="1467" on="0"/>
        <pt x="582" y="1483" on="1"/>
        <pt x="612" y="1422" on="0"/>
        <pt x="782" y="1191" on="0"/>
        <pt x="949" y="985" on="0"/>
        <pt x="1231" y="644" on="0"/>
        <pt x="1301" y="556" on="1"/>
        <pt x="1306" y="571" on="0"/>
        <pt x="1306" y="647" on="1"/>
        <pt x="1306" y="1066" on="1"/>
        <pt x="1306" y="1142" on="0"/>
        <pt x="1292" y="1330" on="0"/>
        <pt x="1281" y="1353" on="1"/>
        <pt x="1273" y="1371" on="0"/>
        <pt x="1190" y="1395" on="0"/>
        <pt x="1121" y="1402" on="0"/>
        <pt x="1100" y="1402" on="1"/>
        <pt x="1097" y="1402" on="0"/>
        <pt x="1093" y="1435" on="0"/>
        <pt x="1095" y="1476" on="0"/>
        <pt x="1100" y="1485" on="1"/>
        <pt x="1140" y="1483" on="0"/>
        <pt x="1316" y="1467" on="0"/>
        <pt x="1373" y="1467" on="1"/>
        <pt x="1430" y="1467" on="0"/>
        <pt x="1630" y="1484" on="0"/>
        <pt x="1655" y="1485" on="1"/>
        <pt x="1660" y="1472" on="0"/>
        <pt x="1660" y="1415" on="0"/>
        <pt x="1651" y="1400" on="1"/>
        <pt x="1630" y="1400" on="0"/>
        <pt x="1565" y="1395" on="0"/>
        <pt x="1473" y="1370" on="0"/>
        <pt x="1465" y="1348" on="1"/>
        <pt x="1457" y="1326" on="0"/>
        <pt x="1443" y="1138" on="0"/>
        <pt x="1443" y="1073" on="1"/>
        <pt x="1443" y="311" on="1"/>
        <pt x="1443" y="231" on="0"/>
        <pt x="1452" y="-2" on="1"/>
        <pt x="1443" y="-11" on="0"/>
        <pt x="1396" y="-11" on="1"/>
        <pt x="1366" y="-11" on="0"/>
        <pt x="1326" y="40" on="1"/>
        <pt x="414" y="1163" on="1"/>
        <pt x="414" y="352" on="1"/>
        <pt x="414" y="293" on="0"/>
        <pt x="430" y="159" on="0"/>
        <pt x="439" y="134" on="1"/>
        <pt x="444" y="120" on="0"/>
        <pt x="498" y="95" on="0"/>
        <pt x="563" y="83" on="0"/>
        <pt x="613" y="76" on="0"/>
        <pt x="623" y="76" on="1"/>
        <pt x="632" y="61" on="0"/>
        <pt x="632" y="4" on="0"/>
        <pt x="627" y="-9" on="1"/>
        <pt x="602" y="-8" on="0"/>
        <pt x="402" y="9" on="0"/>
        <pt x="345" y="9" on="1"/>
        <pt x="287" y="9" on="0"/>
        <pt x="112" y="-7" on="0"/>
        <pt x="72" y="-9" on="1"/>
        <pt x="67" y="0" on="0"/>
      </contour>
    </TTGlyph>
    <TTGlyph name="Ntilde" xMin="65" yMin="-11" xMax="1660" yMax="1913">
      <contour>
        <pt x="67" y="0" on="0"/>
        <pt x="65" y="41" on="0"/>
        <pt x="69" y="74" on="0"/>
        <pt x="72" y="74" on="1"/>
        <pt x="107" y="74" on="0"/>
        <pt x="239" y="106" on="0"/>
        <pt x="251" y="132" on="1"/>
        <pt x="258" y="148" on="0"/>
        <pt x="271" y="224" on="0"/>
        <pt x="278" y="316" on="0"/>
        <pt x="278" y="358" on="1"/>
        <pt x="278" y="1151" on="1"/>
        <pt x="278" y="1206" on="0"/>
        <pt x="257" y="1324" on="0"/>
        <pt x="237" y="1353" on="1"/>
        <pt x="224" y="1372" on="0"/>
        <pt x="118" y="1400" on="0"/>
        <pt x="90" y="1400" on="1"/>
        <pt x="81" y="1400" on="0"/>
        <pt x="77" y="1474" on="0"/>
        <pt x="85" y="1483" on="1"/>
        <pt x="105" y="1482" on="0"/>
        <pt x="173" y="1476" on="0"/>
        <pt x="226" y="1471" on="0"/>
        <pt x="303" y="1467" on="0"/>
        <pt x="338" y="1467" on="1"/>
        <pt x="457" y="1467" on="0"/>
        <pt x="582" y="1483" on="1"/>
        <pt x="612" y="1422" on="0"/>
        <pt x="782" y="1191" on="0"/>
        <pt x="949" y="985" on="0"/>
        <pt x="1231" y="644" on="0"/>
        <pt x="1301" y="556" on="1"/>
        <pt x="1306" y="571" on="0"/>
        <pt x="1306" y="647" on="1"/>
        <pt x="1306" y="1066" on="1"/>
        <pt x="1306" y="1142" on="0"/>
        <pt x="1292" y="1330" on="0"/>
        <pt x="1281" y="1353" on="1"/>
        <pt x="1273" y="1371" on="0"/>
        <pt x="1190" y="1395" on="0"/>
        <pt x="1121" y="1402" on="0"/>
        <pt x="1100" y="1402" on="1"/>
        <pt x="1097" y="1402" on="0"/>
        <pt x="1093" y="1435" on="0"/>
        <pt x="1095" y="1476" on="0"/>
        <pt x="1100" y="1485" on="1"/>
        <pt x="1140" y="1483" on="0"/>
        <pt x="1316" y="1467" on="0"/>
        <pt x="1373" y="1467" on="1"/>
        <pt x="1430" y="1467" on="0"/>
        <pt x="1630" y="1484" on="0"/>
        <pt x="1655" y="1485" on="1"/>
        <pt x="1660" y="1472" on="0"/>
        <pt x="1660" y="1415" on="0"/>
        <pt x="1651" y="1400" on="1"/>
        <pt x="1630" y="1400" on="0"/>
        <pt x="1565" y="1395" on="0"/>
        <pt x="1473" y="1370" on="0"/>
        <pt x="1465" y="1348" on="1"/>
        <pt x="1457" y="1326" on="0"/>
        <pt x="1443" y="1138" on="0"/>
        <pt x="1443" y="1073" on="1"/>
        <pt x="1443" y="311" on="1"/>
        <pt x="1443" y="231" on="0"/>
        <pt x="1452" y="-2" on="1"/>
        <pt x="1443" y="-11" on="0"/>
        <pt x="1396" y="-11" on="1"/>
        <pt x="1366" y="-11" on="0"/>
        <pt x="1326" y="40" on="1"/>
        <pt x="414" y="1163" on="1"/>
        <pt x="414" y="352" on="1"/>
        <pt x="414" y="293" on="0"/>
        <pt x="430" y="159" on="0"/>
        <pt x="439" y="134" on="1"/>
        <pt x="444" y="120" on="0"/>
        <pt x="498" y="95" on="0"/>
        <pt x="563" y="83" on="0"/>
        <pt x="613" y="76" on="0"/>
        <pt x="623" y="76" on="1"/>
        <pt x="632" y="61" on="0"/>
        <pt x="632" y="4" on="0"/>
        <pt x="627" y="-9" on="1"/>
        <pt x="602" y="-8" on="0"/>
        <pt x="402" y="9" on="0"/>
        <pt x="345" y="9" on="1"/>
        <pt x="287" y="9" on="0"/>
        <pt x="112" y="-7" on="0"/>
        <pt x="72" y="-9" on="1"/>
      </contour>
      <contour>
        <pt x="448" y="1698" on="1"/>
        <pt x="448" y="1749" on="0"/>
        <pt x="491" y="1805" on="1"/>
        <pt x="577" y="1913" on="0"/>
        <pt x="699" y="1913" on="1"/>
        <pt x="738" y="1913" on="0"/>
        <pt x="815" y="1892" on="0"/>
        <pt x="862" y="1870" on="0"/>
        <pt x="900" y="1848" on="1"/>
        <pt x="1030" y="1776" on="0"/>
        <pt x="1086" y="1776" on="1"/>
        <pt x="1128" y="1776" on="0"/>
        <pt x="1201" y="1809" on="0"/>
        <pt x="1241" y="1849" on="0"/>
        <pt x="1276" y="1888" on="0"/>
        <pt x="1281" y="1891" on="1"/>
        <pt x="1289" y="1891" on="0"/>
        <pt x="1299" y="1869" on="0"/>
        <pt x="1299" y="1859" on="1"/>
        <pt x="1299" y="1808" on="0"/>
        <pt x="1257" y="1752" on="1"/>
        <pt x="1168" y="1642" on="0"/>
        <pt x="1048" y="1642" on="1"/>
        <pt x="1009" y="1642" on="0"/>
        <pt x="933" y="1663" on="0"/>
        <pt x="886" y="1685" on="0"/>
        <pt x="847" y="1707" on="1"/>
        <pt x="841" y="1710" on="0"/>
        <pt x="799" y="1734" on="0"/>
        <pt x="784" y="1741" on="0"/>
        <pt x="748" y="1760" on="0"/>
        <pt x="728" y="1767" on="0"/>
        <pt x="699" y="1777" on="0"/>
        <pt x="673" y="1781" on="0"/>
        <pt x="661" y="1781" on="1"/>
        <pt x="619" y="1781" on="0"/>
        <pt x="546" y="1747" on="0"/>
        <pt x="506" y="1707" on="0"/>
        <pt x="471" y="1667" on="0"/>
        <pt x="466" y="1664" on="1"/>
        <pt x="461" y="1664" on="0"/>
        <pt x="452" y="1677" on="0"/>
        <pt x="448" y="1692" on="0"/>
      </contour>
    </TTGlyph>
    <TTGlyph name="O" xMin="90" yMin="-22" xMax="1613" yMax="1494">
      <contour>
        <pt x="90" y="632" on="0"/>
        <pt x="90" y="837" on="0"/>
        <pt x="148" y="1035" on="0"/>
        <pt x="251" y="1201" on="0"/>
        <pt x="395" y="1342" on="0"/>
        <pt x="562" y="1439" on="0"/>
        <pt x="754" y="1494" on="0"/>
        <pt x="948" y="1494" on="0"/>
        <pt x="1140" y="1439" on="0"/>
        <pt x="1308" y="1342" on="0"/>
        <pt x="1452" y="1201" on="0"/>
        <pt x="1554" y="1035" on="0"/>
        <pt x="1613" y="837" on="0"/>
        <pt x="1613" y="632" on="0"/>
        <pt x="1554" y="435" on="0"/>
        <pt x="1452" y="269" on="0"/>
        <pt x="1308" y="129" on="0"/>
        <pt x="1140" y="32" on="0"/>
        <pt x="948" y="-22" on="0"/>
        <pt x="754" y="-22" on="0"/>
        <pt x="562" y="32" on="0"/>
        <pt x="395" y="129" on="0"/>
        <pt x="251" y="269" on="0"/>
        <pt x="148" y="435" on="0"/>
      </contour>
      <contour>
        <pt x="448" y="813" on="1"/>
        <pt x="448" y="724" on="0"/>
        <pt x="469" y="554" on="0"/>
        <pt x="512" y="385" on="0"/>
        <pt x="585" y="244" on="0"/>
        <pt x="681" y="135" on="0"/>
        <pt x="817" y="74" on="0"/>
        <pt x="898" y="74" on="1"/>
        <pt x="963" y="74" on="0"/>
        <pt x="1071" y="122" on="0"/>
        <pt x="1147" y="207" on="0"/>
        <pt x="1205" y="317" on="0"/>
        <pt x="1238" y="450" on="0"/>
        <pt x="1254" y="584" on="0"/>
        <pt x="1254" y="654" on="1"/>
        <pt x="1254" y="742" on="0"/>
        <pt x="1233" y="914" on="0"/>
        <pt x="1188" y="1083" on="0"/>
        <pt x="1113" y="1226" on="0"/>
        <pt x="1016" y="1336" on="0"/>
        <pt x="878" y="1398" on="0"/>
        <pt x="797" y="1398" on="1"/>
        <pt x="733" y="1398" on="0"/>
        <pt x="627" y="1349" on="0"/>
        <pt x="552" y="1263" on="0"/>
        <pt x="496" y="1152" on="0"/>
        <pt x="463" y="1018" on="0"/>
        <pt x="448" y="884" on="0"/>
      </contour>
    </TTGlyph>
    <TTGlyph name="OE" xMin="90" yMin="-7" xMax="2224" yMax="1487">
      <contour>
        <pt x="90" y="632" on="0"/>
        <pt x="90" y="837" on="0"/>
        <pt x="147" y="1034" on="0"/>
        <pt x="248" y="1198" on="0"/>
        <pt x="390" y="1336" on="0"/>
        <pt x="556" y="1432" on="0"/>
        <pt x="747" y="1485" on="0"/>
        <pt x="844" y="1485" on="1"/>
        <pt x="971" y="1485" on="0"/>
        <pt x="1299" y="1472" on="0"/>
        <pt x="1331" y="1472" on="1"/>
        <pt x="1385" y="1472" on="0"/>
        <pt x="2017" y="1487" on="0"/>
        <pt x="2059" y="1487" on="1"/>
        <pt x="2066" y="1437" on="0"/>
        <pt x="2087" y="1325" on="0"/>
        <pt x="2118" y="1185" on="0"/>
        <pt x="2124" y="1156" on="1"/>
        <pt x="2120" y="1153" on="0"/>
        <pt x="2101" y="1147" on="0"/>
        <pt x="2080" y="1145" on="0"/>
        <pt x="2072" y="1145" on="1"/>
        <pt x="2043" y="1145" on="0"/>
        <pt x="2036" y="1163" on="1"/>
        <pt x="2016" y="1215" on="0"/>
        <pt x="1978" y="1287" on="0"/>
        <pt x="1921" y="1355" on="0"/>
        <pt x="1844" y="1389" on="0"/>
        <pt x="1794" y="1389" on="1"/>
        <pt x="1608" y="1389" on="1"/>
        <pt x="1577" y="1389" on="0"/>
        <pt x="1538" y="1386" on="0"/>
        <pt x="1502" y="1374" on="0"/>
        <pt x="1496" y="1362" on="1"/>
        <pt x="1485" y="1335" on="0"/>
        <pt x="1485" y="1225" on="1"/>
        <pt x="1485" y="824" on="1"/>
        <pt x="1485" y="818" on="0"/>
        <pt x="1513" y="806" on="0"/>
        <pt x="1557" y="800" on="0"/>
        <pt x="1581" y="800" on="1"/>
        <pt x="1700" y="800" on="1"/>
        <pt x="1752" y="800" on="0"/>
        <pt x="1812" y="811" on="0"/>
        <pt x="1857" y="849" on="0"/>
        <pt x="1883" y="905" on="0"/>
        <pt x="1897" y="956" on="1"/>
        <pt x="1901" y="974" on="0"/>
        <pt x="1924" y="974" on="1"/>
        <pt x="1956" y="974" on="0"/>
        <pt x="1967" y="963" on="1"/>
        <pt x="1967" y="533" on="1"/>
        <pt x="1958" y="524" on="0"/>
        <pt x="1926" y="524" on="1"/>
        <pt x="1899" y="524" on="0"/>
        <pt x="1895" y="542" on="1"/>
        <pt x="1883" y="592" on="0"/>
        <pt x="1851" y="654" on="0"/>
        <pt x="1830" y="673" on="0"/>
        <pt x="1817" y="679" on="1"/>
        <pt x="1779" y="694" on="0"/>
        <pt x="1646" y="694" on="1"/>
        <pt x="1485" y="694" on="0"/>
        <pt x="1485" y="663" on="1"/>
        <pt x="1485" y="316" on="1"/>
        <pt x="1485" y="184" on="0"/>
        <pt x="1503" y="139" on="1"/>
        <pt x="1509" y="124" on="0"/>
        <pt x="1558" y="103" on="0"/>
        <pt x="1618" y="94" on="0"/>
        <pt x="1649" y="94" on="1"/>
        <pt x="1796" y="94" on="1"/>
        <pt x="1931" y="94" on="0"/>
        <pt x="2005" y="168" on="1"/>
        <pt x="2070" y="233" on="0"/>
        <pt x="2126" y="381" on="1"/>
        <pt x="2129" y="394" on="0"/>
        <pt x="2157" y="394" on="1"/>
        <pt x="2175" y="394" on="0"/>
        <pt x="2219" y="386" on="0"/>
        <pt x="2224" y="381" on="1"/>
        <pt x="2220" y="367" on="0"/>
        <pt x="2176" y="246" on="0"/>
        <pt x="2157" y="190" on="0"/>
        <pt x="2126" y="94" on="0"/>
        <pt x="2108" y="24" on="0"/>
        <pt x="2103" y="-4" on="1"/>
        <pt x="2102" y="-4" on="0"/>
        <pt x="1498" y="-7" on="0"/>
        <pt x="1317" y="-7" on="1"/>
        <pt x="1010" y="-7" on="1"/>
        <pt x="1009" y="-7" on="1"/>
        <pt x="1008" y="-7" on="1"/>
        <pt x="1007" y="-7" on="1"/>
        <pt x="1006" y="-7" on="1"/>
        <pt x="1005" y="-7" on="1"/>
        <pt x="1004" y="-7" on="1"/>
        <pt x="1005" y="-7" on="1"/>
        <pt x="1006" y="-7" on="1"/>
        <pt x="1007" y="-7" on="1"/>
        <pt x="1008" y="-7" on="1"/>
        <pt x="1009" y="-7" on="1"/>
        <pt x="1010" y="-7" on="1"/>
        <pt x="1011" y="-7" on="1"/>
        <pt x="1012" y="-7" on="1"/>
        <pt x="1013" y="-7" on="1"/>
        <pt x="1014" y="-7" on="1"/>
        <pt x="1015" y="-7" on="1"/>
        <pt x="1016" y="-7" on="1"/>
        <pt x="1017" y="-7" on="1"/>
        <pt x="1018" y="-7" on="1"/>
        <pt x="1019" y="-7" on="1"/>
        <pt x="1020" y="-7" on="1"/>
        <pt x="1021" y="-7" on="1"/>
        <pt x="1022" y="-7" on="1"/>
        <pt x="1023" y="-7" on="1"/>
        <pt x="1024" y="-7" on="1"/>
        <pt x="1025" y="-7" on="1"/>
        <pt x="1026" y="-7" on="1"/>
        <pt x="1027" y="-7" on="1"/>
        <pt x="1028" y="-7" on="1"/>
        <pt x="1029" y="-7" on="1"/>
        <pt x="1030" y="-7" on="1"/>
        <pt x="1031" y="-7" on="1"/>
        <pt x="1032" y="-7" on="1"/>
        <pt x="1033" y="-7" on="1"/>
        <pt x="1034" y="-7" on="1"/>
        <pt x="1035" y="-7" on="1"/>
        <pt x="1036" y="-7" on="1"/>
        <pt x="1037" y="-7" on="1"/>
        <pt x="1038" y="-7" on="1"/>
        <pt x="1039" y="-7" on="1"/>
        <pt x="1040" y="-7" on="1"/>
        <pt x="1041" y="-7" on="1"/>
        <pt x="1042" y="-7" on="1"/>
        <pt x="1043" y="-7" on="1"/>
        <pt x="1044" y="-7" on="1"/>
        <pt x="1045" y="-7" on="1"/>
        <pt x="1046" y="-7" on="1"/>
        <pt x="1047" y="-7" on="1"/>
        <pt x="1048" y="-7" on="1"/>
        <pt x="1049" y="-7" on="1"/>
        <pt x="1050" y="-7" on="1"/>
        <pt x="1051" y="-7" on="1"/>
        <pt x="1052" y="-7" on="1"/>
        <pt x="1053" y="-7" on="1"/>
        <pt x="1054" y="-7" on="1"/>
        <pt x="1055" y="-7" on="1"/>
        <pt x="1056" y="-7" on="1"/>
        <pt x="1057" y="-7" on="1"/>
        <pt x="1058" y="-7" on="1"/>
        <pt x="1059" y="-7" on="1"/>
        <pt x="1060" y="-7" on="1"/>
        <pt x="1061" y="-7" on="1"/>
        <pt x="1062" y="-7" on="1"/>
        <pt x="1061" y="-7" on="1"/>
        <pt x="1060" y="-7" on="1"/>
        <pt x="1059" y="-7" on="1"/>
        <pt x="1058" y="-7" on="1"/>
        <pt x="1057" y="-7" on="1"/>
        <pt x="1056" y="-7" on="1"/>
        <pt x="1055" y="-7" on="1"/>
        <pt x="1054" y="-7" on="1"/>
        <pt x="1053" y="-7" on="1"/>
        <pt x="1052" y="-7" on="1"/>
        <pt x="1051" y="-7" on="1"/>
        <pt x="1050" y="-7" on="1"/>
        <pt x="1049" y="-7" on="1"/>
        <pt x="1048" y="-7" on="1"/>
        <pt x="1047" y="-7" on="1"/>
        <pt x="1046" y="-7" on="1"/>
        <pt x="1045" y="-7" on="1"/>
        <pt x="1044" y="-7" on="1"/>
        <pt x="1043" y="-7" on="1"/>
        <pt x="1042" y="-7" on="1"/>
        <pt x="1041" y="-7" on="1"/>
        <pt x="1040" y="-7" on="1"/>
        <pt x="1039" y="-7" on="1"/>
        <pt x="1038" y="-7" on="1"/>
        <pt x="1037" y="-7" on="1"/>
        <pt x="1036" y="-7" on="1"/>
        <pt x="1035" y="-7" on="1"/>
        <pt x="1034" y="-7" on="1"/>
        <pt x="1033" y="-7" on="1"/>
        <pt x="1032" y="-7" on="1"/>
        <pt x="1031" y="-7" on="1"/>
        <pt x="1030" y="-7" on="1"/>
        <pt x="1029" y="-7" on="1"/>
        <pt x="1028" y="-7" on="1"/>
        <pt x="1027" y="-7" on="1"/>
        <pt x="1026" y="-7" on="1"/>
        <pt x="1025" y="-7" on="1"/>
        <pt x="1024" y="-7" on="1"/>
        <pt x="1023" y="-7" on="1"/>
        <pt x="1022" y="-7" on="1"/>
        <pt x="1021" y="-7" on="1"/>
        <pt x="1020" y="-7" on="1"/>
        <pt x="1019" y="-7" on="1"/>
        <pt x="1018" y="-7" on="1"/>
        <pt x="1017" y="-7" on="1"/>
        <pt x="1016" y="-7" on="1"/>
        <pt x="1015" y="-7" on="1"/>
        <pt x="1014" y="-7" on="1"/>
        <pt x="1013" y="-7" on="1"/>
        <pt x="1012" y="-7" on="1"/>
        <pt x="1011" y="-7" on="1"/>
        <pt x="1010" y="-7" on="1"/>
        <pt x="1009" y="-7" on="1"/>
        <pt x="1008" y="-7" on="1"/>
        <pt x="1007" y="-7" on="1"/>
        <pt x="1006" y="-7" on="1"/>
        <pt x="1005" y="-7" on="1"/>
        <pt x="1004" y="-7" on="1"/>
        <pt x="1003" y="-7" on="1"/>
        <pt x="1002" y="-7" on="1"/>
        <pt x="1001" y="-7" on="1"/>
        <pt x="1000" y="-7" on="1"/>
        <pt x="999" y="-7" on="1"/>
        <pt x="998" y="-7" on="1"/>
        <pt x="997" y="-7" on="1"/>
        <pt x="996" y="-7" on="1"/>
        <pt x="995" y="-7" on="1"/>
        <pt x="994" y="-7" on="1"/>
        <pt x="993" y="-7" on="1"/>
        <pt x="992" y="-7" on="1"/>
        <pt x="991" y="-7" on="1"/>
        <pt x="990" y="-7" on="1"/>
        <pt x="989" y="-7" on="1"/>
        <pt x="988" y="-7" on="1"/>
        <pt x="987" y="-7" on="1"/>
        <pt x="986" y="-7" on="1"/>
        <pt x="985" y="-7" on="1"/>
        <pt x="984" y="-7" on="1"/>
        <pt x="983" y="-7" on="1"/>
        <pt x="982" y="-7" on="1"/>
        <pt x="981" y="-7" on="1"/>
        <pt x="980" y="-7" on="1"/>
        <pt x="979" y="-7" on="1"/>
        <pt x="978" y="-7" on="1"/>
        <pt x="977" y="-7" on="1"/>
        <pt x="976" y="-7" on="1"/>
        <pt x="975" y="-7" on="1"/>
        <pt x="974" y="-7" on="1"/>
        <pt x="973" y="-7" on="1"/>
        <pt x="972" y="-7" on="1"/>
        <pt x="971" y="-7" on="1"/>
        <pt x="970" y="-7" on="1"/>
        <pt x="969" y="-7" on="1"/>
        <pt x="968" y="-7" on="1"/>
        <pt x="967" y="-7" on="1"/>
        <pt x="966" y="-7" on="1"/>
        <pt x="965" y="-7" on="1"/>
        <pt x="964" y="-7" on="1"/>
        <pt x="963" y="-7" on="1"/>
        <pt x="962" y="-7" on="1"/>
        <pt x="961" y="-7" on="1"/>
        <pt x="960" y="-7" on="1"/>
        <pt x="959" y="-7" on="1"/>
        <pt x="958" y="-7" on="1"/>
        <pt x="957" y="-7" on="1"/>
        <pt x="956" y="-7" on="1"/>
        <pt x="955" y="-7" on="1"/>
        <pt x="954" y="-7" on="1"/>
        <pt x="953" y="-7" on="1"/>
        <pt x="952" y="-7" on="1"/>
        <pt x="951" y="-7" on="1"/>
        <pt x="950" y="-7" on="1"/>
        <pt x="949" y="-7" on="1"/>
        <pt x="948" y="-7" on="1"/>
        <pt x="947" y="-7" on="1"/>
        <pt x="946" y="-7" on="1"/>
        <pt x="945" y="-7" on="1"/>
        <pt x="944" y="-7" on="1"/>
        <pt x="943" y="-7" on="1"/>
        <pt x="942" y="-7" on="1"/>
        <pt x="941" y="-7" on="1"/>
        <pt x="940" y="-7" on="1"/>
        <pt x="939" y="-7" on="1"/>
        <pt x="938" y="-7" on="1"/>
        <pt x="937" y="-7" on="1"/>
        <pt x="936" y="-7" on="1"/>
        <pt x="935" y="-7" on="1"/>
        <pt x="934" y="-7" on="1"/>
        <pt x="933" y="-7" on="1"/>
        <pt x="932" y="-7" on="1"/>
        <pt x="931" y="-7" on="1"/>
        <pt x="930" y="-7" on="1"/>
        <pt x="929" y="-7" on="1"/>
        <pt x="928" y="-7" on="1"/>
        <pt x="927" y="-7" on="1"/>
        <pt x="926" y="-7" on="1"/>
        <pt x="925" y="-7" on="1"/>
        <pt x="924" y="-7" on="1"/>
        <pt x="923" y="-7" on="1"/>
        <pt x="922" y="-7" on="1"/>
        <pt x="921" y="-7" on="1"/>
        <pt x="920" y="-7" on="1"/>
        <pt x="919" y="-7" on="1"/>
        <pt x="918" y="-7" on="1"/>
        <pt x="917" y="-7" on="1"/>
        <pt x="916" y="-7" on="1"/>
        <pt x="915" y="-7" on="1"/>
        <pt x="914" y="-7" on="1"/>
        <pt x="913" y="-7" on="1"/>
        <pt x="912" y="-7" on="1"/>
        <pt x="911" y="-7" on="1"/>
        <pt x="910" y="-7" on="1"/>
        <pt x="909" y="-7" on="1"/>
        <pt x="908" y="-7" on="1"/>
        <pt x="907" y="-7" on="1"/>
        <pt x="906" y="-7" on="1"/>
        <pt x="905" y="-7" on="1"/>
        <pt x="904" y="-7" on="1"/>
        <pt x="903" y="-7" on="1"/>
        <pt x="902" y="-7" on="1"/>
        <pt x="901" y="-7" on="1"/>
        <pt x="900" y="-7" on="1"/>
        <pt x="899" y="-7" on="1"/>
        <pt x="898" y="-7" on="1"/>
        <pt x="897" y="-7" on="1"/>
        <pt x="896" y="-7" on="1"/>
        <pt x="895" y="-7" on="1"/>
        <pt x="894" y="-7" on="1"/>
        <pt x="893" y="-7" on="1"/>
        <pt x="892" y="-7" on="1"/>
        <pt x="891" y="-7" on="1"/>
        <pt x="890" y="-7" on="1"/>
        <pt x="889" y="-7" on="1"/>
        <pt x="888" y="-7" on="1"/>
        <pt x="887" y="-7" on="1"/>
        <pt x="886" y="-7" on="1"/>
        <pt x="885" y="-7" on="1"/>
        <pt x="884" y="-7" on="1"/>
        <pt x="883" y="-7" on="1"/>
        <pt x="882" y="-7" on="1"/>
        <pt x="881" y="-7" on="1"/>
        <pt x="880" y="-7" on="1"/>
        <pt x="879" y="-7" on="1"/>
        <pt x="878" y="-7" on="1"/>
        <pt x="877" y="-7" on="1"/>
        <pt x="876" y="-7" on="1"/>
        <pt x="875" y="-7" on="1"/>
        <pt x="874" y="-7" on="1"/>
        <pt x="873" y="-7" on="1"/>
        <pt x="872" y="-7" on="1"/>
        <pt x="871" y="-7" on="1"/>
        <pt x="870" y="-7" on="1"/>
        <pt x="869" y="-7" on="1"/>
        <pt x="868" y="-7" on="1"/>
        <pt x="867" y="-7" on="1"/>
        <pt x="866" y="-7" on="1"/>
        <pt x="865" y="-7" on="1"/>
        <pt x="864" y="-7" on="1"/>
        <pt x="863" y="-7" on="1"/>
        <pt x="862" y="-7" on="1"/>
        <pt x="861" y="-7" on="1"/>
        <pt x="860" y="-7" on="1"/>
        <pt x="859" y="-7" on="1"/>
        <pt x="849" y="-7" on="1"/>
        <pt x="752" y="-7" on="0"/>
        <pt x="560" y="45" on="0"/>
        <pt x="393" y="139" on="0"/>
        <pt x="250" y="275" on="0"/>
        <pt x="148" y="437" on="0"/>
      </contour>
      <contour>
        <pt x="428" y="813" on="1"/>
        <pt x="428" y="738" on="0"/>
        <pt x="444" y="591" on="0"/>
        <pt x="479" y="446" on="0"/>
        <pt x="531" y="318" on="0"/>
        <pt x="607" y="207" on="0"/>
        <pt x="700" y="128" on="0"/>
        <pt x="822" y="83" on="0"/>
        <pt x="892" y="83" on="1"/>
        <pt x="957" y="83" on="0"/>
        <pt x="1095" y="119" on="0"/>
        <pt x="1124" y="155" on="1"/>
        <pt x="1149" y="185" on="0"/>
        <pt x="1172" y="264" on="0"/>
        <pt x="1172" y="334" on="1"/>
        <pt x="1172" y="1077" on="1"/>
        <pt x="1172" y="1149" on="0"/>
        <pt x="1132" y="1268" on="0"/>
        <pt x="1098" y="1304" on="1"/>
        <pt x="1075" y="1327" on="0"/>
        <pt x="1004" y="1365" on="0"/>
        <pt x="873" y="1393" on="0"/>
        <pt x="791" y="1393" on="1"/>
        <pt x="714" y="1393" on="0"/>
        <pt x="589" y="1324" on="0"/>
        <pt x="508" y="1210" on="0"/>
        <pt x="452" y="1058" on="0"/>
        <pt x="428" y="898" on="0"/>
      </contour>
    </TTGlyph>
    <TTGlyph name="Oacute" xMin="90" yMin="-22" xMax="1613" yMax="1947">
      <contour>
        <pt x="90" y="632" on="0"/>
        <pt x="90" y="837" on="0"/>
        <pt x="148" y="1035" on="0"/>
        <pt x="251" y="1201" on="0"/>
        <pt x="395" y="1342" on="0"/>
        <pt x="562" y="1439" on="0"/>
        <pt x="754" y="1494" on="0"/>
        <pt x="948" y="1494" on="0"/>
        <pt x="1140" y="1439" on="0"/>
        <pt x="1308" y="1342" on="0"/>
        <pt x="1452" y="1201" on="0"/>
        <pt x="1554" y="1035" on="0"/>
        <pt x="1613" y="837" on="0"/>
        <pt x="1613" y="632" on="0"/>
        <pt x="1554" y="435" on="0"/>
        <pt x="1452" y="269" on="0"/>
        <pt x="1308" y="129" on="0"/>
        <pt x="1140" y="32" on="0"/>
        <pt x="948" y="-22" on="0"/>
        <pt x="754" y="-22" on="0"/>
        <pt x="562" y="32" on="0"/>
        <pt x="395" y="129" on="0"/>
        <pt x="251" y="269" on="0"/>
        <pt x="148" y="435" on="0"/>
      </contour>
      <contour>
        <pt x="448" y="813" on="1"/>
        <pt x="448" y="724" on="0"/>
        <pt x="469" y="554" on="0"/>
        <pt x="512" y="385" on="0"/>
        <pt x="585" y="244" on="0"/>
        <pt x="681" y="135" on="0"/>
        <pt x="817" y="74" on="0"/>
        <pt x="898" y="74" on="1"/>
        <pt x="963" y="74" on="0"/>
        <pt x="1071" y="122" on="0"/>
        <pt x="1147" y="207" on="0"/>
        <pt x="1205" y="317" on="0"/>
        <pt x="1238" y="450" on="0"/>
        <pt x="1254" y="584" on="0"/>
        <pt x="1254" y="654" on="1"/>
        <pt x="1254" y="742" on="0"/>
        <pt x="1233" y="914" on="0"/>
        <pt x="1188" y="1083" on="0"/>
        <pt x="1113" y="1226" on="0"/>
        <pt x="1016" y="1336" on="0"/>
        <pt x="878" y="1398" on="0"/>
        <pt x="797" y="1398" on="1"/>
        <pt x="733" y="1398" on="0"/>
        <pt x="627" y="1349" on="0"/>
        <pt x="552" y="1263" on="0"/>
        <pt x="496" y="1152" on="0"/>
        <pt x="463" y="1018" on="0"/>
        <pt x="448" y="884" on="0"/>
      </contour>
      <contour>
        <pt x="715" y="1676" on="1"/>
        <pt x="715" y="1688" on="0"/>
        <pt x="910" y="1882" on="0"/>
        <pt x="983" y="1938" on="1"/>
        <pt x="1001" y="1947" on="0"/>
        <pt x="1024" y="1947" on="1"/>
        <pt x="1047" y="1947" on="0"/>
        <pt x="1101" y="1931" on="0"/>
        <pt x="1149" y="1890" on="0"/>
        <pt x="1149" y="1833" on="0"/>
        <pt x="1032" y="1749" on="0"/>
        <pt x="886" y="1680" on="0"/>
        <pt x="759" y="1631" on="0"/>
        <pt x="746" y="1631" on="1"/>
        <pt x="735" y="1631" on="0"/>
        <pt x="715" y="1664" on="0"/>
      </contour>
    </TTGlyph>
    <TTGlyph name="Ocircumflex" xMin="90" yMin="-22" xMax="1613" yMax="1949">
      <contour>
        <pt x="90" y="632" on="0"/>
        <pt x="90" y="837" on="0"/>
        <pt x="148" y="1035" on="0"/>
        <pt x="251" y="1201" on="0"/>
        <pt x="395" y="1342" on="0"/>
        <pt x="562" y="1439" on="0"/>
        <pt x="754" y="1494" on="0"/>
        <pt x="948" y="1494" on="0"/>
        <pt x="1140" y="1439" on="0"/>
        <pt x="1308" y="1342" on="0"/>
        <pt x="1452" y="1201" on="0"/>
        <pt x="1554" y="1035" on="0"/>
        <pt x="1613" y="837" on="0"/>
        <pt x="1613" y="632" on="0"/>
        <pt x="1554" y="435" on="0"/>
        <pt x="1452" y="269" on="0"/>
        <pt x="1308" y="129" on="0"/>
        <pt x="1140" y="32" on="0"/>
        <pt x="948" y="-22" on="0"/>
        <pt x="754" y="-22" on="0"/>
        <pt x="562" y="32" on="0"/>
        <pt x="395" y="129" on="0"/>
        <pt x="251" y="269" on="0"/>
        <pt x="148" y="435" on="0"/>
      </contour>
      <contour>
        <pt x="448" y="813" on="1"/>
        <pt x="448" y="724" on="0"/>
        <pt x="469" y="554" on="0"/>
        <pt x="512" y="385" on="0"/>
        <pt x="585" y="244" on="0"/>
        <pt x="681" y="135" on="0"/>
        <pt x="817" y="74" on="0"/>
        <pt x="898" y="74" on="1"/>
        <pt x="963" y="74" on="0"/>
        <pt x="1071" y="122" on="0"/>
        <pt x="1147" y="207" on="0"/>
        <pt x="1205" y="317" on="0"/>
        <pt x="1238" y="450" on="0"/>
        <pt x="1254" y="584" on="0"/>
        <pt x="1254" y="654" on="1"/>
        <pt x="1254" y="742" on="0"/>
        <pt x="1233" y="914" on="0"/>
        <pt x="1188" y="1083" on="0"/>
        <pt x="1113" y="1226" on="0"/>
        <pt x="1016" y="1336" on="0"/>
        <pt x="878" y="1398" on="0"/>
        <pt x="797" y="1398" on="1"/>
        <pt x="733" y="1398" on="0"/>
        <pt x="627" y="1349" on="0"/>
        <pt x="552" y="1263" on="0"/>
        <pt x="496" y="1152" on="0"/>
        <pt x="463" y="1018" on="0"/>
        <pt x="448" y="884" on="0"/>
      </contour>
      <contour>
        <pt x="564" y="1673" on="1"/>
        <pt x="589" y="1692" on="0"/>
        <pt x="726" y="1819" on="1"/>
        <pt x="742" y="1833" on="0"/>
        <pt x="770" y="1862" on="0"/>
        <pt x="791" y="1885" on="0"/>
        <pt x="807" y="1903" on="0"/>
        <pt x="823" y="1922" on="0"/>
        <pt x="827" y="1926" on="1"/>
        <pt x="845" y="1949" on="0"/>
        <pt x="856" y="1949" on="1"/>
        <pt x="858" y="1949" on="0"/>
        <pt x="863" y="1947" on="0"/>
        <pt x="870" y="1941" on="0"/>
        <pt x="874" y="1937" on="0"/>
        <pt x="883" y="1928" on="0"/>
        <pt x="885" y="1926" on="1"/>
        <pt x="939" y="1868" on="0"/>
        <pt x="979" y="1828" on="1"/>
        <pt x="1104" y="1705" on="0"/>
        <pt x="1147" y="1673" on="1"/>
        <pt x="1147" y="1660" on="0"/>
        <pt x="1135" y="1639" on="0"/>
        <pt x="1124" y="1635" on="1"/>
        <pt x="1111" y="1639" on="0"/>
        <pt x="1009" y="1686" on="0"/>
        <pt x="888" y="1749" on="0"/>
        <pt x="856" y="1770" on="1"/>
        <pt x="806" y="1737" on="0"/>
        <pt x="614" y="1642" on="0"/>
        <pt x="587" y="1635" on="1"/>
        <pt x="579" y="1639" on="0"/>
        <pt x="564" y="1661" on="0"/>
      </contour>
    </TTGlyph>
    <TTGlyph name="Odieresis" xMin="90" yMin="-22" xMax="1613" yMax="1935">
      <contour>
        <pt x="90" y="632" on="0"/>
        <pt x="90" y="837" on="0"/>
        <pt x="148" y="1035" on="0"/>
        <pt x="251" y="1201" on="0"/>
        <pt x="395" y="1342" on="0"/>
        <pt x="562" y="1439" on="0"/>
        <pt x="754" y="1494" on="0"/>
        <pt x="948" y="1494" on="0"/>
        <pt x="1140" y="1439" on="0"/>
        <pt x="1308" y="1342" on="0"/>
        <pt x="1452" y="1201" on="0"/>
        <pt x="1554" y="1035" on="0"/>
        <pt x="1613" y="837" on="0"/>
        <pt x="1613" y="632" on="0"/>
        <pt x="1554" y="435" on="0"/>
        <pt x="1452" y="269" on="0"/>
        <pt x="1308" y="129" on="0"/>
        <pt x="1140" y="32" on="0"/>
        <pt x="948" y="-22" on="0"/>
        <pt x="754" y="-22" on="0"/>
        <pt x="562" y="32" on="0"/>
        <pt x="395" y="129" on="0"/>
        <pt x="251" y="269" on="0"/>
        <pt x="148" y="435" on="0"/>
      </contour>
      <contour>
        <pt x="448" y="813" on="1"/>
        <pt x="448" y="724" on="0"/>
        <pt x="469" y="554" on="0"/>
        <pt x="512" y="385" on="0"/>
        <pt x="585" y="244" on="0"/>
        <pt x="681" y="135" on="0"/>
        <pt x="817" y="74" on="0"/>
        <pt x="898" y="74" on="1"/>
        <pt x="963" y="74" on="0"/>
        <pt x="1071" y="122" on="0"/>
        <pt x="1147" y="207" on="0"/>
        <pt x="1205" y="317" on="0"/>
        <pt x="1238" y="450" on="0"/>
        <pt x="1254" y="584" on="0"/>
        <pt x="1254" y="654" on="1"/>
        <pt x="1254" y="742" on="0"/>
        <pt x="1233" y="914" on="0"/>
        <pt x="1188" y="1083" on="0"/>
        <pt x="1113" y="1226" on="0"/>
        <pt x="1016" y="1336" on="0"/>
        <pt x="878" y="1398" on="0"/>
        <pt x="797" y="1398" on="1"/>
        <pt x="733" y="1398" on="0"/>
        <pt x="627" y="1349" on="0"/>
        <pt x="552" y="1263" on="0"/>
        <pt x="496" y="1152" on="0"/>
        <pt x="463" y="1018" on="0"/>
        <pt x="448" y="884" on="0"/>
      </contour>
      <contour>
        <pt x="448" y="1785" on="1"/>
        <pt x="448" y="1849" on="0"/>
        <pt x="534" y="1935" on="0"/>
        <pt x="598" y="1935" on="1"/>
        <pt x="630" y="1935" on="0"/>
        <pt x="686" y="1912" on="0"/>
        <pt x="727" y="1872" on="0"/>
        <pt x="750" y="1817" on="0"/>
        <pt x="750" y="1785" on="1"/>
        <pt x="750" y="1721" on="0"/>
        <pt x="662" y="1633" on="0"/>
        <pt x="598" y="1633" on="1"/>
        <pt x="534" y="1633" on="0"/>
        <pt x="448" y="1721" on="0"/>
      </contour>
      <contour>
        <pt x="952" y="1785" on="1"/>
        <pt x="952" y="1849" on="0"/>
        <pt x="1040" y="1935" on="0"/>
        <pt x="1168" y="1935" on="0"/>
        <pt x="1257" y="1849" on="0"/>
        <pt x="1257" y="1785" on="1"/>
        <pt x="1257" y="1721" on="0"/>
        <pt x="1168" y="1633" on="0"/>
        <pt x="1040" y="1633" on="0"/>
        <pt x="952" y="1721" on="0"/>
      </contour>
    </TTGlyph>
    <TTGlyph name="Ograve" xMin="90" yMin="-22" xMax="1613" yMax="1947">
      <contour>
        <pt x="90" y="632" on="0"/>
        <pt x="90" y="837" on="0"/>
        <pt x="148" y="1035" on="0"/>
        <pt x="251" y="1201" on="0"/>
        <pt x="395" y="1342" on="0"/>
        <pt x="562" y="1439" on="0"/>
        <pt x="754" y="1494" on="0"/>
        <pt x="948" y="1494" on="0"/>
        <pt x="1140" y="1439" on="0"/>
        <pt x="1308" y="1342" on="0"/>
        <pt x="1452" y="1201" on="0"/>
        <pt x="1554" y="1035" on="0"/>
        <pt x="1613" y="837" on="0"/>
        <pt x="1613" y="632" on="0"/>
        <pt x="1554" y="435" on="0"/>
        <pt x="1452" y="269" on="0"/>
        <pt x="1308" y="129" on="0"/>
        <pt x="1140" y="32" on="0"/>
        <pt x="948" y="-22" on="0"/>
        <pt x="754" y="-22" on="0"/>
        <pt x="562" y="32" on="0"/>
        <pt x="395" y="129" on="0"/>
        <pt x="251" y="269" on="0"/>
        <pt x="148" y="435" on="0"/>
      </contour>
      <contour>
        <pt x="448" y="813" on="1"/>
        <pt x="448" y="724" on="0"/>
        <pt x="469" y="554" on="0"/>
        <pt x="512" y="385" on="0"/>
        <pt x="585" y="244" on="0"/>
        <pt x="681" y="135" on="0"/>
        <pt x="817" y="74" on="0"/>
        <pt x="898" y="74" on="1"/>
        <pt x="963" y="74" on="0"/>
        <pt x="1071" y="122" on="0"/>
        <pt x="1147" y="207" on="0"/>
        <pt x="1205" y="317" on="0"/>
        <pt x="1238" y="450" on="0"/>
        <pt x="1254" y="584" on="0"/>
        <pt x="1254" y="654" on="1"/>
        <pt x="1254" y="742" on="0"/>
        <pt x="1233" y="914" on="0"/>
        <pt x="1188" y="1083" on="0"/>
        <pt x="1113" y="1226" on="0"/>
        <pt x="1016" y="1336" on="0"/>
        <pt x="878" y="1398" on="0"/>
        <pt x="797" y="1398" on="1"/>
        <pt x="733" y="1398" on="0"/>
        <pt x="627" y="1349" on="0"/>
        <pt x="552" y="1263" on="0"/>
        <pt x="496" y="1152" on="0"/>
        <pt x="463" y="1018" on="0"/>
        <pt x="448" y="884" on="0"/>
      </contour>
      <contour>
        <pt x="526" y="1833" on="0"/>
        <pt x="526" y="1890" on="0"/>
        <pt x="574" y="1931" on="0"/>
        <pt x="628" y="1947" on="0"/>
        <pt x="652" y="1947" on="1"/>
        <pt x="674" y="1947" on="0"/>
        <pt x="692" y="1938" on="1"/>
        <pt x="765" y="1882" on="0"/>
        <pt x="961" y="1688" on="0"/>
        <pt x="961" y="1676" on="1"/>
        <pt x="961" y="1664" on="0"/>
        <pt x="940" y="1631" on="0"/>
        <pt x="930" y="1631" on="1"/>
        <pt x="917" y="1631" on="0"/>
        <pt x="790" y="1680" on="0"/>
        <pt x="643" y="1749" on="0"/>
      </contour>
    </TTGlyph>
    <TTGlyph name="Oslash" xMin="90" yMin="-40" xMax="1613" yMax="1514">
      <contour>
        <pt x="90" y="632" on="0"/>
        <pt x="90" y="837" on="0"/>
        <pt x="148" y="1035" on="0"/>
        <pt x="251" y="1201" on="0"/>
        <pt x="395" y="1342" on="0"/>
        <pt x="562" y="1439" on="0"/>
        <pt x="754" y="1494" on="0"/>
        <pt x="948" y="1494" on="0"/>
        <pt x="1140" y="1439" on="0"/>
        <pt x="1308" y="1342" on="0"/>
        <pt x="1452" y="1201" on="0"/>
        <pt x="1554" y="1035" on="0"/>
        <pt x="1613" y="837" on="0"/>
        <pt x="1613" y="632" on="0"/>
        <pt x="1554" y="435" on="0"/>
        <pt x="1452" y="269" on="0"/>
        <pt x="1308" y="129" on="0"/>
        <pt x="1140" y="32" on="0"/>
        <pt x="948" y="-22" on="0"/>
        <pt x="754" y="-22" on="0"/>
        <pt x="562" y="32" on="0"/>
        <pt x="395" y="129" on="0"/>
        <pt x="251" y="269" on="0"/>
        <pt x="148" y="435" on="0"/>
      </contour>
      <contour>
        <pt x="367" y="9" on="1"/>
        <pt x="1212" y="1514" on="1"/>
        <pt x="1213" y="1514" on="0"/>
        <pt x="1226" y="1509" on="0"/>
        <pt x="1235" y="1506" on="0"/>
        <pt x="1251" y="1500" on="0"/>
        <pt x="1262" y="1494" on="0"/>
        <pt x="1276" y="1488" on="0"/>
        <pt x="1286" y="1482" on="0"/>
        <pt x="1294" y="1476" on="0"/>
        <pt x="1298" y="1470" on="0"/>
        <pt x="1297" y="1467" on="1"/>
        <pt x="452" y="-40" on="1"/>
        <pt x="363" y="-7" on="0"/>
      </contour>
      <contour>
        <pt x="448" y="813" on="1"/>
        <pt x="448" y="724" on="0"/>
        <pt x="469" y="554" on="0"/>
        <pt x="512" y="385" on="0"/>
        <pt x="585" y="244" on="0"/>
        <pt x="681" y="135" on="0"/>
        <pt x="817" y="74" on="0"/>
        <pt x="898" y="74" on="1"/>
        <pt x="963" y="74" on="0"/>
        <pt x="1071" y="122" on="0"/>
        <pt x="1147" y="207" on="0"/>
        <pt x="1205" y="317" on="0"/>
        <pt x="1238" y="450" on="0"/>
        <pt x="1254" y="584" on="0"/>
        <pt x="1254" y="654" on="1"/>
        <pt x="1254" y="742" on="0"/>
        <pt x="1233" y="914" on="0"/>
        <pt x="1188" y="1083" on="0"/>
        <pt x="1113" y="1226" on="0"/>
        <pt x="1016" y="1336" on="0"/>
        <pt x="878" y="1398" on="0"/>
        <pt x="797" y="1398" on="1"/>
        <pt x="733" y="1398" on="0"/>
        <pt x="627" y="1349" on="0"/>
        <pt x="552" y="1263" on="0"/>
        <pt x="496" y="1152" on="0"/>
        <pt x="463" y="1018" on="0"/>
        <pt x="448" y="884" on="0"/>
      </contour>
    </TTGlyph>
    <TTGlyph name="Otilde" xMin="90" yMin="-22" xMax="1613" yMax="1913">
      <contour>
        <pt x="90" y="632" on="0"/>
        <pt x="90" y="837" on="0"/>
        <pt x="148" y="1035" on="0"/>
        <pt x="251" y="1201" on="0"/>
        <pt x="395" y="1342" on="0"/>
        <pt x="562" y="1439" on="0"/>
        <pt x="754" y="1494" on="0"/>
        <pt x="948" y="1494" on="0"/>
        <pt x="1140" y="1439" on="0"/>
        <pt x="1308" y="1342" on="0"/>
        <pt x="1452" y="1201" on="0"/>
        <pt x="1554" y="1035" on="0"/>
        <pt x="1613" y="837" on="0"/>
        <pt x="1613" y="632" on="0"/>
        <pt x="1554" y="435" on="0"/>
        <pt x="1452" y="269" on="0"/>
        <pt x="1308" y="129" on="0"/>
        <pt x="1140" y="32" on="0"/>
        <pt x="948" y="-22" on="0"/>
        <pt x="754" y="-22" on="0"/>
        <pt x="562" y="32" on="0"/>
        <pt x="395" y="129" on="0"/>
        <pt x="251" y="269" on="0"/>
        <pt x="148" y="435" on="0"/>
      </contour>
      <contour>
        <pt x="441" y="1698" on="1"/>
        <pt x="441" y="1749" on="0"/>
        <pt x="484" y="1805" on="1"/>
        <pt x="571" y="1913" on="0"/>
        <pt x="692" y="1913" on="1"/>
        <pt x="731" y="1913" on="0"/>
        <pt x="808" y="1892" on="0"/>
        <pt x="855" y="1870" on="0"/>
        <pt x="894" y="1848" on="1"/>
        <pt x="1024" y="1776" on="0"/>
        <pt x="1080" y="1776" on="1"/>
        <pt x="1114" y="1776" on="0"/>
        <pt x="1174" y="1798" on="0"/>
        <pt x="1215" y="1829" on="0"/>
        <pt x="1246" y="1861" on="0"/>
        <pt x="1269" y="1888" on="0"/>
        <pt x="1275" y="1891" on="1"/>
        <pt x="1282" y="1891" on="0"/>
        <pt x="1292" y="1869" on="0"/>
        <pt x="1292" y="1859" on="1"/>
        <pt x="1292" y="1808" on="0"/>
        <pt x="1250" y="1752" on="1"/>
        <pt x="1161" y="1642" on="0"/>
        <pt x="1042" y="1642" on="1"/>
        <pt x="1003" y="1642" on="0"/>
        <pt x="926" y="1663" on="0"/>
        <pt x="879" y="1685" on="0"/>
        <pt x="840" y="1707" on="1"/>
        <pt x="834" y="1710" on="0"/>
        <pt x="792" y="1734" on="0"/>
        <pt x="777" y="1741" on="0"/>
        <pt x="741" y="1760" on="0"/>
        <pt x="722" y="1767" on="0"/>
        <pt x="692" y="1777" on="0"/>
        <pt x="667" y="1781" on="0"/>
        <pt x="654" y="1781" on="1"/>
        <pt x="612" y="1781" on="0"/>
        <pt x="539" y="1747" on="0"/>
        <pt x="500" y="1707" on="0"/>
        <pt x="465" y="1667" on="0"/>
        <pt x="459" y="1664" on="1"/>
        <pt x="454" y="1664" on="0"/>
        <pt x="445" y="1677" on="0"/>
        <pt x="441" y="1692" on="0"/>
      </contour>
      <contour>
        <pt x="448" y="813" on="1"/>
        <pt x="448" y="724" on="0"/>
        <pt x="469" y="554" on="0"/>
        <pt x="512" y="385" on="0"/>
        <pt x="585" y="244" on="0"/>
        <pt x="681" y="135" on="0"/>
        <pt x="817" y="74" on="0"/>
        <pt x="898" y="74" on="1"/>
        <pt x="963" y="74" on="0"/>
        <pt x="1071" y="122" on="0"/>
        <pt x="1147" y="207" on="0"/>
        <pt x="1205" y="317" on="0"/>
        <pt x="1238" y="450" on="0"/>
        <pt x="1254" y="584" on="0"/>
        <pt x="1254" y="654" on="1"/>
        <pt x="1254" y="742" on="0"/>
        <pt x="1233" y="914" on="0"/>
        <pt x="1188" y="1083" on="0"/>
        <pt x="1113" y="1226" on="0"/>
        <pt x="1016" y="1336" on="0"/>
        <pt x="878" y="1398" on="0"/>
        <pt x="797" y="1398" on="1"/>
        <pt x="733" y="1398" on="0"/>
        <pt x="627" y="1349" on="0"/>
        <pt x="552" y="1263" on="0"/>
        <pt x="496" y="1152" on="0"/>
        <pt x="463" y="1018" on="0"/>
        <pt x="448" y="884" on="0"/>
      </contour>
    </TTGlyph>
    <TTGlyph name="P" xMin="77" yMin="-9" xMax="1266" yMax="1478">
      <contour>
        <pt x="77" y="35" on="1"/>
        <pt x="77" y="62" on="0"/>
        <pt x="85" y="74" on="1"/>
        <pt x="217" y="84" on="0"/>
        <pt x="228" y="114" on="1"/>
        <pt x="241" y="145" on="0"/>
        <pt x="246" y="235" on="0"/>
        <pt x="246" y="325" on="1"/>
        <pt x="246" y="1149" on="1"/>
        <pt x="246" y="1210" on="0"/>
        <pt x="245" y="1269" on="0"/>
        <pt x="237" y="1338" on="0"/>
        <pt x="228" y="1360" on="1"/>
        <pt x="227" y="1364" on="0"/>
        <pt x="217" y="1373" on="0"/>
        <pt x="201" y="1379" on="0"/>
        <pt x="185" y="1384" on="0"/>
        <pt x="162" y="1388" on="0"/>
        <pt x="145" y="1391" on="0"/>
        <pt x="120" y="1393" on="0"/>
        <pt x="107" y="1394" on="0"/>
        <pt x="87" y="1395" on="0"/>
        <pt x="85" y="1396" on="1"/>
        <pt x="77" y="1407" on="0"/>
        <pt x="77" y="1435" on="1"/>
        <pt x="78" y="1437" on="0"/>
        <pt x="78" y="1438" on="1"/>
        <pt x="78" y="1468" on="0"/>
        <pt x="85" y="1478" on="1"/>
        <pt x="186" y="1472" on="0"/>
        <pt x="405" y="1472" on="1"/>
        <pt x="448" y="1472" on="0"/>
        <pt x="680" y="1478" on="0"/>
        <pt x="750" y="1478" on="1"/>
        <pt x="856" y="1478" on="0"/>
        <pt x="1042" y="1425" on="0"/>
        <pt x="1184" y="1326" on="0"/>
        <pt x="1266" y="1173" on="0"/>
        <pt x="1266" y="1080" on="1"/>
        <pt x="1266" y="982" on="0"/>
        <pt x="1189" y="815" on="0"/>
        <pt x="1062" y="705" on="0"/>
        <pt x="901" y="643" on="0"/>
        <pt x="815" y="643" on="1"/>
        <pt x="762" y="643" on="0"/>
        <pt x="678" y="678" on="0"/>
        <pt x="661" y="694" on="1"/>
        <pt x="657" y="699" on="0"/>
        <pt x="649" y="719" on="0"/>
        <pt x="645" y="741" on="0"/>
        <pt x="645" y="750" on="1"/>
        <pt x="645" y="766" on="0"/>
        <pt x="652" y="766" on="1"/>
        <pt x="682" y="757" on="0"/>
        <pt x="744" y="757" on="1"/>
        <pt x="826" y="757" on="0"/>
        <pt x="932" y="919" on="0"/>
        <pt x="932" y="1048" on="1"/>
        <pt x="932" y="1115" on="0"/>
        <pt x="896" y="1238" on="0"/>
        <pt x="832" y="1332" on="0"/>
        <pt x="738" y="1389" on="0"/>
        <pt x="683" y="1389" on="1"/>
        <pt x="660" y="1389" on="0"/>
        <pt x="629" y="1387" on="0"/>
        <pt x="596" y="1382" on="0"/>
        <pt x="575" y="1371" on="0"/>
        <pt x="571" y="1362" on="1"/>
        <pt x="560" y="1335" on="0"/>
        <pt x="560" y="1225" on="1"/>
        <pt x="560" y="325" on="1"/>
        <pt x="560" y="278" on="0"/>
        <pt x="561" y="233" on="0"/>
        <pt x="564" y="171" on="0"/>
        <pt x="571" y="130" on="0"/>
        <pt x="578" y="114" on="1"/>
        <pt x="590" y="84" on="0"/>
        <pt x="721" y="74" on="1"/>
        <pt x="729" y="62" on="0"/>
        <pt x="728" y="2" on="0"/>
        <pt x="721" y="-9" on="1"/>
        <pt x="568" y="7" on="0"/>
        <pt x="401" y="7" on="1"/>
        <pt x="238" y="7" on="0"/>
        <pt x="85" y="-9" on="1"/>
        <pt x="77" y="2" on="0"/>
      </contour>
    </TTGlyph>
    <TTGlyph name="Q" xMin="90" yMin="-320" xMax="1794" yMax="1494">
      <contour>
        <pt x="90" y="735" on="1"/>
        <pt x="90" y="837" on="0"/>
        <pt x="148" y="1035" on="0"/>
        <pt x="251" y="1201" on="0"/>
        <pt x="395" y="1342" on="0"/>
        <pt x="562" y="1439" on="0"/>
        <pt x="754" y="1494" on="0"/>
        <pt x="948" y="1494" on="0"/>
        <pt x="1140" y="1439" on="0"/>
        <pt x="1308" y="1342" on="0"/>
        <pt x="1452" y="1201" on="0"/>
        <pt x="1554" y="1035" on="0"/>
        <pt x="1613" y="837" on="0"/>
        <pt x="1613" y="735" on="1"/>
        <pt x="1613" y="612" on="0"/>
        <pt x="1529" y="378" on="0"/>
        <pt x="1385" y="193" on="0"/>
        <pt x="1190" y="53" on="0"/>
        <pt x="1080" y="16" on="1"/>
        <pt x="1128" y="-8" on="0"/>
        <pt x="1246" y="-74" on="0"/>
        <pt x="1315" y="-111" on="0"/>
        <pt x="1409" y="-149" on="0"/>
        <pt x="1513" y="-166" on="0"/>
        <pt x="1579" y="-166" on="1"/>
        <pt x="1610" y="-166" on="0"/>
        <pt x="1669" y="-160" on="0"/>
        <pt x="1704" y="-153" on="0"/>
        <pt x="1734" y="-148" on="0"/>
        <pt x="1738" y="-148" on="1"/>
        <pt x="1745" y="-148" on="0"/>
        <pt x="1765" y="-155" on="0"/>
        <pt x="1784" y="-169" on="0"/>
        <pt x="1790" y="-177" on="1"/>
        <pt x="1794" y="-188" on="1"/>
        <pt x="1694" y="-241" on="0"/>
        <pt x="1432" y="-320" on="0"/>
        <pt x="1335" y="-320" on="1"/>
        <pt x="1266" y="-320" on="0"/>
        <pt x="1127" y="-269" on="0"/>
        <pt x="1002" y="-188" on="0"/>
        <pt x="882" y="-103" on="0"/>
        <pt x="739" y="-20" on="0"/>
        <pt x="674" y="0" on="1"/>
        <pt x="554" y="32" on="0"/>
        <pt x="340" y="171" on="0"/>
        <pt x="182" y="361" on="0"/>
        <pt x="90" y="605" on="0"/>
      </contour>
      <contour>
        <pt x="448" y="813" on="1"/>
        <pt x="448" y="724" on="0"/>
        <pt x="469" y="554" on="0"/>
        <pt x="512" y="385" on="0"/>
        <pt x="585" y="244" on="0"/>
        <pt x="681" y="135" on="0"/>
        <pt x="817" y="74" on="0"/>
        <pt x="898" y="74" on="1"/>
        <pt x="963" y="74" on="0"/>
        <pt x="1071" y="122" on="0"/>
        <pt x="1147" y="207" on="0"/>
        <pt x="1205" y="317" on="0"/>
        <pt x="1238" y="450" on="0"/>
        <pt x="1254" y="584" on="0"/>
        <pt x="1254" y="654" on="1"/>
        <pt x="1254" y="742" on="0"/>
        <pt x="1233" y="914" on="0"/>
        <pt x="1188" y="1083" on="0"/>
        <pt x="1113" y="1226" on="0"/>
        <pt x="1016" y="1336" on="0"/>
        <pt x="878" y="1398" on="0"/>
        <pt x="797" y="1398" on="1"/>
        <pt x="733" y="1398" on="0"/>
        <pt x="627" y="1349" on="0"/>
        <pt x="552" y="1263" on="0"/>
        <pt x="496" y="1152" on="0"/>
        <pt x="463" y="1018" on="0"/>
        <pt x="448" y="884" on="0"/>
      </contour>
    </TTGlyph>
    <TTGlyph name="R" xMin="77" yMin="-18" xMax="1638" yMax="1478">
      <contour>
        <pt x="77" y="35" on="1"/>
        <pt x="77" y="62" on="0"/>
        <pt x="85" y="74" on="1"/>
        <pt x="217" y="84" on="0"/>
        <pt x="228" y="114" on="1"/>
        <pt x="241" y="145" on="0"/>
        <pt x="246" y="235" on="0"/>
        <pt x="246" y="325" on="1"/>
        <pt x="246" y="1149" on="1"/>
        <pt x="246" y="1210" on="0"/>
        <pt x="245" y="1269" on="0"/>
        <pt x="237" y="1338" on="0"/>
        <pt x="228" y="1360" on="1"/>
        <pt x="227" y="1364" on="0"/>
        <pt x="217" y="1373" on="0"/>
        <pt x="201" y="1379" on="0"/>
        <pt x="185" y="1384" on="0"/>
        <pt x="162" y="1388" on="0"/>
        <pt x="145" y="1391" on="0"/>
        <pt x="120" y="1393" on="0"/>
        <pt x="107" y="1394" on="0"/>
        <pt x="87" y="1395" on="0"/>
        <pt x="85" y="1396" on="1"/>
        <pt x="77" y="1407" on="0"/>
        <pt x="77" y="1435" on="1"/>
        <pt x="78" y="1437" on="0"/>
        <pt x="78" y="1438" on="1"/>
        <pt x="78" y="1468" on="0"/>
        <pt x="85" y="1478" on="1"/>
        <pt x="186" y="1472" on="0"/>
        <pt x="405" y="1472" on="1"/>
        <pt x="448" y="1472" on="0"/>
        <pt x="680" y="1478" on="0"/>
        <pt x="750" y="1478" on="1"/>
        <pt x="856" y="1478" on="0"/>
        <pt x="1034" y="1426" on="0"/>
        <pt x="1167" y="1326" on="0"/>
        <pt x="1241" y="1169" on="0"/>
        <pt x="1241" y="1071" on="1"/>
        <pt x="1241" y="1033" on="0"/>
        <pt x="1219" y="956" on="0"/>
        <pt x="1180" y="890" on="0"/>
        <pt x="1130" y="829" on="0"/>
        <pt x="1073" y="779" on="0"/>
        <pt x="1014" y="740" on="0"/>
        <pt x="960" y="714" on="0"/>
        <pt x="936" y="708" on="1"/>
        <pt x="1009" y="610" on="0"/>
        <pt x="1171" y="402" on="0"/>
        <pt x="1216" y="347" on="1"/>
        <pt x="1261" y="291" on="1"/>
        <pt x="1308" y="232" on="0"/>
        <pt x="1416" y="144" on="0"/>
        <pt x="1500" y="102" on="0"/>
        <pt x="1585" y="78" on="0"/>
        <pt x="1621" y="74" on="0"/>
        <pt x="1633" y="74" on="1"/>
        <pt x="1638" y="62" on="0"/>
        <pt x="1638" y="41" on="1"/>
        <pt x="1638" y="35" on="0"/>
        <pt x="1638" y="28" on="1"/>
        <pt x="1636" y="-3" on="0"/>
        <pt x="1633" y="-9" on="1"/>
        <pt x="1503" y="-18" on="0"/>
        <pt x="1340" y="-18" on="1"/>
        <pt x="1278" y="-18" on="0"/>
        <pt x="1166" y="12" on="0"/>
        <pt x="1081" y="64" on="0"/>
        <pt x="1020" y="119" on="0"/>
        <pt x="997" y="150" on="1"/>
        <pt x="634" y="636" on="1"/>
        <pt x="611" y="670" on="0"/>
        <pt x="594" y="670" on="1"/>
        <pt x="560" y="670" on="1"/>
        <pt x="560" y="325" on="1"/>
        <pt x="560" y="278" on="0"/>
        <pt x="561" y="233" on="0"/>
        <pt x="564" y="171" on="0"/>
        <pt x="571" y="130" on="0"/>
        <pt x="578" y="114" on="1"/>
        <pt x="590" y="84" on="0"/>
        <pt x="721" y="74" on="1"/>
        <pt x="729" y="62" on="0"/>
        <pt x="728" y="2" on="0"/>
        <pt x="721" y="-9" on="1"/>
        <pt x="568" y="7" on="0"/>
        <pt x="401" y="7" on="1"/>
        <pt x="238" y="7" on="0"/>
        <pt x="85" y="-9" on="1"/>
        <pt x="77" y="2" on="0"/>
      </contour>
      <contour>
        <pt x="560" y="757" on="1"/>
        <pt x="663" y="757" on="1"/>
        <pt x="762" y="757" on="0"/>
        <pt x="907" y="922" on="0"/>
        <pt x="907" y="1048" on="1"/>
        <pt x="907" y="1105" on="0"/>
        <pt x="896" y="1199" on="0"/>
        <pt x="866" y="1290" on="0"/>
        <pt x="817" y="1351" on="0"/>
        <pt x="737" y="1389" on="0"/>
        <pt x="683" y="1389" on="1"/>
        <pt x="660" y="1389" on="0"/>
        <pt x="629" y="1387" on="0"/>
        <pt x="596" y="1382" on="0"/>
        <pt x="575" y="1371" on="0"/>
        <pt x="571" y="1362" on="1"/>
        <pt x="560" y="1335" on="0"/>
        <pt x="560" y="1225" on="1"/>
      </contour>
    </TTGlyph>
    <TTGlyph name="S" xMin="105" yMin="-22" xMax="1073" yMax="1501">
      <contour>
        <pt x="105" y="417" on="1"/>
        <pt x="109" y="423" on="0"/>
        <pt x="137" y="438" on="0"/>
        <pt x="164" y="448" on="0"/>
        <pt x="170" y="448" on="1"/>
        <pt x="196" y="448" on="0"/>
        <pt x="199" y="430" on="1"/>
        <pt x="206" y="392" on="0"/>
        <pt x="245" y="300" on="0"/>
        <pt x="312" y="203" on="0"/>
        <pt x="394" y="123" on="0"/>
        <pt x="505" y="72" on="0"/>
        <pt x="562" y="72" on="1"/>
        <pt x="607" y="72" on="0"/>
        <pt x="682" y="96" on="0"/>
        <pt x="744" y="145" on="0"/>
        <pt x="780" y="231" on="0"/>
        <pt x="780" y="289" on="1"/>
        <pt x="780" y="318" on="0"/>
        <pt x="758" y="378" on="0"/>
        <pt x="731" y="426" on="0"/>
        <pt x="675" y="484" on="0"/>
        <pt x="638" y="520" on="0"/>
        <pt x="564" y="576" on="0"/>
        <pt x="532" y="598" on="0"/>
        <pt x="455" y="650" on="0"/>
        <pt x="448" y="654" on="1"/>
        <pt x="441" y="659" on="0"/>
        <pt x="426" y="668" on="1"/>
        <pt x="392" y="692" on="0"/>
        <pt x="357" y="716" on="0"/>
        <pt x="294" y="761" on="0"/>
        <pt x="261" y="791" on="0"/>
        <pt x="210" y="840" on="0"/>
        <pt x="183" y="881" on="0"/>
        <pt x="149" y="937" on="0"/>
        <pt x="133" y="991" on="0"/>
        <pt x="121" y="1059" on="0"/>
        <pt x="121" y="1095" on="1"/>
        <pt x="121" y="1179" on="0"/>
        <pt x="205" y="1332" on="0"/>
        <pt x="340" y="1438" on="0"/>
        <pt x="512" y="1501" on="0"/>
        <pt x="598" y="1501" on="1"/>
        <pt x="645" y="1501" on="0"/>
        <pt x="749" y="1488" on="0"/>
        <pt x="814" y="1474" on="0"/>
        <pt x="945" y="1444" on="0"/>
        <pt x="974" y="1438" on="1"/>
        <pt x="988" y="1297" on="0"/>
        <pt x="999" y="1066" on="1"/>
        <pt x="989" y="1053" on="0"/>
        <pt x="974" y="1053" on="1"/>
        <pt x="911" y="1053" on="0"/>
        <pt x="907" y="1068" on="1"/>
        <pt x="902" y="1108" on="0"/>
        <pt x="871" y="1196" on="0"/>
        <pt x="817" y="1287" on="0"/>
        <pt x="750" y="1360" on="0"/>
        <pt x="659" y="1407" on="0"/>
        <pt x="609" y="1407" on="1"/>
        <pt x="574" y="1407" on="0"/>
        <pt x="511" y="1387" on="0"/>
        <pt x="453" y="1345" on="0"/>
        <pt x="419" y="1266" on="0"/>
        <pt x="419" y="1212" on="1"/>
        <pt x="419" y="1183" on="0"/>
        <pt x="442" y="1122" on="0"/>
        <pt x="475" y="1071" on="0"/>
        <pt x="534" y="1011" on="0"/>
        <pt x="582" y="969" on="0"/>
        <pt x="659" y="911" on="0"/>
        <pt x="705" y="880" on="0"/>
        <pt x="744" y="853" on="1"/>
        <pt x="755" y="846" on="0"/>
        <pt x="778" y="831" on="1"/>
        <pt x="835" y="794" on="0"/>
        <pt x="894" y="751" on="0"/>
        <pt x="988" y="665" on="0"/>
        <pt x="1035" y="585" on="0"/>
        <pt x="1073" y="463" on="0"/>
        <pt x="1073" y="392" on="1"/>
        <pt x="1073" y="302" on="0"/>
        <pt x="990" y="145" on="0"/>
        <pt x="853" y="39" on="0"/>
        <pt x="677" y="-22" on="0"/>
        <pt x="585" y="-22" on="1"/>
        <pt x="409" y="-22" on="0"/>
        <pt x="159" y="36" on="1"/>
        <pt x="144" y="103" on="0"/>
        <pt x="109" y="359" on="0"/>
      </contour>
    </TTGlyph>
    <TTGlyph name="T" xMin="18" yMin="-9" xMax="1402" yMax="1514">
      <contour>
        <pt x="18" y="1095" on="1"/>
        <pt x="78" y="1508" on="1"/>
        <pt x="92" y="1514" on="0"/>
        <pt x="105" y="1514" on="1"/>
        <pt x="117" y="1514" on="0"/>
        <pt x="155" y="1501" on="0"/>
        <pt x="197" y="1485" on="0"/>
        <pt x="283" y="1472" on="0"/>
        <pt x="338" y="1472" on="1"/>
        <pt x="1082" y="1472" on="1"/>
        <pt x="1137" y="1472" on="0"/>
        <pt x="1224" y="1485" on="0"/>
        <pt x="1265" y="1501" on="0"/>
        <pt x="1303" y="1514" on="0"/>
        <pt x="1315" y="1514" on="1"/>
        <pt x="1328" y="1514" on="0"/>
        <pt x="1342" y="1508" on="1"/>
        <pt x="1402" y="1095" on="1"/>
        <pt x="1397" y="1090" on="0"/>
        <pt x="1353" y="1080" on="0"/>
        <pt x="1337" y="1080" on="1"/>
        <pt x="1318" y="1080" on="0"/>
        <pt x="1315" y="1091" on="1"/>
        <pt x="1298" y="1203" on="0"/>
        <pt x="1159" y="1373" on="0"/>
        <pt x="1075" y="1373" on="1"/>
        <pt x="867" y="1373" on="1"/>
        <pt x="867" y="325" on="1"/>
        <pt x="867" y="278" on="0"/>
        <pt x="868" y="233" on="0"/>
        <pt x="871" y="171" on="0"/>
        <pt x="878" y="130" on="0"/>
        <pt x="885" y="114" on="1"/>
        <pt x="896" y="84" on="0"/>
        <pt x="1028" y="74" on="1"/>
        <pt x="1036" y="62" on="0"/>
        <pt x="1035" y="2" on="0"/>
        <pt x="1028" y="-9" on="1"/>
        <pt x="875" y="7" on="0"/>
        <pt x="708" y="7" on="1"/>
        <pt x="545" y="7" on="0"/>
        <pt x="392" y="-9" on="1"/>
        <pt x="385" y="2" on="0"/>
        <pt x="384" y="62" on="0"/>
        <pt x="392" y="74" on="1"/>
        <pt x="524" y="84" on="0"/>
        <pt x="535" y="114" on="1"/>
        <pt x="547" y="145" on="0"/>
        <pt x="553" y="235" on="0"/>
        <pt x="553" y="325" on="1"/>
        <pt x="553" y="1373" on="1"/>
        <pt x="345" y="1373" on="1"/>
        <pt x="261" y="1373" on="0"/>
        <pt x="123" y="1203" on="0"/>
        <pt x="105" y="1091" on="1"/>
        <pt x="102" y="1080" on="0"/>
        <pt x="83" y="1080" on="1"/>
        <pt x="68" y="1080" on="0"/>
        <pt x="23" y="1090" on="0"/>
      </contour>
    </TTGlyph>
    <TTGlyph name="Thorn" xMin="77" yMin="-9" xMax="1257" yMax="1483">
      <contour>
        <pt x="78" y="2" on="0"/>
        <pt x="77" y="62" on="0"/>
        <pt x="85" y="74" on="1"/>
        <pt x="217" y="84" on="0"/>
        <pt x="228" y="114" on="1"/>
        <pt x="241" y="145" on="0"/>
        <pt x="246" y="235" on="0"/>
        <pt x="246" y="325" on="1"/>
        <pt x="246" y="1149" on="1"/>
        <pt x="246" y="1210" on="0"/>
        <pt x="245" y="1269" on="0"/>
        <pt x="237" y="1338" on="0"/>
        <pt x="228" y="1360" on="1"/>
        <pt x="217" y="1390" on="0"/>
        <pt x="85" y="1400" on="1"/>
        <pt x="77" y="1412" on="0"/>
        <pt x="78" y="1472" on="0"/>
        <pt x="85" y="1483" on="1"/>
        <pt x="238" y="1467" on="0"/>
        <pt x="405" y="1467" on="1"/>
        <pt x="568" y="1467" on="0"/>
        <pt x="721" y="1483" on="1"/>
        <pt x="728" y="1472" on="0"/>
        <pt x="729" y="1412" on="0"/>
        <pt x="721" y="1400" on="1"/>
        <pt x="590" y="1390" on="0"/>
        <pt x="578" y="1360" on="1"/>
        <pt x="560" y="1315" on="0"/>
        <pt x="560" y="1207" on="1"/>
        <pt x="560" y="1158" on="1"/>
        <pt x="676" y="1163" on="0"/>
        <pt x="750" y="1163" on="1"/>
        <pt x="856" y="1163" on="0"/>
        <pt x="1040" y="1109" on="0"/>
        <pt x="1177" y="1010" on="0"/>
        <pt x="1257" y="857" on="0"/>
        <pt x="1257" y="764" on="1"/>
        <pt x="1257" y="666" on="0"/>
        <pt x="1182" y="499" on="0"/>
        <pt x="1059" y="389" on="0"/>
        <pt x="900" y="327" on="0"/>
        <pt x="815" y="327" on="1"/>
        <pt x="762" y="327" on="0"/>
        <pt x="678" y="362" on="0"/>
        <pt x="661" y="379" on="1"/>
        <pt x="657" y="383" on="0"/>
        <pt x="649" y="403" on="0"/>
        <pt x="645" y="425" on="0"/>
        <pt x="645" y="435" on="1"/>
        <pt x="645" y="450" on="0"/>
        <pt x="652" y="450" on="1"/>
        <pt x="682" y="441" on="0"/>
        <pt x="744" y="441" on="1"/>
        <pt x="827" y="441" on="0"/>
        <pt x="939" y="605" on="0"/>
        <pt x="939" y="732" on="1"/>
        <pt x="939" y="821" on="0"/>
        <pt x="875" y="976" on="0"/>
        <pt x="756" y="1073" on="0"/>
        <pt x="683" y="1073" on="1"/>
        <pt x="660" y="1073" on="0"/>
        <pt x="629" y="1071" on="0"/>
        <pt x="596" y="1066" on="0"/>
        <pt x="575" y="1055" on="0"/>
        <pt x="571" y="1046" on="1"/>
        <pt x="566" y="1034" on="0"/>
        <pt x="561" y="966" on="0"/>
        <pt x="560" y="938" on="1"/>
        <pt x="560" y="909" on="1"/>
        <pt x="560" y="325" on="1"/>
        <pt x="560" y="278" on="0"/>
        <pt x="561" y="233" on="0"/>
        <pt x="564" y="171" on="0"/>
        <pt x="571" y="130" on="0"/>
        <pt x="578" y="114" on="1"/>
        <pt x="590" y="84" on="0"/>
        <pt x="721" y="74" on="1"/>
        <pt x="729" y="62" on="0"/>
        <pt x="728" y="2" on="0"/>
        <pt x="721" y="-9" on="1"/>
        <pt x="568" y="7" on="0"/>
        <pt x="401" y="7" on="1"/>
        <pt x="238" y="7" on="0"/>
        <pt x="85" y="-9" on="1"/>
      </contour>
    </TTGlyph>
    <TTGlyph name="U" xMin="41" yMin="-20" xMax="1634" yMax="1483">
      <contour>
        <pt x="49" y="1483" on="1"/>
        <pt x="202" y="1467" on="0"/>
        <pt x="370" y="1467" on="1"/>
        <pt x="533" y="1467" on="0"/>
        <pt x="685" y="1483" on="1"/>
        <pt x="693" y="1472" on="0"/>
        <pt x="693" y="1412" on="0"/>
        <pt x="685" y="1400" on="1"/>
        <pt x="554" y="1390" on="0"/>
        <pt x="542" y="1360" on="1"/>
        <pt x="530" y="1329" on="0"/>
        <pt x="524" y="1239" on="0"/>
        <pt x="524" y="1149" on="1"/>
        <pt x="524" y="739" on="1"/>
        <pt x="524" y="606" on="0"/>
        <pt x="545" y="438" on="0"/>
        <pt x="580" y="356" on="1"/>
        <pt x="673" y="141" on="0"/>
        <pt x="921" y="141" on="1"/>
        <pt x="976" y="141" on="0"/>
        <pt x="1079" y="180" on="0"/>
        <pt x="1173" y="266" on="0"/>
        <pt x="1242" y="391" on="0"/>
        <pt x="1284" y="578" on="0"/>
        <pt x="1284" y="692" on="1"/>
        <pt x="1284" y="1073" on="1"/>
        <pt x="1284" y="1148" on="0"/>
        <pt x="1265" y="1314" on="0"/>
        <pt x="1252" y="1346" on="1"/>
        <pt x="1234" y="1388" on="0"/>
        <pt x="1084" y="1400" on="1"/>
        <pt x="1076" y="1412" on="0"/>
        <pt x="1077" y="1472" on="0"/>
        <pt x="1084" y="1483" on="1"/>
        <pt x="1268" y="1467" on="0"/>
        <pt x="1364" y="1467" on="1"/>
        <pt x="1421" y="1467" on="0"/>
        <pt x="1600" y="1482" on="0"/>
        <pt x="1626" y="1483" on="1"/>
        <pt x="1634" y="1472" on="0"/>
        <pt x="1634" y="1442" on="1"/>
        <pt x="1634" y="1440" on="0"/>
        <pt x="1634" y="1439" on="1"/>
        <pt x="1634" y="1412" on="0"/>
        <pt x="1626" y="1400" on="1"/>
        <pt x="1625" y="1400" on="0"/>
        <pt x="1602" y="1398" on="0"/>
        <pt x="1587" y="1397" on="0"/>
        <pt x="1558" y="1394" on="0"/>
        <pt x="1538" y="1390" on="0"/>
        <pt x="1510" y="1384" on="0"/>
        <pt x="1490" y="1377" on="0"/>
        <pt x="1470" y="1367" on="0"/>
        <pt x="1457" y="1354" on="0"/>
        <pt x="1454" y="1346" on="1"/>
        <pt x="1441" y="1314" on="0"/>
        <pt x="1422" y="1150" on="0"/>
        <pt x="1422" y="1075" on="1"/>
        <pt x="1422" y="641" on="1"/>
        <pt x="1422" y="507" on="0"/>
        <pt x="1356" y="287" on="0"/>
        <pt x="1242" y="134" on="0"/>
        <pt x="1086" y="29" on="0"/>
        <pt x="907" y="-20" on="0"/>
        <pt x="809" y="-20" on="1"/>
        <pt x="662" y="-20" on="0"/>
        <pt x="414" y="79" on="0"/>
        <pt x="336" y="177" on="1"/>
        <pt x="292" y="232" on="0"/>
        <pt x="237" y="375" on="0"/>
        <pt x="211" y="557" on="0"/>
        <pt x="211" y="674" on="1"/>
        <pt x="211" y="1149" on="1"/>
        <pt x="211" y="1210" on="0"/>
        <pt x="209" y="1269" on="0"/>
        <pt x="201" y="1338" on="0"/>
        <pt x="193" y="1360" on="1"/>
        <pt x="181" y="1390" on="0"/>
        <pt x="49" y="1400" on="1"/>
        <pt x="41" y="1411" on="0"/>
        <pt x="41" y="1439" on="1"/>
        <pt x="41" y="1471" on="0"/>
      </contour>
    </TTGlyph>
    <TTGlyph name="Uacute" xMin="41" yMin="-20" xMax="1634" yMax="1947">
      <contour>
        <pt x="41" y="1412" on="0"/>
        <pt x="42" y="1472" on="0"/>
        <pt x="49" y="1483" on="1"/>
        <pt x="202" y="1467" on="0"/>
        <pt x="370" y="1467" on="1"/>
        <pt x="533" y="1467" on="0"/>
        <pt x="685" y="1483" on="1"/>
        <pt x="693" y="1472" on="0"/>
        <pt x="693" y="1412" on="0"/>
        <pt x="685" y="1400" on="1"/>
        <pt x="554" y="1390" on="0"/>
        <pt x="542" y="1360" on="1"/>
        <pt x="530" y="1329" on="0"/>
        <pt x="524" y="1239" on="0"/>
        <pt x="524" y="1149" on="1"/>
        <pt x="524" y="739" on="1"/>
        <pt x="524" y="606" on="0"/>
        <pt x="545" y="438" on="0"/>
        <pt x="580" y="356" on="1"/>
        <pt x="673" y="141" on="0"/>
        <pt x="921" y="141" on="1"/>
        <pt x="976" y="141" on="0"/>
        <pt x="1079" y="180" on="0"/>
        <pt x="1173" y="266" on="0"/>
        <pt x="1242" y="391" on="0"/>
        <pt x="1284" y="578" on="0"/>
        <pt x="1284" y="692" on="1"/>
        <pt x="1284" y="1073" on="1"/>
        <pt x="1284" y="1148" on="0"/>
        <pt x="1265" y="1314" on="0"/>
        <pt x="1252" y="1346" on="1"/>
        <pt x="1234" y="1388" on="0"/>
        <pt x="1084" y="1400" on="1"/>
        <pt x="1076" y="1412" on="0"/>
        <pt x="1077" y="1472" on="0"/>
        <pt x="1084" y="1483" on="1"/>
        <pt x="1268" y="1467" on="0"/>
        <pt x="1364" y="1467" on="1"/>
        <pt x="1421" y="1467" on="0"/>
        <pt x="1600" y="1482" on="0"/>
        <pt x="1626" y="1483" on="1"/>
        <pt x="1633" y="1472" on="0"/>
        <pt x="1634" y="1412" on="0"/>
        <pt x="1626" y="1400" on="1"/>
        <pt x="1625" y="1400" on="0"/>
        <pt x="1602" y="1398" on="0"/>
        <pt x="1587" y="1397" on="0"/>
        <pt x="1558" y="1394" on="0"/>
        <pt x="1538" y="1390" on="0"/>
        <pt x="1510" y="1384" on="0"/>
        <pt x="1490" y="1377" on="0"/>
        <pt x="1470" y="1367" on="0"/>
        <pt x="1457" y="1354" on="0"/>
        <pt x="1454" y="1346" on="1"/>
        <pt x="1441" y="1314" on="0"/>
        <pt x="1422" y="1150" on="0"/>
        <pt x="1422" y="1075" on="1"/>
        <pt x="1422" y="641" on="1"/>
        <pt x="1422" y="507" on="0"/>
        <pt x="1356" y="287" on="0"/>
        <pt x="1242" y="134" on="0"/>
        <pt x="1086" y="29" on="0"/>
        <pt x="907" y="-20" on="0"/>
        <pt x="809" y="-20" on="1"/>
        <pt x="662" y="-20" on="0"/>
        <pt x="414" y="79" on="0"/>
        <pt x="336" y="177" on="1"/>
        <pt x="292" y="232" on="0"/>
        <pt x="237" y="375" on="0"/>
        <pt x="211" y="557" on="0"/>
        <pt x="211" y="674" on="1"/>
        <pt x="211" y="1149" on="1"/>
        <pt x="211" y="1210" on="0"/>
        <pt x="209" y="1269" on="0"/>
        <pt x="201" y="1338" on="0"/>
        <pt x="193" y="1360" on="1"/>
        <pt x="181" y="1390" on="0"/>
        <pt x="49" y="1400" on="1"/>
      </contour>
      <contour>
        <pt x="697" y="1676" on="1"/>
        <pt x="697" y="1688" on="0"/>
        <pt x="892" y="1882" on="0"/>
        <pt x="965" y="1938" on="1"/>
        <pt x="983" y="1947" on="0"/>
        <pt x="1006" y="1947" on="1"/>
        <pt x="1029" y="1947" on="0"/>
        <pt x="1084" y="1931" on="0"/>
        <pt x="1131" y="1890" on="0"/>
        <pt x="1131" y="1833" on="0"/>
        <pt x="1014" y="1749" on="0"/>
        <pt x="868" y="1680" on="0"/>
        <pt x="741" y="1631" on="0"/>
        <pt x="728" y="1631" on="1"/>
        <pt x="717" y="1631" on="0"/>
        <pt x="697" y="1664" on="0"/>
      </contour>
    </TTGlyph>
    <TTGlyph name="Ucircumflex" xMin="41" yMin="-20" xMax="1634" yMax="1949">
      <contour>
        <pt x="41" y="1412" on="0"/>
        <pt x="42" y="1472" on="0"/>
        <pt x="49" y="1483" on="1"/>
        <pt x="202" y="1467" on="0"/>
        <pt x="370" y="1467" on="1"/>
        <pt x="533" y="1467" on="0"/>
        <pt x="685" y="1483" on="1"/>
        <pt x="693" y="1472" on="0"/>
        <pt x="693" y="1412" on="0"/>
        <pt x="685" y="1400" on="1"/>
        <pt x="554" y="1390" on="0"/>
        <pt x="542" y="1360" on="1"/>
        <pt x="530" y="1329" on="0"/>
        <pt x="524" y="1239" on="0"/>
        <pt x="524" y="1149" on="1"/>
        <pt x="524" y="739" on="1"/>
        <pt x="524" y="606" on="0"/>
        <pt x="545" y="438" on="0"/>
        <pt x="580" y="356" on="1"/>
        <pt x="673" y="141" on="0"/>
        <pt x="921" y="141" on="1"/>
        <pt x="976" y="141" on="0"/>
        <pt x="1079" y="180" on="0"/>
        <pt x="1173" y="266" on="0"/>
        <pt x="1242" y="391" on="0"/>
        <pt x="1284" y="578" on="0"/>
        <pt x="1284" y="692" on="1"/>
        <pt x="1284" y="1073" on="1"/>
        <pt x="1284" y="1148" on="0"/>
        <pt x="1265" y="1314" on="0"/>
        <pt x="1252" y="1346" on="1"/>
        <pt x="1234" y="1388" on="0"/>
        <pt x="1084" y="1400" on="1"/>
        <pt x="1076" y="1412" on="0"/>
        <pt x="1077" y="1472" on="0"/>
        <pt x="1084" y="1483" on="1"/>
        <pt x="1268" y="1467" on="0"/>
        <pt x="1364" y="1467" on="1"/>
        <pt x="1421" y="1467" on="0"/>
        <pt x="1600" y="1482" on="0"/>
        <pt x="1626" y="1483" on="1"/>
        <pt x="1633" y="1472" on="0"/>
        <pt x="1634" y="1412" on="0"/>
        <pt x="1626" y="1400" on="1"/>
        <pt x="1625" y="1400" on="0"/>
        <pt x="1602" y="1398" on="0"/>
        <pt x="1587" y="1397" on="0"/>
        <pt x="1558" y="1394" on="0"/>
        <pt x="1538" y="1390" on="0"/>
        <pt x="1510" y="1384" on="0"/>
        <pt x="1490" y="1377" on="0"/>
        <pt x="1470" y="1367" on="0"/>
        <pt x="1457" y="1354" on="0"/>
        <pt x="1454" y="1346" on="1"/>
        <pt x="1441" y="1314" on="0"/>
        <pt x="1422" y="1150" on="0"/>
        <pt x="1422" y="1075" on="1"/>
        <pt x="1422" y="641" on="1"/>
        <pt x="1422" y="507" on="0"/>
        <pt x="1356" y="287" on="0"/>
        <pt x="1242" y="134" on="0"/>
        <pt x="1086" y="29" on="0"/>
        <pt x="907" y="-20" on="0"/>
        <pt x="809" y="-20" on="1"/>
        <pt x="662" y="-20" on="0"/>
        <pt x="414" y="79" on="0"/>
        <pt x="336" y="177" on="1"/>
        <pt x="292" y="232" on="0"/>
        <pt x="237" y="375" on="0"/>
        <pt x="211" y="557" on="0"/>
        <pt x="211" y="674" on="1"/>
        <pt x="211" y="1149" on="1"/>
        <pt x="211" y="1210" on="0"/>
        <pt x="209" y="1269" on="0"/>
        <pt x="201" y="1338" on="0"/>
        <pt x="193" y="1360" on="1"/>
        <pt x="181" y="1390" on="0"/>
        <pt x="49" y="1400" on="1"/>
      </contour>
      <contour>
        <pt x="591" y="1673" on="1"/>
        <pt x="616" y="1692" on="0"/>
        <pt x="753" y="1819" on="1"/>
        <pt x="772" y="1837" on="0"/>
        <pt x="807" y="1873" on="0"/>
        <pt x="827" y="1895" on="0"/>
        <pt x="850" y="1922" on="0"/>
        <pt x="853" y="1926" on="1"/>
        <pt x="872" y="1949" on="0"/>
        <pt x="883" y="1949" on="1"/>
        <pt x="885" y="1949" on="0"/>
        <pt x="890" y="1947" on="0"/>
        <pt x="897" y="1941" on="0"/>
        <pt x="901" y="1937" on="0"/>
        <pt x="910" y="1928" on="0"/>
        <pt x="912" y="1926" on="1"/>
        <pt x="965" y="1868" on="0"/>
        <pt x="1006" y="1828" on="1"/>
        <pt x="1131" y="1705" on="0"/>
        <pt x="1174" y="1673" on="1"/>
        <pt x="1174" y="1660" on="0"/>
        <pt x="1161" y="1639" on="0"/>
        <pt x="1151" y="1635" on="1"/>
        <pt x="1129" y="1641" on="0"/>
        <pt x="931" y="1738" on="0"/>
        <pt x="883" y="1770" on="1"/>
        <pt x="833" y="1737" on="0"/>
        <pt x="640" y="1642" on="0"/>
        <pt x="614" y="1635" on="1"/>
        <pt x="606" y="1639" on="0"/>
        <pt x="591" y="1661" on="0"/>
      </contour>
    </TTGlyph>
    <TTGlyph name="Udieresis" xMin="41" yMin="-20" xMax="1634" yMax="1935">
      <contour>
        <pt x="41" y="1412" on="0"/>
        <pt x="42" y="1472" on="0"/>
        <pt x="49" y="1483" on="1"/>
        <pt x="202" y="1467" on="0"/>
        <pt x="370" y="1467" on="1"/>
        <pt x="533" y="1467" on="0"/>
        <pt x="685" y="1483" on="1"/>
        <pt x="693" y="1472" on="0"/>
        <pt x="693" y="1412" on="0"/>
        <pt x="685" y="1400" on="1"/>
        <pt x="554" y="1390" on="0"/>
        <pt x="542" y="1360" on="1"/>
        <pt x="530" y="1329" on="0"/>
        <pt x="524" y="1239" on="0"/>
        <pt x="524" y="1149" on="1"/>
        <pt x="524" y="739" on="1"/>
        <pt x="524" y="606" on="0"/>
        <pt x="545" y="438" on="0"/>
        <pt x="580" y="356" on="1"/>
        <pt x="673" y="141" on="0"/>
        <pt x="921" y="141" on="1"/>
        <pt x="976" y="141" on="0"/>
        <pt x="1079" y="180" on="0"/>
        <pt x="1173" y="266" on="0"/>
        <pt x="1242" y="391" on="0"/>
        <pt x="1284" y="578" on="0"/>
        <pt x="1284" y="692" on="1"/>
        <pt x="1284" y="1073" on="1"/>
        <pt x="1284" y="1148" on="0"/>
        <pt x="1265" y="1314" on="0"/>
        <pt x="1252" y="1346" on="1"/>
        <pt x="1234" y="1388" on="0"/>
        <pt x="1084" y="1400" on="1"/>
        <pt x="1076" y="1412" on="0"/>
        <pt x="1077" y="1472" on="0"/>
        <pt x="1084" y="1483" on="1"/>
        <pt x="1268" y="1467" on="0"/>
        <pt x="1364" y="1467" on="1"/>
        <pt x="1421" y="1467" on="0"/>
        <pt x="1600" y="1482" on="0"/>
        <pt x="1626" y="1483" on="1"/>
        <pt x="1633" y="1472" on="0"/>
        <pt x="1634" y="1412" on="0"/>
        <pt x="1626" y="1400" on="1"/>
        <pt x="1625" y="1400" on="0"/>
        <pt x="1602" y="1398" on="0"/>
        <pt x="1587" y="1397" on="0"/>
        <pt x="1558" y="1394" on="0"/>
        <pt x="1538" y="1390" on="0"/>
        <pt x="1510" y="1384" on="0"/>
        <pt x="1490" y="1377" on="0"/>
        <pt x="1470" y="1367" on="0"/>
        <pt x="1457" y="1354" on="0"/>
        <pt x="1454" y="1346" on="1"/>
        <pt x="1441" y="1314" on="0"/>
        <pt x="1422" y="1150" on="0"/>
        <pt x="1422" y="1075" on="1"/>
        <pt x="1422" y="641" on="1"/>
        <pt x="1422" y="507" on="0"/>
        <pt x="1356" y="287" on="0"/>
        <pt x="1242" y="134" on="0"/>
        <pt x="1086" y="29" on="0"/>
        <pt x="907" y="-20" on="0"/>
        <pt x="809" y="-20" on="1"/>
        <pt x="662" y="-20" on="0"/>
        <pt x="414" y="79" on="0"/>
        <pt x="336" y="177" on="1"/>
        <pt x="292" y="232" on="0"/>
        <pt x="237" y="375" on="0"/>
        <pt x="211" y="557" on="0"/>
        <pt x="211" y="674" on="1"/>
        <pt x="211" y="1149" on="1"/>
        <pt x="211" y="1210" on="0"/>
        <pt x="209" y="1269" on="0"/>
        <pt x="201" y="1338" on="0"/>
        <pt x="193" y="1360" on="1"/>
        <pt x="181" y="1390" on="0"/>
        <pt x="49" y="1400" on="1"/>
      </contour>
      <contour>
        <pt x="477" y="1785" on="1"/>
        <pt x="477" y="1849" on="0"/>
        <pt x="563" y="1935" on="0"/>
        <pt x="627" y="1935" on="1"/>
        <pt x="691" y="1935" on="0"/>
        <pt x="780" y="1849" on="0"/>
        <pt x="780" y="1785" on="1"/>
        <pt x="780" y="1721" on="0"/>
        <pt x="691" y="1633" on="0"/>
        <pt x="627" y="1633" on="1"/>
        <pt x="564" y="1633" on="0"/>
        <pt x="477" y="1721" on="0"/>
      </contour>
      <contour>
        <pt x="981" y="1785" on="1"/>
        <pt x="981" y="1849" on="0"/>
        <pt x="1069" y="1935" on="0"/>
        <pt x="1198" y="1935" on="0"/>
        <pt x="1286" y="1849" on="0"/>
        <pt x="1286" y="1785" on="1"/>
        <pt x="1286" y="1721" on="0"/>
        <pt x="1197" y="1633" on="0"/>
        <pt x="1070" y="1633" on="0"/>
        <pt x="981" y="1721" on="0"/>
      </contour>
    </TTGlyph>
</ttFont>
